<?xml version="1.0" standalone="no"?>
<!DOCTYPE svg PUBLIC "-//W3C//DTD SVG 1.1//EN" "http://www.w3.org/Graphics/SVG/1.1/DTD/svg11.dtd" >
<svg xmlns="http://www.w3.org/2000/svg" xmlns:xlink="http://www.w3.org/1999/xlink" version="1.1">
<metadata>
Created by FontForge 20201107 at Tue Jul 26 17:12:58 2022
 By 
Copyright (c) 2021 by Square, Inc and Colophon Foundry. All rights reserved.
</metadata>
<defs>
<font id="SquareSansDisplay-Regular" horiz-adv-x="529" >
  <font-face 
    font-family="Square Sans Display"
    font-weight="400"
    font-stretch="normal"
    units-per-em="1000"
    panose-1="0 0 0 0 0 0 0 0 0 0"
    ascent="800"
    descent="-200"
    x-height="512"
    cap-height="700"
    bbox="-116 -212 1158 954"
    underline-thickness="50"
    underline-position="-125"
    unicode-range="U+000D-1F10C"
  />
<missing-glyph horiz-adv-x="800" 
d="M167 0q-32 0 -58.5 16t-42.5 42.5t-16 58.5v466q0 32 16 58.5t42.5 42.5t58.5 16h466q32 0 58.5 -16t42.5 -42.5t16 -58.5v-466q0 -32 -16 -58.5t-42.5 -42.5t-58.5 -16h-466zM214 127h372q15 0 26 11t11 26v372q0 15 -11 25.5t-26 10.5h-372q-15 0 -25.5 -10.5
t-10.5 -25.5v-372q0 -15 10.5 -26t25.5 -11zM326 255q-9 0 -15.5 6.5t-6.5 14.5v148q0 10 6.5 16t15.5 6h149q8 0 14.5 -6t6.5 -16v-148q0 -8 -6.5 -14.5t-14.5 -6.5h-149z" />
    <glyph glyph-name="f_i" unicode="fi" horiz-adv-x="545" 
d="M112 0v544q0 82 42.5 124t109.5 42h96v-72h-90q-35 0 -55 -21.5t-20 -69.5v-547h-83zM13 442v70h328v-70h-328zM415 0v512h83v-512h-83zM456 601q-22 0 -38.5 16.5t-16.5 38.5q0 23 16.5 39t38.5 16q23 0 39 -16t16 -39q0 -22 -16 -38.5t-39 -16.5z" />
    <glyph glyph-name="f_l" unicode="fl" horiz-adv-x="546" 
d="M112 0v544q0 82 42.5 124t109.5 42h96v-72h-90q-35 0 -55 -21.5t-20 -69.5v-547h-83zM13 442v70h328v-70h-328zM415 0v710h83v-710h-83z" />
    <glyph glyph-name=".notdef" horiz-adv-x="800" 
d="M167 0q-32 0 -58.5 16t-42.5 42.5t-16 58.5v466q0 32 16 58.5t42.5 42.5t58.5 16h466q32 0 58.5 -16t42.5 -42.5t16 -58.5v-466q0 -32 -16 -58.5t-42.5 -42.5t-58.5 -16h-466zM214 127h372q15 0 26 11t11 26v372q0 15 -11 25.5t-26 10.5h-372q-15 0 -25.5 -10.5
t-10.5 -25.5v-372q0 -15 10.5 -26t25.5 -11zM326 255q-9 0 -15.5 6.5t-6.5 14.5v148q0 10 6.5 16t15.5 6h149q8 0 14.5 -6t6.5 -16v-148q0 -8 -6.5 -14.5t-14.5 -6.5h-149z" />
    <glyph glyph-name=".null" horiz-adv-x="0" 
 />
    <glyph glyph-name="nonmarkingreturn" horiz-adv-x="333" 
 />
    <glyph glyph-name="CR" unicode="&#xd;" horiz-adv-x="600" 
 />
    <glyph glyph-name="space" unicode=" " horiz-adv-x="199" 
 />
    <glyph glyph-name="exclam" unicode="!" horiz-adv-x="208" 
d="M73 213l-11 300v187h84v-187l-11 -300h-62zM104 -6q-24 0 -41.5 17.5t-17.5 42.5q0 24 17.5 41.5t41.5 17.5t41.5 -17.5t17.5 -41.5q0 -25 -17.5 -42.5t-41.5 -17.5z" />
    <glyph glyph-name="quotedbl" unicode="&#x22;" horiz-adv-x="339" 
d="M52 449v251h74v-251h-74zM213 449v251h74v-251h-74z" />
    <glyph glyph-name="numbersign" unicode="#" horiz-adv-x="645" 
d="M398 0l40 700h77l-40 -700h-77zM131 0l40 700h76l-40 -700h-76zM33 190v72h569v-72h-569zM43 438v72h569v-72h-569z" />
    <glyph glyph-name="dollar" unicode="$" horiz-adv-x="560" 
d="M286 -10q-77 0 -131.5 27t-85 76.5t-36.5 116.5v0h90v0q5 -61 45.5 -101t117.5 -40q71 0 110.5 34t39.5 90v0q0 49 -29 77t-85 41l-99 22q-50 11 -89 36t-61 63t-22 88v0q0 58 30.5 100.5t82.5 66t115 23.5q64 0 113.5 -22t79.5 -61.5t34 -93.5v0h-84v0q-10 46 -47 73.5
t-96 27.5q-64 0 -103.5 -32t-39.5 -80v0q0 -44 32.5 -72.5t92.5 -42.5l96 -22q51 -11 88 -35.5t57 -62t20 -89.5v0q0 -63 -30 -109.5t-83 -72.5t-123 -26zM242 -80v120v0v633v0v107h77v-107v0v-633v0v-120h-77z" />
    <glyph glyph-name="percent" unicode="%" horiz-adv-x="832" 
d="M174 0l403 700h81l-402 -700h-82zM204 338q-50 0 -87.5 24t-57.5 66.5t-20 95.5v0q0 54 20 96t57.5 66t87.5 24q51 0 88 -24t57 -66t20 -96v0q0 -53 -20 -95.5t-57 -66.5t-88 -24zM204 405q42 0 67.5 32t25.5 87v0q0 56 -25.5 88t-67.5 32t-67.5 -32t-25.5 -88v0
q0 -55 25.5 -87t67.5 -32zM628 -10q-50 0 -87.5 24t-57.5 66.5t-20 95.5v0q0 54 20 96t57.5 66t87.5 24q51 0 88 -24t57 -66t20 -96v0q0 -53 -20 -95.5t-57 -66.5t-88 -24zM628 57q42 0 67.5 32t25.5 87v0q0 56 -25.5 88t-67.5 32t-67.5 -32t-25.5 -88v0q0 -55 25.5 -87
t67.5 -32z" />
    <glyph glyph-name="ampersand" unicode="&#x26;" horiz-adv-x="664" 
d="M253 -10q-60 0 -108 24t-75.5 67.5t-27.5 102.5v0q0 55 24.5 97.5t68.5 73.5t103 51q56 20 89 40t47.5 45.5t14.5 61.5v0q0 38 -28.5 62t-69.5 24q-48 0 -76 -27t-28 -74v0q0 -40 21 -72t52 -66l384 -400h-109l-343 359q-37 40 -61.5 81t-24.5 98v0q0 54 25 92.5t67 59
t93 20.5q50 0 89.5 -19t63 -53.5t23.5 -82.5v0q0 -52 -21.5 -89.5t-62.5 -65t-100 -48.5q-82 -28 -118 -66.5t-36 -98.5v0q0 -39 19 -66.5t49.5 -41.5t64.5 -14q58 0 100.5 28.5t73.5 84.5l85 149h112v-70h-62l-75 -127q-27 -47 -62 -78t-79.5 -46.5t-101.5 -15.5z" />
    <glyph glyph-name="quotesingle" unicode="'" horiz-adv-x="178" 
d="M52 449v251h74v-251h-74z" />
    <glyph glyph-name="parenleft" unicode="(" horiz-adv-x="293" 
d="M178 -188q-31 43 -61 113.5t-49.5 160.5t-19.5 190q0 101 19.5 190.5t49.5 160t61 113.5h85q-38 -56 -67.5 -130t-45.5 -159t-16 -175t16 -175t45.5 -158.5t67.5 -130.5h-85z" />
    <glyph glyph-name="parenright" unicode=")" horiz-adv-x="293" 
d="M30 -188q39 57 68 130.5t45 158.5t16 175t-16 175t-45 159t-68 130h85q32 -43 61.5 -113.5t49 -160t19.5 -190.5q0 -100 -19.5 -190t-49 -160.5t-61.5 -113.5h-85z" />
    <glyph glyph-name="asterisk" unicode="*" horiz-adv-x="446" 
d="M139 335l-55 41l98 117v5l-151 37l22 66l142 -58l5 4l-11 153h69l-11 -153l4 -4l143 58l21 -66l-151 -37v-5l99 -117l-56 -41l-82 130h-4z" />
    <glyph glyph-name="plus" unicode="+" horiz-adv-x="450" 
d="M190 119v398h71v-398h-71zM26 283v71h398v-71h-398z" />
    <glyph glyph-name="comma" unicode="," horiz-adv-x="190" 
d="M29 -107l35 217h93l-69 -217h-59z" />
    <glyph glyph-name="hyphen" unicode="-" horiz-adv-x="305" 
d="M26 284v68h253v-68h-253z" />
    <glyph glyph-name="period" unicode="." horiz-adv-x="190" 
d="M95 -6q-24 0 -41.5 17.5t-17.5 42.5q0 24 17.5 41.5t41.5 17.5t41.5 -17.5t17.5 -41.5q0 -25 -17.5 -42.5t-41.5 -17.5z" />
    <glyph glyph-name="slash" unicode="/" horiz-adv-x="364" 
d="M39 -60l200 820h86l-200 -820h-86z" />
    <glyph glyph-name="zero" unicode="0" horiz-adv-x="596" 
d="M298 -10q-79 0 -139 44.5t-93.5 125.5t-33.5 190v0q0 110 33.5 191t93.5 125t139 44t139 -44t93.5 -125t33.5 -191v0q0 -109 -33.5 -190t-93.5 -125.5t-139 -44.5zM298 68q54 0 95 34t63.5 97.5t22.5 150.5v0q0 88 -22.5 151t-63.5 97t-95 34t-94.5 -34t-63.5 -97
t-23 -151v0q0 -87 23 -150.5t63.5 -97.5t94.5 -34z" />
    <glyph glyph-name="one" unicode="1" horiz-adv-x="492" 
d="M201 0v581h-8q-10 -28 -38 -50.5t-76 -22.5h-49v82h52q50 0 80 30.5t39 79.5h84v-700h-84zM24 0v78h440v-78h-440z" />
    <glyph glyph-name="two" unicode="2" horiz-adv-x="514" 
d="M38 0v78l255 245q45 43 68.5 85t23.5 96v0q0 64 -39.5 96t-97.5 32q-55 0 -93 -34t-45 -95v0h-81v0q4 57 31.5 104t75 75t111.5 28t114 -24.5t79 -69.5t29 -109v0q0 -48 -13.5 -88t-40 -76t-65.5 -73l-198 -188v-4h327v-78h-441z" />
    <glyph glyph-name="three" unicode="3" 
d="M268 -10q-72 0 -124 28t-80.5 76t-30.5 108v0h85v0q6 -58 43.5 -96t106.5 -38q68 0 109.5 36t41.5 100v0q0 56 -41.5 90t-104.5 34h-48v76h48q59 0 90.5 31.5t31.5 85.5v0q0 55 -38 84t-92 29q-58 0 -94.5 -31t-44.5 -81v0h-80v0q5 50 31 93t73 69t115 26q65 0 112.5 -23
t74 -64.5t26.5 -97.5v0q0 -59 -32.5 -97.5t-81.5 -53.5v-4q37 -9 68 -30.5t50.5 -55.5t19.5 -83v0q0 -64 -30.5 -111.5t-83 -73.5t-120.5 -26z" />
    <glyph glyph-name="four" unicode="4" horiz-adv-x="542" 
d="M345 0v172h-314v75l310 453h86v-453h96v-75h-96v-172h-82zM120 247h225v328h-4l-221 -324v-4z" />
    <glyph glyph-name="five" unicode="5" horiz-adv-x="539" 
d="M267 -10q-72 0 -123 28.5t-79 78t-31 112.5h84q4 -61 41 -101.5t109 -40.5q44 0 78 21t53.5 58t19.5 85v0q0 74 -43 118t-112 44q-40 0 -74.5 -17.5t-54.5 -48.5h-83l32 373h392v-78h-318l-31 -234h7q17 32 58.5 55.5t89.5 23.5q61 0 111 -28.5t80 -81t30 -126.5v0
q0 -68 -30.5 -122.5t-83.5 -86.5t-122 -32z" />
    <glyph glyph-name="six" unicode="6" horiz-adv-x="560" 
d="M292 -10q-75 0 -133 37t-91 111t-33 185v0q0 130 31.5 216t91 128.5t143.5 42.5q64 0 110.5 -24t74 -65t33.5 -92h-88q-7 45 -41.5 75.5t-91.5 30.5q-67 0 -107 -38.5t-57.5 -108.5t-18.5 -167v0v0h8q16 58 63 96t117 38q60 0 111 -27t81.5 -79t30.5 -127v0
q0 -70 -32 -122.5t-85 -81t-117 -28.5zM291 66q43 0 77.5 19.5t54.5 54.5t20 82v0q0 48 -20 83.5t-54.5 55t-77.5 19.5q-64 0 -107.5 -43.5t-43.5 -114.5v0q0 -47 20 -82t54 -54.5t77 -19.5z" />
    <glyph glyph-name="seven" unicode="7" horiz-adv-x="490" 
d="M118 0l262 618v4h-357v78h443v-78l-258 -622h-90z" />
    <glyph glyph-name="eight" unicode="8" horiz-adv-x="527" 
d="M263 -10q-66 0 -117.5 25t-81.5 71t-30 108v0q0 46 18 80t46.5 56.5t59.5 33.5v7q-46 23 -75.5 59.5t-29.5 91.5v0q0 58 27.5 100t75 65t107.5 23t107.5 -23t75.5 -65t28 -100v0q0 -55 -29.5 -91.5t-76.5 -59.5v-7q32 -11 60.5 -33.5t46.5 -56.5t18 -80v0q0 -62 -30 -108
t-82 -71t-118 -25zM263 66q64 0 105.5 35t41.5 96v0q0 62 -41.5 96.5t-105.5 34.5t-105.5 -34.5t-41.5 -96.5v0q0 -61 41.5 -96t105.5 -35zM263 402q59 0 95 32.5t36 84.5v0q0 52 -36 84.5t-95 32.5t-94.5 -32.5t-35.5 -84.5v0q0 -52 35.5 -84.5t94.5 -32.5z" />
    <glyph glyph-name="nine" unicode="9" horiz-adv-x="560" 
d="M259 -10q-64 0 -110.5 24t-74 65.5t-34.5 91.5h88q8 -44 42 -74.5t91 -30.5q68 0 107.5 37.5t56.5 106.5t17 163v0v0h-7q-14 -52 -61.5 -89t-115.5 -37q-60 0 -111 27t-82 79t-31 126v0q0 71 31.5 123t85 80t117.5 28q75 0 133 -37t91 -111t33 -185v0q0 -130 -31.5 -216
t-91 -128.5t-143.5 -42.5zM268 323q42 0 76.5 19t55 54.5t20.5 82.5v0q0 48 -20.5 83t-55 54t-76.5 19t-76.5 -19t-54.5 -54t-20 -83v0q0 -47 20 -82.5t54.5 -54.5t76.5 -19z" />
    <glyph glyph-name="colon" unicode=":" horiz-adv-x="190" 
d="M95 -6q-24 0 -41.5 17.5t-17.5 42.5q0 24 17.5 41.5t41.5 17.5t41.5 -17.5t17.5 -41.5q0 -25 -17.5 -42.5t-41.5 -17.5zM95 399q-24 0 -41.5 17.5t-17.5 42.5q0 24 17.5 41.5t41.5 17.5t41.5 -17.5t17.5 -41.5q0 -25 -17.5 -42.5t-41.5 -17.5z" />
    <glyph glyph-name="semicolon" unicode=";" horiz-adv-x="190" 
d="M18 -107l35 217h93l-69 -217h-59zM95 399q-24 0 -41.5 17.5t-17.5 42.5q0 24 17.5 41.5t41.5 17.5t41.5 -17.5t17.5 -41.5q0 -25 -17.5 -42.5t-41.5 -17.5z" />
    <glyph glyph-name="less" unicode="&#x3c;" horiz-adv-x="450" 
d="M424 89l-398 194v71l398 193v-83l-297 -142v-8l297 -141v-84z" />
    <glyph glyph-name="equal" unicode="=" horiz-adv-x="450" 
d="M26 403v71h398v-71h-398zM26 163v71h398v-71h-398z" />
    <glyph glyph-name="greater" unicode="&#x3e;" horiz-adv-x="450" 
d="M26 89v84l298 141v8l-298 142v83l398 -193v-71z" />
    <glyph glyph-name="question" unicode="?" horiz-adv-x="500" 
d="M224 206l-6 141q64 16 102 38t55 54t17 76v0q0 54 -39 88.5t-104 34.5q-54 0 -91 -28t-45 -81v0h-82v0q5 54 32 94.5t74.5 63.5t111.5 23q71 0 122 -26t78.5 -70t27.5 -99v0q0 -62 -25 -105t-67 -70t-93 -42l-3 -92h-65zM256 -6q-25 0 -42 17.5t-17 42.5q0 24 17 41.5
t42 17.5q24 0 41.5 -17.5t17.5 -41.5q0 -25 -17.5 -42.5t-41.5 -17.5z" />
    <glyph glyph-name="at" unicode="@" horiz-adv-x="930" 
d="M481 -173q-139 0 -236.5 56t-148 153.5t-50.5 219.5v0q0 92 30.5 170t87 136t134.5 90t173 32q126 0 219 -49t143.5 -143t50.5 -231v0q0 -70 -22 -122.5t-59 -81t-82 -28.5q-54 0 -82.5 33.5t-33.5 83.5h-8q-25 -56 -65.5 -86.5t-97.5 -30.5q-58 0 -103.5 27.5t-72 78.5
t-26.5 121v0q0 71 26.5 121.5t72 77.5t103.5 27q50 0 89.5 -26t60.5 -72h8v88h73v-304q0 -31 15 -49t42 -18q41 0 63 42.5t22 117.5v0q0 170 -89 261.5t-247 91.5q-105 0 -182.5 -45.5t-120 -126.5t-42.5 -186v0q0 -105 44 -186t123.5 -127t187.5 -46h165v-70h-165zM451 103
q36 0 67.5 18.5t50.5 52.5t19 82v0q0 52 -19 85.5t-50.5 50.5t-67.5 17t-67 -17t-50.5 -50.5t-19.5 -85.5v0q0 -51 19.5 -85t50.5 -51t67 -17z" />
    <glyph glyph-name="A" unicode="A" horiz-adv-x="658" 
d="M8 0l267 700h108l267 -700h-94l-199 532l-24 78h-8l-24 -78l-199 -532h-94zM129 185v79h400v-79h-400z" />
    <glyph glyph-name="B" unicode="B" horiz-adv-x="575" 
d="M52 0v700h262q95 0 146 -47.5t51 -127.5v0q0 -39 -14.5 -68.5t-36.5 -48.5t-45 -29v-4q34 -12 61.5 -34t44.5 -57t17 -86v0q0 -57 -29.5 -102t-79.5 -70.5t-114 -25.5h-263zM139 78h171q63 0 103.5 32t40.5 96v0q0 64 -40.5 96t-103.5 32h-171v-256zM139 410h172
q53 0 85 27t32 79v0q0 51 -32 78.5t-85 27.5h-172v-212z" />
    <glyph glyph-name="C" unicode="C" horiz-adv-x="676" 
d="M356 -10q-67 0 -125 25t-102 72t-68.5 113.5t-24.5 149.5v0q0 83 24.5 149.5t68.5 113.5t102 72t125 25q81 0 142 -28t98.5 -77t47.5 -112v0h-85v0q-19 62 -70 99.5t-133 37.5q-65 0 -118 -33.5t-84 -96t-31 -150.5v0q0 -87 31 -149.5t84 -96t118 -33.5q55 0 94.5 17
t66.5 48t43 73v0h87v0q-16 -64 -54.5 -113.5t-98 -77.5t-138.5 -28z" />
    <glyph glyph-name="D" unicode="D" horiz-adv-x="632" 
d="M52 0v700h210q96 0 171.5 -41.5t119 -120t43.5 -188.5v0q0 -109 -43.5 -187.5t-118.5 -120.5t-171 -42h-211zM139 80h121q71 0 127.5 31t89 91t32.5 148v0q0 88 -33 148t-89.5 91t-127.5 31h-120v-540z" />
    <glyph glyph-name="E" unicode="E" horiz-adv-x="535" 
d="M52 0v700h438v-80h-351v-220h294v-79h-294v-241h357v-80h-444z" />
    <glyph glyph-name="F" unicode="F" horiz-adv-x="522" 
d="M52 0v700h442v-80h-355v-242h303v-80h-303v-298h-87z" />
    <glyph glyph-name="G" unicode="G" horiz-adv-x="694" 
d="M350 -10q-87 0 -158.5 44t-113.5 124.5t-42 191.5v0q0 83 25 149.5t69.5 113.5t103 72t125.5 25q80 0 139.5 -25t97 -70.5t49.5 -105.5v0h-90v0q-16 52 -67 86.5t-129 34.5q-65 0 -118.5 -33.5t-85.5 -96t-32 -150.5v0q0 -87 31.5 -149.5t85 -96t118.5 -33.5
q64 0 108 29.5t68.5 76t26.5 98.5v0h-205v75h293v-350h-80v118h-8q-16 -32 -43.5 -61.5t-69 -48t-98.5 -18.5z" />
    <glyph glyph-name="H" unicode="H" horiz-adv-x="628" 
d="M488 0v700h88v-700h-88zM52 0v700h87v-700h-87zM94 332v80h439v-80h-439z" />
    <glyph glyph-name="I" unicode="I" horiz-adv-x="191" 
d="M52 0v700h87v-700h-87z" />
    <glyph glyph-name="J" unicode="J" 
d="M260 -10q-97 0 -155.5 59.5t-63.5 165.5h87q7 -69 41.5 -107t90.5 -38t92.5 38.5t36.5 117.5v474h88v-470q0 -118 -59.5 -179t-157.5 -61z" />
    <glyph glyph-name="K" unicode="K" horiz-adv-x="541" 
d="M425 0l-295 350l295 350h105l-296 -349l296 -351h-105zM52 0v700h87v-700h-87zM124 332v36h28v-36h-28z" />
    <glyph glyph-name="L" unicode="L" horiz-adv-x="523" 
d="M52 0v700h87v-620h356v-80h-443z" />
    <glyph glyph-name="M" unicode="M" horiz-adv-x="813" 
d="M52 0v700h117l233 -598h8l233 598h118v-700h-88v433l8 126h-8l-221 -559h-91l-222 559h-8l8 -126v-433h-87z" />
    <glyph glyph-name="N" unicode="N" horiz-adv-x="657" 
d="M52 0v700h100l365 -553h8l-8 125v428h88v-700h-88l-378 573h-8l8 -125v-448h-87z" />
    <glyph glyph-name="O" unicode="O" horiz-adv-x="746" 
d="M373 -10q-94 0 -170.5 44.5t-121.5 125.5t-45 190v0q0 110 45 191t121.5 125t170.5 44t170 -44t121.5 -125t45.5 -191v0q0 -82 -26 -148.5t-72.5 -113.5t-107.5 -72.5t-131 -25.5zM373 71q70 0 126.5 33.5t89.5 96t33 149.5v0q0 88 -33 150.5t-89.5 96t-126.5 33.5
t-127 -33.5t-90 -96t-33 -150.5v0q0 -87 33 -149.5t90 -96t127 -33.5z" />
    <glyph glyph-name="P" unicode="P" horiz-adv-x="560" 
d="M52 0v700h242q106 0 168 -52.5t62 -154.5v0q0 -101 -62 -153.5t-168 -52.5h-155v-287h-87zM139 367h160q65 0 101.5 32.5t36.5 93.5v0q0 62 -36.5 94.5t-101.5 32.5h-160v-253z" />
    <glyph glyph-name="Q" unicode="Q" horiz-adv-x="746" 
d="M601 -88l-244 337h99l244 -337h-99zM373 -10q-94 0 -170.5 44.5t-121.5 125.5t-45 190v0q0 110 45 191t121.5 125t170.5 44t170 -44t121.5 -125t45.5 -191v0q0 -82 -26 -148.5t-72.5 -113.5t-107.5 -72.5t-131 -25.5zM373 71q70 0 126.5 33.5t89.5 96t33 149.5v0
q0 88 -33 150.5t-89.5 96t-126.5 33.5t-127 -33.5t-90 -96t-33 -150.5v0q0 -87 33 -149.5t90 -96t127 -33.5z" />
    <glyph glyph-name="R" unicode="R" horiz-adv-x="567" 
d="M52 0v700h242q104 0 167 -52t63 -149v0q0 -97 -63 -149t-167 -52h-155v-298h-87zM441 0l-196 323h99l196 -323h-99zM139 378h161q65 0 101 32t36 89v0q0 57 -36 89t-101 32h-161v-242z" />
    <glyph glyph-name="S" unicode="S" horiz-adv-x="560" 
d="M286 -10q-77 0 -131.5 27t-85 76.5t-36.5 116.5v0h90v0q5 -61 45.5 -101t117.5 -40q71 0 110.5 34t39.5 90v0q0 49 -29 77t-85 41l-99 22q-50 11 -89 36t-61 63t-22 88v0q0 58 30.5 100.5t82.5 66t115 23.5q64 0 113.5 -22t79.5 -61.5t34 -93.5v0h-84v0q-10 46 -47 73.5
t-96 27.5q-64 0 -103.5 -32t-39.5 -80v0q0 -44 32.5 -72.5t92.5 -42.5l96 -22q51 -11 88 -35.5t57 -62t20 -89.5v0q0 -63 -30 -109.5t-83 -72.5t-123 -26z" />
    <glyph glyph-name="T" unicode="T" horiz-adv-x="562" 
d="M237 0v651h88v-651h-88zM22 620v80h518v-80h-518z" />
    <glyph glyph-name="U" unicode="U" horiz-adv-x="616" 
d="M308 -10q-124 0 -190 76.5t-66 207.5v426h87v-425q0 -96 43.5 -150.5t125.5 -54.5q81 0 124.5 54.5t43.5 150.5v425h88v-426q0 -87 -29.5 -151t-86.5 -98.5t-140 -34.5z" />
    <glyph glyph-name="V" unicode="V" horiz-adv-x="637" 
d="M262 0l-254 700h99l184 -528l24 -76h8l23 76l185 528h98l-254 -700h-113z" />
    <glyph glyph-name="W" unicode="W" horiz-adv-x="935" 
d="M195 0l-183 700h96l129 -520l14 -77h8l15 77l135 520h117l134 -520l15 -77h8l14 77l129 520h97l-183 -700h-118l-130 503l-21 96h-8l-21 -96l-129 -503h-118z" />
    <glyph glyph-name="X" unicode="X" horiz-adv-x="627" 
d="M18 0l243 366l-221 334h102l167 -257h8l168 257h101l-221 -334l244 -366h-101l-191 286h-8l-190 -286h-101z" />
    <glyph glyph-name="Y" unicode="Y" horiz-adv-x="594" 
d="M253 0v251l-238 449h100l153 -296l25 -59h8l25 59l152 296h101l-238 -449v-251h-88z" />
    <glyph glyph-name="Z" unicode="Z" horiz-adv-x="527" 
d="M25 0v80l357 536v4h-347v80h446v-80l-357 -536v-4h375v-80h-474z" />
    <glyph glyph-name="bracketleft" unicode="[" horiz-adv-x="314" 
d="M52 -188v928h223v-76h-140v-776h140v-76h-223z" />
    <glyph glyph-name="backslash" unicode="\" horiz-adv-x="364" 
d="M239 -60l-200 820h86l200 -820h-86z" />
    <glyph glyph-name="bracketright" unicode="]" horiz-adv-x="314" 
d="M39 -188v76h140v776h-140v76h223v-928h-223z" />
    <glyph glyph-name="asciicircum" unicode="^" horiz-adv-x="450" 
d="M20 450l170 250h70l171 -250h-80l-122 179h-8l-122 -179h-79z" />
    <glyph glyph-name="underscore" unicode="_" horiz-adv-x="467" 
d="M26 -98v68h415v-68h-415z" />
    <glyph glyph-name="grave" unicode="`" horiz-adv-x="190" 
d="M116 588l-106 147h100l70 -147h-64z" />
    <glyph glyph-name="a" unicode="a" horiz-adv-x="502" 
d="M189 -10q-43 0 -78.5 19t-56.5 53t-21 80v0q0 46 19.5 80t60 54t103.5 24l158 10v50q0 44 -32 67.5t-89 23.5q-49 0 -79 -23t-38 -62v0h-84v0q9 74 64 115t137 41q92 0 148 -39.5t56 -117.5v-365h-75v98h-8q-13 -32 -37 -56.5t-60 -38t-88 -13.5zM214 62q50 0 86 19.5
t55 53.5t19 76v36l-135 -9q-64 -4 -91.5 -26t-27.5 -66v0q0 -37 26 -60.5t68 -23.5z" />
    <glyph glyph-name="b" unicode="b" horiz-adv-x="572" 
d="M309 -11q-62 0 -106 28.5t-72 76.5h-8v-94h-75v710h83v-208l-8 -84h8q25 51 71.5 77.5t107.5 26.5q67 0 119 -33t82.5 -93t30.5 -140v0q0 -80 -30.5 -140t-83 -93.5t-119.5 -33.5zM292 64q45 0 82.5 22.5t60.5 65.5t23 104v0q0 61 -23 103.5t-60.5 65t-82.5 22.5
q-44 0 -81.5 -22.5t-60.5 -65t-23 -103.5v0q0 -61 23 -104t60.5 -65.5t81.5 -22.5z" />
    <glyph glyph-name="c" unicode="c" 
d="M281 -11q-75 0 -131.5 34.5t-88 95t-31.5 137.5v0q0 78 31.5 138t88 94t131.5 34q91 0 151 -43.5t72 -119.5v0h-83v0q-14 41 -48.5 64.5t-91.5 23.5q-44 0 -82.5 -22.5t-61.5 -65t-23 -103.5v0q0 -61 23 -104t61.5 -65.5t82.5 -22.5q56 0 91 26.5t50 63.5v0h83v0
q-21 -76 -80 -120.5t-144 -44.5z" />
    <glyph glyph-name="d" unicode="d" horiz-adv-x="572" 
d="M263 -10q-66 0 -119 33t-83.5 93t-30.5 140v0q0 80 30.5 140t83 93t118.5 33q61 0 107.5 -26t71.5 -73h8l-8 79v208h83v-710h-75v94h-8q-28 -48 -72 -76t-106 -28zM279 65q45 0 82.5 22.5t60.5 65t23 103.5v0q0 61 -23 103.5t-60.5 65t-82.5 22.5q-44 0 -81.5 -22.5
t-60.5 -65t-23 -103.5v0q0 -61 23 -103.5t60.5 -65t81.5 -22.5z" />
    <glyph glyph-name="e" unicode="e" horiz-adv-x="551" 
d="M281 -10q-74 0 -130.5 34.5t-88.5 95t-32 136.5v0q0 77 32.5 137t89.5 94.5t130 34.5q72 0 126 -30.5t84 -82t30 -115.5q0 -16 -1.5 -29t-3.5 -26h-446v65h369v0q-1 46 -22.5 79.5t-57 51.5t-78.5 18q-45 0 -83.5 -22t-62 -64.5t-23.5 -102.5l-1 -10q0 -61 23.5 -103.5
t62.5 -65t83 -22.5q52 0 88 21.5t55 57.5v0h84v0q-17 -48 -49.5 -82t-77.5 -52t-100 -18z" />
    <glyph glyph-name="f" unicode="f" horiz-adv-x="367" 
d="M112 0v544q0 82 42.5 124t109.5 42h96v-72h-90q-35 0 -55 -21.5t-20 -69.5v-547h-83zM13 442v70h328v-70h-328z" />
    <glyph glyph-name="g" unicode="g" horiz-adv-x="564" 
d="M280 -198q-102 0 -161.5 43.5t-76.5 111.5h91q11 -35 47.5 -59.5t99.5 -24.5q73 0 113 44.5t40 117.5v0l2 64h-8q-19 -41 -62.5 -68.5t-106.5 -27.5t-114.5 31.5t-82.5 89.5t-31 138v0q0 80 31 138.5t82.5 90t114.5 31.5q60 0 105 -25.5t70 -73.5h8v89h75v-471
q0 -75 -29 -128.5t-82 -82t-125 -28.5zM275 78q44 0 81 21t59 62t22 101v0q0 61 -22 102t-59 62t-81 21q-43 0 -80 -21t-59 -62t-22 -102v0q0 -60 22 -101t59 -62t80 -21z" />
    <glyph glyph-name="h" unicode="h" horiz-adv-x="537" 
d="M48 0v710h83v-198l-8 -102h8q19 52 66.5 82t113.5 30q86 0 132 -53.5t46 -151.5v-317h-83v309q0 74 -33 106t-87 32q-46 0 -81 -22t-54.5 -60t-19.5 -85v-280h-83z" />
    <glyph glyph-name="i" unicode="i" horiz-adv-x="178" 
d="M48 0v512h83v-512h-83zM89 601q-22 0 -38.5 16.5t-16.5 38.5q0 23 16.5 39t38.5 16q23 0 39 -16t16 -39q0 -22 -16 -38.5t-39 -16.5z" />
    <glyph glyph-name="j" unicode="j" horiz-adv-x="178" 
d="M-58 -188v75h64q21 0 31.5 14t10.5 39v572h83v-578q0 -59 -29 -90.5t-82 -31.5h-78zM89 601q-22 0 -38.5 16.5t-16.5 38.5q0 23 16.5 39t38.5 16q23 0 39 -16t16 -39q0 -22 -16 -38.5t-39 -16.5z" />
    <glyph glyph-name="k" unicode="k" horiz-adv-x="453" 
d="M339 0l-217 265l210 247h98l-210 -246l218 -266h-99zM122 247v36h28v-36h-28zM48 0v710h83v-710h-83z" />
    <glyph glyph-name="l" unicode="l" horiz-adv-x="179" 
d="M48 0v710h83v-710h-83z" />
    <glyph glyph-name="m" unicode="m" horiz-adv-x="782" 
d="M48 0v512h75v-89h8q15 42 52.5 70.5t93.5 28.5q57 0 91 -27.5t46 -72.5h8q17 43 55.5 71.5t102.5 28.5q78 0 116 -46t38 -128v-348h-83v339q0 56 -26.5 82t-70.5 26q-54 0 -88 -38t-34 -105v-304h-83v339q0 56 -26 82t-70 26q-54 0 -88 -38t-34 -105v-304h-83z" />
    <glyph glyph-name="n" unicode="n" 
d="M48 0v512h75v-103h8q21 50 64 81.5t107 31.5q88 0 133.5 -54.5t45.5 -149.5v-318h-83v310q0 75 -32.5 106t-83.5 31q-45 0 -79 -20.5t-53 -56.5t-19 -83v-287h-83z" />
    <glyph glyph-name="o" unicode="o" horiz-adv-x="562" 
d="M281 -10q-75 0 -131.5 34.5t-88 94.5t-31.5 137v0q0 77 31.5 137t88 94.5t131.5 34.5t131.5 -34.5t88 -94.5t31.5 -137v0q0 -77 -31.5 -137t-88 -94.5t-131.5 -34.5zM281 65q45 0 83 22t61 65t23 104v0q0 62 -23 104.5t-61 64.5t-83 22t-83 -22t-61 -64.5t-23 -104.5v0
q0 -61 23 -104t61 -65t83 -22z" />
    <glyph glyph-name="p" unicode="p" horiz-adv-x="572" 
d="M48 -188v700h75v-94h8q26 49 72.5 76.5t107.5 27.5q67 0 119 -33t82 -93t30 -140v0q0 -80 -30.5 -140t-82.5 -93t-119 -33q-62 0 -109 28t-70 76h-8l8 -94v-188h-83zM292 65q45 0 82.5 22.5t60.5 65t23 103.5v0q0 61 -23 103.5t-60.5 65t-82.5 22.5q-44 0 -81.5 -22.5
t-60.5 -65t-23 -103.5v0q0 -61 23 -103.5t60.5 -65t81.5 -22.5z" />
    <glyph glyph-name="q" unicode="q" horiz-adv-x="572" 
d="M441 -188v188l8 100h-8q-22 -54 -69.5 -82t-109.5 -28q-66 0 -118.5 33t-83 93t-30.5 140v0q0 80 30.5 140t83 93t118.5 33q60 0 106.5 -26t72.5 -75h8v91h75v-700h-83zM279 65q45 0 82.5 22.5t60.5 65t23 103.5v0q0 61 -23 103.5t-60.5 65t-82.5 22.5q-44 0 -81.5 -22.5
t-60.5 -65t-23 -103.5v0q0 -61 23 -103.5t60.5 -65t81.5 -22.5z" />
    <glyph glyph-name="r" unicode="r" horiz-adv-x="348" 
d="M48 0v512h75v-96h8q12 48 50.5 72t94.5 24h50v-75h-61q-38 0 -68.5 -19t-48 -54t-17.5 -84v-280h-83z" />
    <glyph glyph-name="s" unicode="s" horiz-adv-x="459" 
d="M234 -11q-88 0 -142.5 43t-64.5 119v0h81v0q8 -40 39.5 -65.5t86.5 -25.5q47 0 80.5 22t33.5 64v0q0 38 -26 54t-70 23l-68 12q-37 6 -70.5 23t-55 46t-21.5 71v0q0 44 25 77t67.5 51.5t95.5 18.5q77 0 128.5 -36.5t62.5 -107.5v0h-78v0q-8 35 -39 55t-75 20
q-47 0 -78 -20t-31 -56v0q0 -33 29.5 -51.5t78.5 -26.5l69 -12q40 -6 70.5 -21.5t48 -44t17.5 -72.5v0q0 -47 -25.5 -83.5t-69 -56.5t-99.5 -20z" />
    <glyph glyph-name="t" unicode="t" horiz-adv-x="352" 
d="M247 0q-72 0 -105 43.5t-33 122.5v482h83v-482q0 -46 19.5 -68.5t54.5 -22.5h72v-75h-91zM10 442v70h328v-70h-328z" />
    <glyph glyph-name="u" unicode="u" 
d="M227 -10q-88 0 -133.5 54.5t-45.5 149.5v318h83v-310q0 -74 32 -105.5t83 -31.5q46 0 80 20.5t53 56.5t19 83v287h83v-512h-75v103h-8q-21 -49 -64 -81t-107 -32z" />
    <glyph glyph-name="v" unicode="v" horiz-adv-x="493" 
d="M197 0l-187 512h91l123 -352l18 -69h8l19 69l123 352h91l-187 -512h-99z" />
    <glyph glyph-name="w" unicode="w" horiz-adv-x="735" 
d="M155 0l-143 512h87l90 -349l14 -70h8l15 70l90 349h103l90 -349l14 -70h8l14 70l90 349h88l-144 -512h-103l-93 365l-12 61h-8l-11 -61l-94 -365h-103z" />
    <glyph glyph-name="x" unicode="x" horiz-adv-x="475" 
d="M13 0l176 269l-167 243h93l118 -179h8l119 179h93l-167 -243l176 -269h-94l-127 198h-8l-125 -198h-95z" />
    <glyph glyph-name="y" unicode="y" horiz-adv-x="523" 
d="M119 -188h-88v74h86q38 0 59 13.5t35 47.5l16 38l-216 527h93l126 -324l31 -92h8l31 92l120 324h91l-226 -583q-17 -44 -40 -69.5t-53.5 -36.5t-72.5 -11z" />
    <glyph glyph-name="z" unicode="z" horiz-adv-x="450" 
d="M25 0v70l295 368v4h-290v70h387v-70l-294 -368v-4h300v-70h-398z" />
    <glyph glyph-name="braceleft" unicode="{" horiz-adv-x="345" 
d="M227 -188q-61 0 -98 37t-37 98v240q0 23 -14 37t-37 14h-31v76h31q23 0 37 14.5t14 36.5v240q0 62 37 98.5t98 36.5h79v-76h-65q-29 0 -47.5 -18.5t-18.5 -47.5v-209q0 -55 -19.5 -81.5t-60.5 -28.5v-6q41 -1 60.5 -28t19.5 -82v-209q0 -29 18.5 -47.5t47.5 -18.5h65v-76
h-79z" />
    <glyph glyph-name="bar" unicode="|" horiz-adv-x="177" 
d="M47 -188v928h83v-928h-83z" />
    <glyph glyph-name="braceright" unicode="}" horiz-adv-x="345" 
d="M39 -188v76h65q29 0 47.5 18.5t18.5 47.5v209q0 55 19.5 82t61.5 28v6q-42 2 -61.5 28.5t-19.5 81.5v209q0 29 -18.5 47.5t-47.5 18.5h-65v76h79q62 0 98.5 -36.5t36.5 -98.5v-240q0 -22 14.5 -36.5t37.5 -14.5h30v-76h-30q-23 0 -37.5 -14t-14.5 -37v-240
q0 -61 -36.5 -98t-98.5 -37h-79z" />
    <glyph glyph-name="asciitilde" unicode="~" horiz-adv-x="450" 
d="M310 252q-28 0 -50.5 10t-42 23t-37 23t-34.5 10q-25 0 -38 -15.5t-13 -38.5h-69q0 52 29.5 86t84.5 34q28 0 51 -10t42.5 -23t37 -23t33.5 -10q26 0 39 15.5t13 38.5h68q0 -51 -29 -85.5t-85 -34.5z" />
    <glyph glyph-name="uni00A0" unicode="&#xa0;" horiz-adv-x="199" 
 />
    <glyph glyph-name="exclamdown" unicode="&#xa1;" horiz-adv-x="208" 
d="M135 299l11 -300v-187h-84v187l11 300h62zM104 518q24 0 41.5 -17.5t17.5 -42.5q0 -24 -17.5 -41.5t-41.5 -17.5t-41.5 17.5t-17.5 41.5q0 25 17.5 42.5t41.5 17.5z" />
    <glyph glyph-name="cent" unicode="&#xa2;" 
d="M281 83q-74 0 -131 34.5t-88.5 95t-31.5 137.5v0q0 78 31.5 138t88.5 94.5t131 34.5q91 0 151 -43.5t72 -119.5h-83q-13 40 -48 64t-92 24q-44 0 -82.5 -22.5t-61.5 -65.5t-23 -104v0q0 -61 23 -104t61.5 -65.5t82.5 -22.5q57 0 92 26.5t50 63.5h82q-21 -76 -79.5 -120.5
t-144.5 -44.5zM239 -20v139h77v-139h-77zM239 578v142h77v-142h-77z" />
    <glyph glyph-name="sterling" unicode="&#xa3;" horiz-adv-x="547" 
d="M47 0v80q48 35 69 66.5t21 73.5q0 33 -10.5 65t-24 64.5t-24 68t-10.5 76.5v0q0 66 28.5 114.5t78.5 75t113 26.5q76 0 123 -29t70 -76t26 -100h-83q-3 34 -18.5 62.5t-44.5 46t-73 17.5q-63 0 -98.5 -37t-35.5 -102v0q0 -38 9.5 -71t22 -64t22 -63t9.5 -68
q0 -32 -12 -58.5t-31.5 -46.5t-42.5 -33v-8h369v-80h-453zM32 287v70h382v-70h-382z" />
    <glyph glyph-name="currency" unicode="&#xa4;" horiz-adv-x="612" 
d="M306 124q-65 0 -114.5 29.5t-77.5 80.5t-28 116v0q0 66 28 117t77.5 80t114.5 29t114.5 -29t77 -80t27.5 -117v0q0 -65 -27.5 -116t-77 -80.5t-114.5 -29.5zM98 87l-55 56l96 96l55 -56zM139 461l-96 97l55 55l97 -96zM306 194q38 0 70.5 18.5t52 53.5t19.5 84v0
q0 49 -19.5 84t-52 54t-70.5 19t-70.5 -19t-52.5 -54t-20 -84v0q0 -49 20 -84t52.5 -53.5t70.5 -18.5zM513 87l-96 96l56 56l96 -96zM472 461l-55 55l96 97l56 -55z" />
    <glyph glyph-name="yen" unicode="&#xa5;" horiz-adv-x="594" 
d="M94 133v69h406v-69h-406zM94 274v70h406v-70h-406zM253 0v251l-238 449h100l153 -296l25 -59h8l25 59l152 296h101l-238 -449v-251h-88z" />
    <glyph glyph-name="brokenbar" unicode="&#xa6;" horiz-adv-x="177" 
d="M47 369v371h83v-371h-83zM47 -188v371h83v-371h-83z" />
    <glyph glyph-name="section" unicode="&#xa7;" horiz-adv-x="538" 
d="M390 68l-50 55q34 15 54 37.5t20 58.5v0q0 42 -28 66t-87 40l-83 23q-50 14 -87.5 37.5t-57.5 60.5t-20 88v0q0 55 29 94.5t78.5 60.5t111.5 21q63 0 111 -22t76.5 -61.5t32.5 -93.5h-84q-7 46 -45 73.5t-91 27.5q-58 0 -95.5 -26t-37.5 -73v0q0 -46 30.5 -72t86.5 -41
l81 -21q51 -14 88 -36.5t57 -55.5t20 -79v0q0 -64 -33 -101.5t-77 -60.5zM263 -198q-63 0 -111 22t-76.5 62t-33.5 93h85q8 -46 45.5 -73.5t90.5 -27.5q58 0 95.5 26t37.5 73v0q0 46 -30.5 72t-86.5 41l-81 22q-51 14 -88 36t-57 55.5t-20 78.5v0q0 65 33 102.5t77 59.5
l50 -54q-34 -15 -54 -38t-20 -59v0q0 -42 28 -66t87 -40l83 -22q51 -14 88 -38t57 -60.5t20 -88.5v0q0 -55 -29 -94.5t-78.5 -60.5t-111.5 -21z" />
    <glyph glyph-name="dieresis" unicode="&#xa8;" horiz-adv-x="318" 
d="M253 601q-22 0 -38 16t-16 38q0 23 16 38.5t38 15.5t38 -15.5t16 -38.5q0 -22 -16 -38t-38 -16zM66 601q-22 0 -38 16t-16 38q0 23 16 38.5t38 15.5t38 -15.5t16 -38.5q0 -22 -16 -38t-38 -16z" />
    <glyph glyph-name="copyright" unicode="&#xa9;" horiz-adv-x="750" 
d="M375 -10q-72 0 -134.5 25.5t-110 72.5t-74 113.5t-26.5 148.5v0q0 82 26.5 148.5t74 113.5t110 72.5t134.5 25.5t134.5 -25.5t110 -72.5t74 -113.5t26.5 -148.5v0q0 -82 -26.5 -148.5t-74 -113.5t-110 -72.5t-134.5 -25.5zM375 57q76 0 138 35t98.5 101t36.5 157v0
q0 92 -36.5 157.5t-98.5 101t-138 35.5t-138 -35.5t-98.5 -101t-36.5 -157.5v0q0 -91 36.5 -157t98.5 -101t138 -35zM379 137q-59 0 -103.5 26t-69 74t-24.5 113v0q0 65 24.5 113t69 74t103.5 26q76 0 123 -40t56 -111h-67q-11 41 -39 65t-75 24q-34 0 -63 -16t-46 -49.5
t-17 -85.5v0q0 -52 17 -85.5t46 -49.5t63 -16q49 0 75.5 26t39.5 65h68q-17 -71 -64 -112t-117 -41z" />
    <glyph glyph-name="ordfeminine" unicode="&#xaa;" horiz-adv-x="340" 
d="M134 363q-43 0 -72 27.5t-29 71.5v0q0 45 29.5 73t89.5 32l89 6v29q0 26 -18.5 40.5t-50.5 14.5q-30 0 -48 -14t-23 -37h-64q6 50 43.5 77t91.5 27q60 0 96 -27t36 -77v-236h-58v63h-5q-13 -31 -38 -50.5t-69 -19.5zM155 417q40 0 63 26t23 63v20l-76 -6
q-29 -1 -47.5 -12.5t-18.5 -40.5v0q0 -22 15.5 -36t40.5 -14z" />
    <glyph glyph-name="guillemotleft" unicode="&#xab;" horiz-adv-x="465" 
d="M346 143l-136 173v8l136 174h90l-137 -174v-8l137 -173h-90zM161 143l-136 173v8l136 174h90l-137 -174v-8l137 -173h-90z" />
    <glyph glyph-name="logicalnot" unicode="&#xac;" horiz-adv-x="450" 
d="M353 99v184h-327v71h398v-255h-71z" />
    <glyph glyph-name="uni00AD" unicode="&#xad;" horiz-adv-x="305" 
d="M26 284v68h253v-68h-253z" />
    <glyph glyph-name="registered" unicode="&#xae;" horiz-adv-x="344" 
d="M172 410q-39 0 -71.5 18t-52.5 52t-20 80q0 47 20 80.5t52.5 51.5t71.5 18t72 -18t52.5 -51.5t19.5 -80.5q0 -46 -19.5 -80t-52.5 -52t-72 -18zM208 484l-37 72h31l38 -72h-32zM172 442q47 0 79.5 30.5t32.5 87.5q0 58 -32.5 88.5t-79.5 30.5q-46 0 -78.5 -30.5
t-32.5 -88.5q0 -57 32.5 -87.5t78.5 -30.5zM121 484v157h58q25 0 39.5 -12t14.5 -35t-15 -35t-39 -12h-28v-63h-30zM151 573h26q28 0 28 21t-28 21h-26v-42z" />
    <glyph glyph-name="macron" unicode="&#xaf;" horiz-adv-x="333" 
d="M10 629v65h231v-65h-231z" />
    <glyph glyph-name="degree" unicode="&#xb0;" horiz-adv-x="356" 
d="M178 438q-38 0 -67.5 17.5t-46 48.5t-16.5 70v0q0 40 16.5 70.5t46 48t67.5 17.5q39 0 68.5 -17.5t46 -48t16.5 -70.5v0q0 -39 -16.5 -70t-46 -48.5t-68.5 -17.5zM178 494q29 0 51 20t22 60v0q0 41 -22 61t-51 20q-28 0 -50 -20t-22 -61v0q0 -40 22 -60t50 -20z" />
    <glyph glyph-name="plusminus" unicode="&#xb1;" horiz-adv-x="450" 
d="M26 293v71h398v-71h-398zM190 134v388h71v-388h-71zM26 0v71h398v-71h-398z" />
    <glyph glyph-name="uni00B2" unicode="&#xb2;" horiz-adv-x="310" 
d="M32 415v63l135 125q21 20 33.5 38.5t12.5 46.5q0 27 -17.5 41.5t-43.5 14.5q-25 0 -42.5 -15.5t-19.5 -43.5h-65q1 33 16 60.5t43 44t68 16.5q57 0 93 -29.5t36 -82.5q0 -40 -17 -69t-52 -61l-89 -82v-4h163v-63h-254z" />
    <glyph glyph-name="uni00B3" unicode="&#xb3;" horiz-adv-x="314" 
d="M159 410q-43 0 -74 16t-47 44.5t-17 63.5h67q2 -28 19.5 -45.5t52.5 -17.5q34 0 51.5 16.5t17.5 43.5v0q0 26 -19 41t-49 15h-34v57h34q29 0 44 14t15 38v0q0 24 -17.5 37t-43.5 13t-43.5 -13.5t-21.5 -36.5h-66q3 29 17.5 54t42 40.5t70.5 15.5q59 0 93 -28.5t34 -75.5
v0q0 -34 -17 -54t-42 -28v-4q27 -7 48.5 -28t21.5 -61v0q0 -51 -37.5 -84t-99.5 -33z" />
    <glyph glyph-name="acute" unicode="&#xb4;" horiz-adv-x="190" 
d="M10 588l70 147h100l-106 -147h-64z" />
    <glyph glyph-name="uni00B5" unicode="&#xb5;" 
d="M48 -188v700h83v-310q0 -74 32 -105.5t83 -31.5q46 0 80 20.5t53 56.5t19 83v287h83v-512h-75v103h-8q-19 -49 -61 -81t-102 -32q-35 0 -62.5 16t-41.5 46h-8l8 -55v-185h-83z" />
    <glyph glyph-name="paragraph" unicode="&#xb6;" horiz-adv-x="602" 
d="M292 -188v475h-32q-106 0 -168 52.5t-62 153.5v0q0 102 62 154.5t168 52.5h120v-888h-88zM463 -188v888h87v-888h-87z" />
    <glyph glyph-name="periodcentered" unicode="&#xb7;" horiz-adv-x="190" 
d="M95 291q-24 0 -41.5 17.5t-17.5 42.5q0 24 17.5 41.5t41.5 17.5t41.5 -17.5t17.5 -41.5q0 -25 -17.5 -42.5t-41.5 -17.5z" />
    <glyph glyph-name="cedilla" unicode="&#xb8;" horiz-adv-x="300" 
d="M86 -209q-21 0 -40 3.5t-36 10.5v58q19 -8 38 -12.5t38 -4.5q22 0 34 10.5t12 24.5q0 15 -12 25t-37 10h-52l27 94h50l-14 -48q49 0 74.5 -21.5t25.5 -59.5q0 -46 -29 -68t-79 -22z" />
    <glyph glyph-name="uni00B9" unicode="&#xb9;" horiz-adv-x="276" 
d="M103 415v296h-5q-7 -16 -22.5 -26.5t-40.5 -10.5h-17v69h21q29 0 46 17t18 40h69v-385h-69zM18 415v63h238v-63h-238z" />
    <glyph glyph-name="ordmasculine" unicode="&#xba;" horiz-adv-x="366" 
d="M184 364q-49 0 -86.5 22.5t-58 61.5t-20.5 89v0q0 76 45 124.5t120 48.5q49 0 86 -22t57.5 -61t20.5 -90v0q0 -50 -20.5 -89t-57.5 -61.5t-86 -22.5zM184 421q41 0 71 30.5t30 85.5v0q0 57 -30 87t-71 30t-71 -30t-30 -87v0q0 -56 30 -86t71 -30z" />
    <glyph glyph-name="guillemotright" unicode="&#xbb;" horiz-adv-x="465" 
d="M214 143l137 173v8l-137 174h90l136 -174v-8l-136 -173h-90zM29 143l137 173v8l-137 174h90l136 -174v-8l-136 -173h-90z" />
    <glyph glyph-name="onequarter" unicode="&#xbc;" horiz-adv-x="760" 
d="M103 315v296h-5q-7 -16 -22.5 -26.5t-40.5 -10.5h-17v69h21q29 0 46 17t18 40h69v-385h-69zM18 315v63h238v-63h-238zM166 0l418 700h81l-418 -700h-81zM631 0v86h-174v58l169 241h69v-241h52v-58h-52v-86h-64zM526 144h105v151h-4l-101 -147v-4z" />
    <glyph glyph-name="onehalf" unicode="&#xbd;" horiz-adv-x="833" 
d="M103 315v296h-5q-7 -16 -22.5 -26.5t-40.5 -10.5h-17v69h21q29 0 46 17t18 40h69v-385h-69zM18 315v63h238v-63h-238zM166 0l418 700h81l-418 -700h-81zM555 0v63l135 125q21 20 33.5 38.5t12.5 46.5q0 27 -17.5 41.5t-43.5 14.5q-25 0 -42.5 -15.5t-19.5 -43.5h-65
q1 33 16 60.5t43 44t68 16.5q57 0 93 -29.5t36 -82.5q0 -40 -17 -69t-52 -61l-89 -82v-4h163v-63h-254z" />
    <glyph glyph-name="threequarters" unicode="&#xbe;" horiz-adv-x="753" 
d="M159 310q-43 0 -74 16t-47 44.5t-17 63.5h67q2 -28 19.5 -45.5t52.5 -17.5q34 0 51.5 16.5t17.5 43.5v0q0 26 -19 41t-49 15h-34v57h34q29 0 44 14t15 38v0q0 24 -17.5 37t-43.5 13t-43.5 -13.5t-21.5 -36.5h-66q3 29 17.5 54t42 40.5t70.5 15.5q59 0 93 -28.5t34 -75.5
v0q0 -34 -17 -54t-42 -28v-4q27 -7 48.5 -28t21.5 -61v0q0 -51 -37.5 -84t-99.5 -33zM159 0l418 700h81l-418 -700h-81zM624 0v86h-174v58l169 241h69v-241h52v-58h-52v-86h-64zM519 144h105v151h-4l-101 -147v-4z" />
    <glyph glyph-name="questiondown" unicode="&#xbf;" horiz-adv-x="500" 
d="M276 306l6 -141q-64 -16 -102 -38t-55 -54t-17 -76v0q0 -54 39 -88.5t104 -34.5q54 0 91 28t45 81v0h82v0q-5 -54 -32 -94.5t-74.5 -63.5t-111.5 -23q-71 0 -122 26t-78.5 70t-27.5 99v0q0 62 25 105t67 70t93 42l3 92h65zM244 518q25 0 42 -17.5t17 -42.5
q0 -24 -17 -41.5t-42 -17.5q-24 0 -41.5 17.5t-17.5 41.5q0 25 17.5 42.5t41.5 17.5z" />
    <glyph glyph-name="Agrave" unicode="&#xc0;" horiz-adv-x="658" 
d="M8 0l267 700h108l267 -700h-94l-199 532l-24 78h-8l-24 -78l-199 -532h-94zM129 185v79h400v-79h-400zM298 776l-106 147h100l70 -147h-64z" />
    <glyph glyph-name="Aacute" unicode="&#xc1;" horiz-adv-x="658" 
d="M8 0l267 700h108l267 -700h-94l-199 532l-24 78h-8l-24 -78l-199 -532h-94zM129 185v79h400v-79h-400zM297 776l70 147h100l-106 -147h-64z" />
    <glyph glyph-name="Acircumflex" unicode="&#xc2;" horiz-adv-x="658" 
d="M8 0l267 700h108l267 -700h-94l-199 532l-24 78h-8l-24 -78l-199 -532h-94zM129 185v79h400v-79h-400zM195 776l97 147h75l97 -147h-59l-73 87h-5l-73 -87h-59z" />
    <glyph glyph-name="Atilde" unicode="&#xc3;" horiz-adv-x="658" 
d="M8 0l267 700h108l267 -700h-94l-199 532l-24 78h-8l-24 -78l-199 -532h-94zM129 185v79h400v-79h-400zM388 793q-30 0 -49 11t-33 22t-31 11q-15 0 -24 -11t-9 -27h-61q0 39 23.5 67t66.5 28q31 0 50 -11.5t33 -22.5t30 -11q15 0 24 11t9 27h61q0 -38 -23.5 -66
t-66.5 -28z" />
    <glyph glyph-name="Adieresis" unicode="&#xc4;" horiz-adv-x="658" 
d="M8 0l267 700h108l267 -700h-94l-199 532l-24 78h-8l-24 -78l-199 -532h-94zM129 185v79h400v-79h-400zM423 789q-22 0 -38 16t-16 38q0 23 16 38.5t38 15.5t38 -15.5t16 -38.5q0 -22 -16 -38t-38 -16zM236 789q-22 0 -38 16t-16 38q0 23 16 38.5t38 15.5t38 -15.5
t16 -38.5q0 -22 -16 -38t-38 -16z" />
    <glyph glyph-name="Aring" unicode="&#xc5;" horiz-adv-x="658" 
d="M8 0l267 700h108l267 -700h-94l-199 532l-24 78h-8l-24 -78l-199 -532h-94zM129 185v79h400v-79h-400zM329 767q-40 0 -68 25.5t-28 67.5t28 68t68 26t68 -26t28 -68t-28 -67.5t-68 -25.5zM329 815q20 0 32 13t12 32q0 20 -12 32.5t-32 12.5q-18 0 -31 -12.5t-13 -32.5
q0 -19 13 -32t31 -13z" />
    <glyph glyph-name="AE" unicode="&#xc6;" horiz-adv-x="918" 
d="M8 0l371 700h83v-80h-40l-30 -74l-287 -546h-97zM435 0v700h438v-80h-351v-220h295v-79h-295v-241h357v-80h-444zM174 185v79h310v-79h-310z" />
    <glyph glyph-name="Ccedilla" unicode="&#xc7;" horiz-adv-x="676" 
d="M356 -10q-67 0 -125 25t-102 72t-68.5 113.5t-24.5 149.5v0q0 83 24.5 149.5t68.5 113.5t102 72t125 25q81 0 142 -28t98.5 -77t47.5 -112v0h-85v0q-19 62 -70 99.5t-133 37.5q-65 0 -118 -33.5t-84 -96t-31 -150.5v0q0 -87 31 -149.5t84 -96t118 -33.5q55 0 94.5 17
t66.5 48t43 73v0h87v0q-16 -64 -54.5 -113.5t-98 -77.5t-138.5 -28zM360 -209q-21 0 -40 3.5t-36 10.5v58q19 -8 38 -12.5t38 -4.5q22 0 34 10.5t12 24.5q0 15 -12 25t-37 10h-52l27 94h50l-14 -48q49 0 74.5 -21.5t25.5 -59.5q0 -46 -29 -68t-79 -22z" />
    <glyph glyph-name="Egrave" unicode="&#xc8;" horiz-adv-x="535" 
d="M52 0v700h438v-80h-351v-220h294v-79h-294v-241h357v-80h-444zM240 776l-106 147h100l70 -147h-64z" />
    <glyph glyph-name="Eacute" unicode="&#xc9;" horiz-adv-x="535" 
d="M52 0v700h438v-80h-351v-220h294v-79h-294v-241h357v-80h-444zM239 776l70 147h100l-106 -147h-64z" />
    <glyph glyph-name="Ecircumflex" unicode="&#xca;" horiz-adv-x="535" 
d="M52 0v700h438v-80h-351v-220h294v-79h-294v-241h357v-80h-444zM137 776l97 147h75l97 -147h-59l-73 87h-5l-73 -87h-59z" />
    <glyph glyph-name="Edieresis" unicode="&#xcb;" horiz-adv-x="535" 
d="M52 0v700h438v-80h-351v-220h294v-79h-294v-241h357v-80h-444zM365 789q-22 0 -38 16t-16 38q0 23 16 38.5t38 15.5t38 -15.5t16 -38.5q0 -22 -16 -38t-38 -16zM178 789q-22 0 -38 16t-16 38q0 23 16 38.5t38 15.5t38 -15.5t16 -38.5q0 -22 -16 -38t-38 -16z" />
    <glyph glyph-name="Igrave" unicode="&#xcc;" horiz-adv-x="191" 
d="M52 0v700h87v-700h-87zM64 776l-106 147h100l70 -147h-64z" />
    <glyph glyph-name="Iacute" unicode="&#xcd;" horiz-adv-x="191" 
d="M52 0v700h87v-700h-87zM63 776l70 147h100l-106 -147h-64z" />
    <glyph glyph-name="Icircumflex" unicode="&#xce;" horiz-adv-x="191" 
d="M52 0v700h87v-700h-87zM-39 776l97 147h75l97 -147h-59l-73 87h-5l-73 -87h-59z" />
    <glyph glyph-name="Idieresis" unicode="&#xcf;" horiz-adv-x="191" 
d="M52 0v700h87v-700h-87zM189 789q-22 0 -38 16t-16 38q0 23 16 38.5t38 15.5t38 -15.5t16 -38.5q0 -22 -16 -38t-38 -16zM2 789q-22 0 -38 16t-16 38q0 23 16 38.5t38 15.5t38 -15.5t16 -38.5q0 -22 -16 -38t-38 -16z" />
    <glyph glyph-name="Eth" unicode="&#xd0;" horiz-adv-x="671" 
d="M10 313v75h316v-75h-316zM91 0v700h210q96 0 171.5 -41.5t119 -120t43.5 -188.5v0q0 -109 -43.5 -187.5t-118.5 -120.5t-171 -42h-211zM178 80h121q71 0 127.5 31t89 91t32.5 148v0q0 88 -33 148t-89.5 91t-127.5 31h-120v-540z" />
    <glyph glyph-name="Ntilde" unicode="&#xd1;" horiz-adv-x="657" 
d="M52 0v700h100l365 -553h8l-8 125v428h88v-700h-88l-378 573h-8l8 -125v-448h-87zM387 793q-30 0 -49 11t-33 22t-31 11q-15 0 -24 -11t-9 -27h-61q0 39 23.5 67t66.5 28q31 0 50 -11.5t33 -22.5t30 -11q15 0 24 11t9 27h61q0 -38 -23.5 -66t-66.5 -28z" />
    <glyph glyph-name="Ograve" unicode="&#xd2;" horiz-adv-x="746" 
d="M373 -10q-94 0 -170.5 44.5t-121.5 125.5t-45 190v0q0 110 45 191t121.5 125t170.5 44t170 -44t121.5 -125t45.5 -191v0q0 -82 -26 -148.5t-72.5 -113.5t-107.5 -72.5t-131 -25.5zM373 71q70 0 126.5 33.5t89.5 96t33 149.5v0q0 88 -33 150.5t-89.5 96t-126.5 33.5
t-127 -33.5t-90 -96t-33 -150.5v0q0 -87 33 -149.5t90 -96t127 -33.5zM342 776l-106 147h100l70 -147h-64z" />
    <glyph glyph-name="Oacute" unicode="&#xd3;" horiz-adv-x="746" 
d="M373 -10q-94 0 -170.5 44.5t-121.5 125.5t-45 190v0q0 110 45 191t121.5 125t170.5 44t170 -44t121.5 -125t45.5 -191v0q0 -82 -26 -148.5t-72.5 -113.5t-107.5 -72.5t-131 -25.5zM373 71q70 0 126.5 33.5t89.5 96t33 149.5v0q0 88 -33 150.5t-89.5 96t-126.5 33.5
t-127 -33.5t-90 -96t-33 -150.5v0q0 -87 33 -149.5t90 -96t127 -33.5zM341 776l70 147h100l-106 -147h-64z" />
    <glyph glyph-name="Ocircumflex" unicode="&#xd4;" horiz-adv-x="746" 
d="M373 -10q-94 0 -170.5 44.5t-121.5 125.5t-45 190v0q0 110 45 191t121.5 125t170.5 44t170 -44t121.5 -125t45.5 -191v0q0 -82 -26 -148.5t-72.5 -113.5t-107.5 -72.5t-131 -25.5zM373 71q70 0 126.5 33.5t89.5 96t33 149.5v0q0 88 -33 150.5t-89.5 96t-126.5 33.5
t-127 -33.5t-90 -96t-33 -150.5v0q0 -87 33 -149.5t90 -96t127 -33.5zM239 776l97 147h75l97 -147h-59l-73 87h-5l-73 -87h-59z" />
    <glyph glyph-name="Otilde" unicode="&#xd5;" horiz-adv-x="746" 
d="M373 -10q-94 0 -170.5 44.5t-121.5 125.5t-45 190v0q0 110 45 191t121.5 125t170.5 44t170 -44t121.5 -125t45.5 -191v0q0 -82 -26 -148.5t-72.5 -113.5t-107.5 -72.5t-131 -25.5zM373 71q70 0 126.5 33.5t89.5 96t33 149.5v0q0 88 -33 150.5t-89.5 96t-126.5 33.5
t-127 -33.5t-90 -96t-33 -150.5v0q0 -87 33 -149.5t90 -96t127 -33.5zM432 793q-30 0 -49 11t-33 22t-31 11q-15 0 -24 -11t-9 -27h-61q0 39 23.5 67t66.5 28q31 0 50 -11.5t33 -22.5t30 -11q15 0 24 11t9 27h61q0 -38 -23.5 -66t-66.5 -28z" />
    <glyph glyph-name="Odieresis" unicode="&#xd6;" horiz-adv-x="746" 
d="M373 -10q-94 0 -170.5 44.5t-121.5 125.5t-45 190v0q0 110 45 191t121.5 125t170.5 44t170 -44t121.5 -125t45.5 -191v0q0 -82 -26 -148.5t-72.5 -113.5t-107.5 -72.5t-131 -25.5zM373 71q70 0 126.5 33.5t89.5 96t33 149.5v0q0 88 -33 150.5t-89.5 96t-126.5 33.5
t-127 -33.5t-90 -96t-33 -150.5v0q0 -87 33 -149.5t90 -96t127 -33.5zM467 789q-22 0 -38 16t-16 38q0 23 16 38.5t38 15.5t38 -15.5t16 -38.5q0 -22 -16 -38t-38 -16zM280 789q-22 0 -38 16t-16 38q0 23 16 38.5t38 15.5t38 -15.5t16 -38.5q0 -22 -16 -38t-38 -16z" />
    <glyph glyph-name="multiply" unicode="&#xd7;" horiz-adv-x="450" 
d="M38 455l50 50l324 -324l-50 -50zM38 181l324 324l50 -50l-324 -324z" />
    <glyph glyph-name="Oslash" unicode="&#xd8;" horiz-adv-x="746" 
d="M157 -60l347 820h84l-346 -820h-85zM373 -10q-94 0 -170.5 44.5t-121.5 125.5t-45 190v0q0 110 45 191t121.5 125t170.5 44t170 -44t121.5 -125t45.5 -191v0q0 -82 -26 -148.5t-72.5 -113.5t-107.5 -72.5t-131 -25.5zM373 71q70 0 126.5 33.5t89.5 96t33 149.5v0
q0 88 -33 150.5t-89.5 96t-126.5 33.5t-127 -33.5t-90 -96t-33 -150.5v0q0 -87 33 -149.5t90 -96t127 -33.5z" />
    <glyph glyph-name="Ugrave" unicode="&#xd9;" horiz-adv-x="616" 
d="M308 -10q-124 0 -190 76.5t-66 207.5v426h87v-425q0 -96 43.5 -150.5t125.5 -54.5q81 0 124.5 54.5t43.5 150.5v425h88v-426q0 -87 -29.5 -151t-86.5 -98.5t-140 -34.5zM277 776l-106 147h100l70 -147h-64z" />
    <glyph glyph-name="Uacute" unicode="&#xda;" horiz-adv-x="616" 
d="M308 -10q-124 0 -190 76.5t-66 207.5v426h87v-425q0 -96 43.5 -150.5t125.5 -54.5q81 0 124.5 54.5t43.5 150.5v425h88v-426q0 -87 -29.5 -151t-86.5 -98.5t-140 -34.5zM276 776l70 147h100l-106 -147h-64z" />
    <glyph glyph-name="Ucircumflex" unicode="&#xdb;" horiz-adv-x="616" 
d="M308 -10q-124 0 -190 76.5t-66 207.5v426h87v-425q0 -96 43.5 -150.5t125.5 -54.5q81 0 124.5 54.5t43.5 150.5v425h88v-426q0 -87 -29.5 -151t-86.5 -98.5t-140 -34.5zM174 776l97 147h75l97 -147h-59l-73 87h-5l-73 -87h-59z" />
    <glyph glyph-name="Udieresis" unicode="&#xdc;" horiz-adv-x="616" 
d="M308 -10q-124 0 -190 76.5t-66 207.5v426h87v-425q0 -96 43.5 -150.5t125.5 -54.5q81 0 124.5 54.5t43.5 150.5v425h88v-426q0 -87 -29.5 -151t-86.5 -98.5t-140 -34.5zM402 789q-22 0 -38 16t-16 38q0 23 16 38.5t38 15.5t38 -15.5t16 -38.5q0 -22 -16 -38t-38 -16z
M215 789q-22 0 -38 16t-16 38q0 23 16 38.5t38 15.5t38 -15.5t16 -38.5q0 -22 -16 -38t-38 -16z" />
    <glyph glyph-name="Yacute" unicode="&#xdd;" horiz-adv-x="594" 
d="M253 0v251l-238 449h100l153 -296l25 -59h8l25 59l152 296h101l-238 -449v-251h-88zM265 776l70 147h100l-106 -147h-64z" />
    <glyph glyph-name="Thorn" unicode="&#xde;" horiz-adv-x="560" 
d="M52 0v700h87v-143h155q106 0 168 -52.5t62 -154.5v0q0 -101 -62 -154t-168 -53h-155v-143h-87zM139 223h160q65 0 101.5 33t36.5 94v0q0 61 -36.5 94t-101.5 33h-160v-254z" />
    <glyph glyph-name="germandbls" unicode="&#xdf;" horiz-adv-x="509" 
d="M48 0v524q0 54 22.5 96t66 66t106.5 24q92 0 143.5 -45.5t51.5 -120.5v0q0 -40 -14 -69.5t-37 -49t-51 -30.5v-8q41 -9 73 -33t51 -60.5t19 -84.5v0q0 -103 -61 -156t-166 -53h-59v73h46q77 0 117 37t40 101v0q0 65 -43 102t-114 37h-47v71h46q50 0 84.5 30.5t34.5 85.5
v0q0 48 -32 74.5t-82 26.5t-81 -31t-31 -80v-527h-83z" />
    <glyph glyph-name="agrave" unicode="&#xe0;" horiz-adv-x="502" 
d="M189 -10q-43 0 -78.5 19t-56.5 53t-21 80v0q0 46 19.5 80t60 54t103.5 24l158 10v50q0 44 -32 67.5t-89 23.5q-49 0 -79 -23t-38 -62v0h-84v0q9 74 64 115t137 41q92 0 148 -39.5t56 -117.5v-365h-75v98h-8q-13 -32 -37 -56.5t-60 -38t-88 -13.5zM214 62q50 0 86 19.5
t55 53.5t19 76v36l-135 -9q-64 -4 -91.5 -26t-27.5 -66v0q0 -37 26 -60.5t68 -23.5zM211 588l-106 147h100l70 -147h-64z" />
    <glyph glyph-name="aacute" unicode="&#xe1;" horiz-adv-x="502" 
d="M189 -10q-43 0 -78.5 19t-56.5 53t-21 80v0q0 46 19.5 80t60 54t103.5 24l158 10v50q0 44 -32 67.5t-89 23.5q-49 0 -79 -23t-38 -62v0h-84v0q9 74 64 115t137 41q92 0 148 -39.5t56 -117.5v-365h-75v98h-8q-13 -32 -37 -56.5t-60 -38t-88 -13.5zM214 62q50 0 86 19.5
t55 53.5t19 76v36l-135 -9q-64 -4 -91.5 -26t-27.5 -66v0q0 -37 26 -60.5t68 -23.5zM210 588l70 147h100l-106 -147h-64z" />
    <glyph glyph-name="acircumflex" unicode="&#xe2;" horiz-adv-x="502" 
d="M189 -10q-43 0 -78.5 19t-56.5 53t-21 80v0q0 46 19.5 80t60 54t103.5 24l158 10v50q0 44 -32 67.5t-89 23.5q-49 0 -79 -23t-38 -62v0h-84v0q9 74 64 115t137 41q92 0 148 -39.5t56 -117.5v-365h-75v98h-8q-13 -32 -37 -56.5t-60 -38t-88 -13.5zM214 62q50 0 86 19.5
t55 53.5t19 76v36l-135 -9q-64 -4 -91.5 -26t-27.5 -66v0q0 -37 26 -60.5t68 -23.5zM108 588l97 147h75l97 -147h-59l-73 87h-5l-73 -87h-59z" />
    <glyph glyph-name="atilde" unicode="&#xe3;" horiz-adv-x="502" 
d="M189 -10q-43 0 -78.5 19t-56.5 53t-21 80v0q0 46 19.5 80t60 54t103.5 24l158 10v50q0 44 -32 67.5t-89 23.5q-49 0 -79 -23t-38 -62v0h-84v0q9 74 64 115t137 41q92 0 148 -39.5t56 -117.5v-365h-75v98h-8q-13 -32 -37 -56.5t-60 -38t-88 -13.5zM214 62q50 0 86 19.5
t55 53.5t19 76v36l-135 -9q-64 -4 -91.5 -26t-27.5 -66v0q0 -37 26 -60.5t68 -23.5zM301 605q-30 0 -49 11t-33 22t-31 11q-15 0 -24 -11t-9 -27h-61q0 39 23.5 67t66.5 28q31 0 50 -11.5t33 -22.5t30 -11q15 0 24 11t9 27h61q0 -38 -23.5 -66t-66.5 -28z" />
    <glyph glyph-name="adieresis" unicode="&#xe4;" horiz-adv-x="502" 
d="M189 -10q-43 0 -78.5 19t-56.5 53t-21 80v0q0 46 19.5 80t60 54t103.5 24l158 10v50q0 44 -32 67.5t-89 23.5q-49 0 -79 -23t-38 -62v0h-84v0q9 74 64 115t137 41q92 0 148 -39.5t56 -117.5v-365h-75v98h-8q-13 -32 -37 -56.5t-60 -38t-88 -13.5zM214 62q50 0 86 19.5
t55 53.5t19 76v36l-135 -9q-64 -4 -91.5 -26t-27.5 -66v0q0 -37 26 -60.5t68 -23.5zM336 601q-22 0 -38 16t-16 38q0 23 16 38.5t38 15.5t38 -15.5t16 -38.5q0 -22 -16 -38t-38 -16zM149 601q-22 0 -38 16t-16 38q0 23 16 38.5t38 15.5t38 -15.5t16 -38.5q0 -22 -16 -38
t-38 -16z" />
    <glyph glyph-name="aring" unicode="&#xe5;" horiz-adv-x="502" 
d="M189 -10q-43 0 -78.5 19t-56.5 53t-21 80v0q0 46 19.5 80t60 54t103.5 24l158 10v50q0 44 -32 67.5t-89 23.5q-49 0 -79 -23t-38 -62v0h-84v0q9 74 64 115t137 41q92 0 148 -39.5t56 -117.5v-365h-75v98h-8q-13 -32 -37 -56.5t-60 -38t-88 -13.5zM214 62q50 0 86 19.5
t55 53.5t19 76v36l-135 -9q-64 -4 -91.5 -26t-27.5 -66v0q0 -37 26 -60.5t68 -23.5zM242 579q-40 0 -68 25.5t-28 67.5t28 68t68 26t68 -26t28 -68t-28 -67.5t-68 -25.5zM242 627q20 0 32 13t12 32q0 20 -12 32.5t-32 12.5q-18 0 -31 -12.5t-13 -32.5q0 -19 13 -32t31 -13z
" />
    <glyph glyph-name="ae" unicode="&#xe6;" horiz-adv-x="892" 
d="M192 -10q-43 0 -79 18t-58 51.5t-22 79.5v0q0 68 45.5 109.5t137.5 45.5l155 6v60q0 44 -30.5 67t-85.5 23q-49 0 -80 -22.5t-40 -61.5v0h-84v0q7 50 35 84.5t72 53t97 18.5q65 0 113 -24t68 -74q29 47 78.5 72.5t108.5 25.5q72 0 126 -30.5t84 -82t30 -115.5
q0 -16 -1 -29.5t-4 -26.5h-404v-1q4 -55 28 -94t61 -59t80 -20q50 0 86.5 21.5t55.5 57.5v0h85v0q-18 -48 -50.5 -82t-77 -52.5t-100.5 -18.5q-71 0 -124.5 37.5t-82.5 98.5h-8q-15 -40 -43 -71t-70 -48t-102 -17zM214 62q48 0 83.5 19.5t54.5 53.5t19 76v25l-138 -6
q-55 -2 -84 -22t-29 -65v0q0 -37 26 -59t68 -22zM459 305h322v0q0 46 -22 79t-57.5 51t-78.5 18q-60 0 -106.5 -38.5t-57.5 -109.5v0z" />
    <glyph glyph-name="ccedilla" unicode="&#xe7;" 
d="M281 -11q-75 0 -131.5 34.5t-88 95t-31.5 137.5v0q0 78 31.5 138t88 94t131.5 34q91 0 151 -43.5t72 -119.5v0h-83v0q-14 41 -48.5 64.5t-91.5 23.5q-44 0 -82.5 -22.5t-61.5 -65t-23 -103.5v0q0 -61 23 -104t61.5 -65.5t82.5 -22.5q56 0 91 26.5t50 63.5v0h83v0
q-21 -76 -80 -120.5t-144 -44.5zM285 -209q-21 0 -40 3.5t-36 10.5v58q19 -8 38 -12.5t38 -4.5q22 0 34 10.5t12 24.5q0 15 -12 25t-37 10h-52l27 94h50l-14 -48q49 0 74.5 -21.5t25.5 -59.5q0 -46 -29 -68t-79 -22z" />
    <glyph glyph-name="egrave" unicode="&#xe8;" horiz-adv-x="551" 
d="M281 -10q-74 0 -130.5 34.5t-88.5 95t-32 136.5v0q0 77 32.5 137t89.5 94.5t130 34.5q72 0 126 -30.5t84 -82t30 -115.5q0 -16 -1.5 -29t-3.5 -26h-446v65h369v0q-1 46 -22.5 79.5t-57 51.5t-78.5 18q-45 0 -83.5 -22t-62 -64.5t-23.5 -102.5l-1 -10q0 -61 23.5 -103.5
t62.5 -65t83 -22.5q52 0 88 21.5t55 57.5v0h84v0q-17 -48 -49.5 -82t-77.5 -52t-100 -18zM249 588l-106 147h100l70 -147h-64z" />
    <glyph glyph-name="eacute" unicode="&#xe9;" horiz-adv-x="551" 
d="M281 -10q-74 0 -130.5 34.5t-88.5 95t-32 136.5v0q0 77 32.5 137t89.5 94.5t130 34.5q72 0 126 -30.5t84 -82t30 -115.5q0 -16 -1.5 -29t-3.5 -26h-446v65h369v0q-1 46 -22.5 79.5t-57 51.5t-78.5 18q-45 0 -83.5 -22t-62 -64.5t-23.5 -102.5l-1 -10q0 -61 23.5 -103.5
t62.5 -65t83 -22.5q52 0 88 21.5t55 57.5v0h84v0q-17 -48 -49.5 -82t-77.5 -52t-100 -18zM248 588l70 147h100l-106 -147h-64z" />
    <glyph glyph-name="ecircumflex" unicode="&#xea;" horiz-adv-x="551" 
d="M281 -10q-74 0 -130.5 34.5t-88.5 95t-32 136.5v0q0 77 32.5 137t89.5 94.5t130 34.5q72 0 126 -30.5t84 -82t30 -115.5q0 -16 -1.5 -29t-3.5 -26h-446v65h369v0q-1 46 -22.5 79.5t-57 51.5t-78.5 18q-45 0 -83.5 -22t-62 -64.5t-23.5 -102.5l-1 -10q0 -61 23.5 -103.5
t62.5 -65t83 -22.5q52 0 88 21.5t55 57.5v0h84v0q-17 -48 -49.5 -82t-77.5 -52t-100 -18zM146 588l97 147h75l97 -147h-59l-73 87h-5l-73 -87h-59z" />
    <glyph glyph-name="edieresis" unicode="&#xeb;" horiz-adv-x="551" 
d="M281 -10q-74 0 -130.5 34.5t-88.5 95t-32 136.5v0q0 77 32.5 137t89.5 94.5t130 34.5q72 0 126 -30.5t84 -82t30 -115.5q0 -16 -1.5 -29t-3.5 -26h-446v65h369v0q-1 46 -22.5 79.5t-57 51.5t-78.5 18q-45 0 -83.5 -22t-62 -64.5t-23.5 -102.5l-1 -10q0 -61 23.5 -103.5
t62.5 -65t83 -22.5q52 0 88 21.5t55 57.5v0h84v0q-17 -48 -49.5 -82t-77.5 -52t-100 -18zM374 601q-22 0 -38 16t-16 38q0 23 16 38.5t38 15.5t38 -15.5t16 -38.5q0 -22 -16 -38t-38 -16zM187 601q-22 0 -38 16t-16 38q0 23 16 38.5t38 15.5t38 -15.5t16 -38.5
q0 -22 -16 -38t-38 -16z" />
    <glyph glyph-name="igrave" unicode="&#xec;" horiz-adv-x="178" 
d="M48 0v512h83v-512h-83zM58 588l-106 147h100l70 -147h-64z" />
    <glyph glyph-name="iacute" unicode="&#xed;" horiz-adv-x="178" 
d="M48 0v512h83v-512h-83zM57 588l70 147h100l-106 -147h-64z" />
    <glyph glyph-name="icircumflex" unicode="&#xee;" horiz-adv-x="178" 
d="M48 0v512h83v-512h-83zM-45 588l97 147h75l97 -147h-59l-73 87h-5l-73 -87h-59z" />
    <glyph glyph-name="idieresis" unicode="&#xef;" horiz-adv-x="178" 
d="M48 0v512h83v-512h-83zM183 601q-22 0 -38 16t-16 38q0 23 16 38.5t38 15.5t38 -15.5t16 -38.5q0 -22 -16 -38t-38 -16zM-4 601q-22 0 -38 16t-16 38q0 23 16 38.5t38 15.5t38 -15.5t16 -38.5q0 -22 -16 -38t-38 -16z" />
    <glyph glyph-name="eth" unicode="&#xf0;" horiz-adv-x="536" 
d="M264 -10q-64 0 -117.5 32t-85 88.5t-31.5 131.5v0q0 80 30.5 136.5t81 86.5t110.5 30q68 0 110 -35t57 -83h8v0v0q-4 50 -24 95t-54 83t-78.5 68.5t-97.5 50.5l58 50q65 -28 116 -66t86.5 -88.5t54 -117t18.5 -151.5v0q0 -100 -31.5 -169.5t-86.5 -105.5t-124 -36z
M264 66q44 0 78.5 22t54 61.5t19.5 92.5v0q0 54 -19.5 94t-54 62t-78.5 22q-43 0 -77.5 -22t-54 -62t-19.5 -94v0q0 -53 19.5 -92.5t54 -61.5t77.5 -22zM193 523l-21 53l292 120l21 -53z" />
    <glyph glyph-name="ntilde" unicode="&#xf1;" 
d="M48 0v512h75v-103h8q21 50 64 81.5t107 31.5q88 0 133.5 -54.5t45.5 -149.5v-318h-83v310q0 75 -32.5 106t-83.5 31q-45 0 -79 -20.5t-53 -56.5t-19 -83v-287h-83zM323 605q-30 0 -49 11t-33 22t-31 11q-15 0 -24 -11t-9 -27h-61q0 39 23.5 67t66.5 28q31 0 50 -11.5
t33 -22.5t30 -11q15 0 24 11t9 27h61q0 -38 -23.5 -66t-66.5 -28z" />
    <glyph glyph-name="ograve" unicode="&#xf2;" horiz-adv-x="562" 
d="M281 -10q-75 0 -131.5 34.5t-88 94.5t-31.5 137v0q0 77 31.5 137t88 94.5t131.5 34.5t131.5 -34.5t88 -94.5t31.5 -137v0q0 -77 -31.5 -137t-88 -94.5t-131.5 -34.5zM281 65q45 0 83 22t61 65t23 104v0q0 62 -23 104.5t-61 64.5t-83 22t-83 -22t-61 -64.5t-23 -104.5v0
q0 -61 23 -104t61 -65t83 -22zM250 588l-106 147h100l70 -147h-64z" />
    <glyph glyph-name="oacute" unicode="&#xf3;" horiz-adv-x="562" 
d="M281 -10q-75 0 -131.5 34.5t-88 94.5t-31.5 137v0q0 77 31.5 137t88 94.5t131.5 34.5t131.5 -34.5t88 -94.5t31.5 -137v0q0 -77 -31.5 -137t-88 -94.5t-131.5 -34.5zM281 65q45 0 83 22t61 65t23 104v0q0 62 -23 104.5t-61 64.5t-83 22t-83 -22t-61 -64.5t-23 -104.5v0
q0 -61 23 -104t61 -65t83 -22zM249 588l70 147h100l-106 -147h-64z" />
    <glyph glyph-name="ocircumflex" unicode="&#xf4;" horiz-adv-x="562" 
d="M281 -10q-75 0 -131.5 34.5t-88 94.5t-31.5 137v0q0 77 31.5 137t88 94.5t131.5 34.5t131.5 -34.5t88 -94.5t31.5 -137v0q0 -77 -31.5 -137t-88 -94.5t-131.5 -34.5zM281 65q45 0 83 22t61 65t23 104v0q0 62 -23 104.5t-61 64.5t-83 22t-83 -22t-61 -64.5t-23 -104.5v0
q0 -61 23 -104t61 -65t83 -22zM147 588l97 147h75l97 -147h-59l-73 87h-5l-73 -87h-59z" />
    <glyph glyph-name="otilde" unicode="&#xf5;" horiz-adv-x="562" 
d="M281 -10q-75 0 -131.5 34.5t-88 94.5t-31.5 137v0q0 77 31.5 137t88 94.5t131.5 34.5t131.5 -34.5t88 -94.5t31.5 -137v0q0 -77 -31.5 -137t-88 -94.5t-131.5 -34.5zM281 65q45 0 83 22t61 65t23 104v0q0 62 -23 104.5t-61 64.5t-83 22t-83 -22t-61 -64.5t-23 -104.5v0
q0 -61 23 -104t61 -65t83 -22zM340 605q-30 0 -49 11t-33 22t-31 11q-15 0 -24 -11t-9 -27h-61q0 39 23.5 67t66.5 28q31 0 50 -11.5t33 -22.5t30 -11q15 0 24 11t9 27h61q0 -38 -23.5 -66t-66.5 -28z" />
    <glyph glyph-name="odieresis" unicode="&#xf6;" horiz-adv-x="562" 
d="M281 -10q-75 0 -131.5 34.5t-88 94.5t-31.5 137v0q0 77 31.5 137t88 94.5t131.5 34.5t131.5 -34.5t88 -94.5t31.5 -137v0q0 -77 -31.5 -137t-88 -94.5t-131.5 -34.5zM281 65q45 0 83 22t61 65t23 104v0q0 62 -23 104.5t-61 64.5t-83 22t-83 -22t-61 -64.5t-23 -104.5v0
q0 -61 23 -104t61 -65t83 -22zM375 601q-22 0 -38 16t-16 38q0 23 16 38.5t38 15.5t38 -15.5t16 -38.5q0 -22 -16 -38t-38 -16zM188 601q-22 0 -38 16t-16 38q0 23 16 38.5t38 15.5t38 -15.5t16 -38.5q0 -22 -16 -38t-38 -16z" />
    <glyph glyph-name="divide" unicode="&#xf7;" horiz-adv-x="450" 
d="M26 283v71h398v-71h-398zM225 64q-24 0 -41.5 17.5t-17.5 42.5q0 24 17.5 41.5t41.5 17.5t41.5 -17.5t17.5 -41.5q0 -25 -17.5 -42.5t-41.5 -17.5zM225 454q-24 0 -41.5 17.5t-17.5 42.5q0 24 17.5 41.5t41.5 17.5t41.5 -17.5t17.5 -41.5q0 -25 -17.5 -42.5t-41.5 -17.5z
" />
    <glyph glyph-name="oslash" unicode="&#xf8;" horiz-adv-x="562" 
d="M116 -99l253 710h76l-252 -710h-77zM281 -10q-75 0 -131.5 34.5t-88 94.5t-31.5 137v0q0 77 31.5 137t88 94.5t131.5 34.5t131.5 -34.5t88 -94.5t31.5 -137v0q0 -77 -31.5 -137t-88 -94.5t-131.5 -34.5zM281 63q46 0 84 22.5t61 65.5t23 105v0q0 63 -23 106t-61 65
t-84 22q-45 0 -83.5 -22t-62 -65t-23.5 -106v0q0 -62 23.5 -105t62 -65.5t83.5 -22.5z" />
    <glyph glyph-name="ugrave" unicode="&#xf9;" 
d="M227 -10q-88 0 -133.5 54.5t-45.5 149.5v318h83v-310q0 -74 32 -105.5t83 -31.5q46 0 80 20.5t53 56.5t19 83v287h83v-512h-75v103h-8q-21 -49 -64 -81t-107 -32zM233 588l-106 147h100l70 -147h-64z" />
    <glyph glyph-name="uacute" unicode="&#xfa;" 
d="M227 -10q-88 0 -133.5 54.5t-45.5 149.5v318h83v-310q0 -74 32 -105.5t83 -31.5q46 0 80 20.5t53 56.5t19 83v287h83v-512h-75v103h-8q-21 -49 -64 -81t-107 -32zM232 588l70 147h100l-106 -147h-64z" />
    <glyph glyph-name="ucircumflex" unicode="&#xfb;" 
d="M227 -10q-88 0 -133.5 54.5t-45.5 149.5v318h83v-310q0 -74 32 -105.5t83 -31.5q46 0 80 20.5t53 56.5t19 83v287h83v-512h-75v103h-8q-21 -49 -64 -81t-107 -32zM130 588l97 147h75l97 -147h-59l-73 87h-5l-73 -87h-59z" />
    <glyph glyph-name="udieresis" unicode="&#xfc;" 
d="M227 -10q-88 0 -133.5 54.5t-45.5 149.5v318h83v-310q0 -74 32 -105.5t83 -31.5q46 0 80 20.5t53 56.5t19 83v287h83v-512h-75v103h-8q-21 -49 -64 -81t-107 -32zM358 601q-22 0 -38 16t-16 38q0 23 16 38.5t38 15.5t38 -15.5t16 -38.5q0 -22 -16 -38t-38 -16zM171 601
q-22 0 -38 16t-16 38q0 23 16 38.5t38 15.5t38 -15.5t16 -38.5q0 -22 -16 -38t-38 -16z" />
    <glyph glyph-name="yacute" unicode="&#xfd;" horiz-adv-x="523" 
d="M119 -188h-88v74h86q38 0 59 13.5t35 47.5l16 38l-216 527h93l126 -324l31 -92h8l31 92l120 324h91l-226 -583q-17 -44 -40 -69.5t-53.5 -36.5t-72.5 -11zM230 588l70 147h100l-106 -147h-64z" />
    <glyph glyph-name="thorn" unicode="&#xfe;" horiz-adv-x="572" 
d="M48 -188v898h83v-198l-8 -94h8q26 49 72.5 76.5t107.5 27.5q67 0 119 -33t82 -93t30 -140v0q0 -80 -30.5 -140t-82.5 -93t-119 -33q-62 0 -109 28t-70 76h-8l8 -94v-188h-83zM292 65q45 0 82.5 22.5t60.5 65t23 103.5v0q0 61 -23 103.5t-60.5 65t-82.5 22.5
q-44 0 -81.5 -22.5t-60.5 -65t-23 -103.5v0q0 -61 23 -103.5t60.5 -65t81.5 -22.5z" />
    <glyph glyph-name="ydieresis" unicode="&#xff;" horiz-adv-x="523" 
d="M119 -188h-88v74h86q38 0 59 13.5t35 47.5l16 38l-216 527h93l126 -324l31 -92h8l31 92l120 324h91l-226 -583q-17 -44 -40 -69.5t-53.5 -36.5t-72.5 -11zM356 601q-22 0 -38 16t-16 38q0 23 16 38.5t38 15.5t38 -15.5t16 -38.5q0 -22 -16 -38t-38 -16zM169 601
q-22 0 -38 16t-16 38q0 23 16 38.5t38 15.5t38 -15.5t16 -38.5q0 -22 -16 -38t-38 -16z" />
    <glyph glyph-name="Amacron" unicode="&#x100;" horiz-adv-x="658" 
d="M8 0l267 700h108l267 -700h-94l-199 532l-24 78h-8l-24 -78l-199 -532h-94zM129 185v79h400v-79h-400zM213 817v65h231v-65h-231z" />
    <glyph glyph-name="amacron" unicode="&#x101;" horiz-adv-x="502" 
d="M189 -10q-43 0 -78.5 19t-56.5 53t-21 80v0q0 46 19.5 80t60 54t103.5 24l158 10v50q0 44 -32 67.5t-89 23.5q-49 0 -79 -23t-38 -62v0h-84v0q9 74 64 115t137 41q92 0 148 -39.5t56 -117.5v-365h-75v98h-8q-13 -32 -37 -56.5t-60 -38t-88 -13.5zM214 62q50 0 86 19.5
t55 53.5t19 76v36l-135 -9q-64 -4 -91.5 -26t-27.5 -66v0q0 -37 26 -60.5t68 -23.5zM126 629v65h231v-65h-231z" />
    <glyph glyph-name="Abreve" unicode="&#x102;" horiz-adv-x="658" 
d="M8 0l267 700h108l267 -700h-94l-199 532l-24 78h-8l-24 -78l-199 -532h-94zM129 185v79h400v-79h-400zM329 778q-58 0 -90 36t-32 94h65q0 -30 14 -49.5t43 -19.5t43 19.5t14 49.5h64q0 -58 -32 -94t-89 -36z" />
    <glyph glyph-name="abreve" unicode="&#x103;" horiz-adv-x="502" 
d="M189 -10q-43 0 -78.5 19t-56.5 53t-21 80v0q0 46 19.5 80t60 54t103.5 24l158 10v50q0 44 -32 67.5t-89 23.5q-49 0 -79 -23t-38 -62v0h-84v0q9 74 64 115t137 41q92 0 148 -39.5t56 -117.5v-365h-75v98h-8q-13 -32 -37 -56.5t-60 -38t-88 -13.5zM214 62q50 0 86 19.5
t55 53.5t19 76v36l-135 -9q-64 -4 -91.5 -26t-27.5 -66v0q0 -37 26 -60.5t68 -23.5zM242 590q-58 0 -90 36t-32 94h65q0 -30 14 -49.5t43 -19.5t43 19.5t14 49.5h64q0 -58 -32 -94t-89 -36z" />
    <glyph glyph-name="Aogonek" unicode="&#x104;" horiz-adv-x="658" 
d="M8 0l267 700h108l267 -700h-94l-199 532l-24 78h-8l-24 -78l-199 -532h-94zM129 185v79h400v-79h-400zM615 -191q-42 0 -67.5 25t-25.5 65q0 37 20 64.5t44 42.5l64 -6q-26 -18 -45 -39.5t-19 -50.5q0 -17 10 -28t29 -11q10 0 17.5 2.5t13.5 6.5v-62q-15 -9 -41 -9z" />
    <glyph glyph-name="aogonek" unicode="&#x105;" horiz-adv-x="502" 
d="M189 -10q-43 0 -78.5 19t-56.5 53t-21 80v0q0 46 19.5 80t60 54t103.5 24l158 10v50q0 44 -32 67.5t-89 23.5q-49 0 -79 -23t-38 -62v0h-84v0q9 74 64 115t137 41q92 0 148 -39.5t56 -117.5v-365h-75v98h-8q-13 -32 -37 -56.5t-60 -38t-88 -13.5zM214 62q50 0 86 19.5
t55 53.5t19 76v36l-135 -9q-64 -4 -91.5 -26t-27.5 -66v0q0 -37 26 -60.5t68 -23.5zM422 -191q-42 0 -67.5 25t-25.5 65q0 37 20 64.5t44 42.5l64 -6q-26 -18 -45 -39.5t-19 -50.5q0 -17 10 -28t29 -11q10 0 17.5 2.5t13.5 6.5v-62q-15 -9 -41 -9z" />
    <glyph glyph-name="Cacute" unicode="&#x106;" horiz-adv-x="676" 
d="M356 -10q-67 0 -125 25t-102 72t-68.5 113.5t-24.5 149.5v0q0 83 24.5 149.5t68.5 113.5t102 72t125 25q81 0 142 -28t98.5 -77t47.5 -112v0h-85v0q-19 62 -70 99.5t-133 37.5q-65 0 -118 -33.5t-84 -96t-31 -150.5v0q0 -87 31 -149.5t84 -96t118 -33.5q55 0 94.5 17
t66.5 48t43 73v0h87v0q-16 -64 -54.5 -113.5t-98 -77.5t-138.5 -28zM324 776l70 147h100l-106 -147h-64z" />
    <glyph glyph-name="cacute" unicode="&#x107;" 
d="M281 -11q-75 0 -131.5 34.5t-88 95t-31.5 137.5v0q0 78 31.5 138t88 94t131.5 34q91 0 151 -43.5t72 -119.5v0h-83v0q-14 41 -48.5 64.5t-91.5 23.5q-44 0 -82.5 -22.5t-61.5 -65t-23 -103.5v0q0 -61 23 -104t61.5 -65.5t82.5 -22.5q56 0 91 26.5t50 63.5v0h83v0
q-21 -76 -80 -120.5t-144 -44.5zM249 588l70 147h100l-106 -147h-64z" />
    <glyph glyph-name="Ccircumflex" unicode="&#x108;" horiz-adv-x="676" 
d="M356 -10q-67 0 -125 25t-102 72t-68.5 113.5t-24.5 149.5v0q0 83 24.5 149.5t68.5 113.5t102 72t125 25q81 0 142 -28t98.5 -77t47.5 -112v0h-85v0q-19 62 -70 99.5t-133 37.5q-65 0 -118 -33.5t-84 -96t-31 -150.5v0q0 -87 31 -149.5t84 -96t118 -33.5q55 0 94.5 17
t66.5 48t43 73v0h87v0q-16 -64 -54.5 -113.5t-98 -77.5t-138.5 -28zM222 776l97 147h75l97 -147h-59l-73 87h-5l-73 -87h-59z" />
    <glyph glyph-name="ccircumflex" unicode="&#x109;" 
d="M281 -11q-75 0 -131.5 34.5t-88 95t-31.5 137.5v0q0 78 31.5 138t88 94t131.5 34q91 0 151 -43.5t72 -119.5v0h-83v0q-14 41 -48.5 64.5t-91.5 23.5q-44 0 -82.5 -22.5t-61.5 -65t-23 -103.5v0q0 -61 23 -104t61.5 -65.5t82.5 -22.5q56 0 91 26.5t50 63.5v0h83v0
q-21 -76 -80 -120.5t-144 -44.5zM147 588l97 147h75l97 -147h-59l-73 87h-5l-73 -87h-59z" />
    <glyph glyph-name="Cdotaccent" unicode="&#x10a;" horiz-adv-x="676" 
d="M356 -10q-67 0 -125 25t-102 72t-68.5 113.5t-24.5 149.5v0q0 83 24.5 149.5t68.5 113.5t102 72t125 25q81 0 142 -28t98.5 -77t47.5 -112v0h-85v0q-19 62 -70 99.5t-133 37.5q-65 0 -118 -33.5t-84 -96t-31 -150.5v0q0 -87 31 -149.5t84 -96t118 -33.5q55 0 94.5 17
t66.5 48t43 73v0h87v0q-16 -64 -54.5 -113.5t-98 -77.5t-138.5 -28zM356 789q-22 0 -38.5 16.5t-16.5 38.5q0 23 16.5 39t38.5 16q23 0 39 -16t16 -39q0 -22 -16 -38.5t-39 -16.5z" />
    <glyph glyph-name="cdotaccent" unicode="&#x10b;" 
d="M281 -11q-75 0 -131.5 34.5t-88 95t-31.5 137.5v0q0 78 31.5 138t88 94t131.5 34q91 0 151 -43.5t72 -119.5v0h-83v0q-14 41 -48.5 64.5t-91.5 23.5q-44 0 -82.5 -22.5t-61.5 -65t-23 -103.5v0q0 -61 23 -104t61.5 -65.5t82.5 -22.5q56 0 91 26.5t50 63.5v0h83v0
q-21 -76 -80 -120.5t-144 -44.5zM281 601q-22 0 -38.5 16.5t-16.5 38.5q0 23 16.5 39t38.5 16q23 0 39 -16t16 -39q0 -22 -16 -38.5t-39 -16.5z" />
    <glyph glyph-name="Ccaron" unicode="&#x10c;" horiz-adv-x="676" 
d="M356 -10q-67 0 -125 25t-102 72t-68.5 113.5t-24.5 149.5v0q0 83 24.5 149.5t68.5 113.5t102 72t125 25q81 0 142 -28t98.5 -77t47.5 -112v0h-85v0q-19 62 -70 99.5t-133 37.5q-65 0 -118 -33.5t-84 -96t-31 -150.5v0q0 -87 31 -149.5t84 -96t118 -33.5q55 0 94.5 17
t66.5 48t43 73v0h87v0q-16 -64 -54.5 -113.5t-98 -77.5t-138.5 -28zM319 776l-97 147h59l73 -88h5l73 88h59l-97 -147h-75z" />
    <glyph glyph-name="ccaron" unicode="&#x10d;" 
d="M281 -11q-75 0 -131.5 34.5t-88 95t-31.5 137.5v0q0 78 31.5 138t88 94t131.5 34q91 0 151 -43.5t72 -119.5v0h-83v0q-14 41 -48.5 64.5t-91.5 23.5q-44 0 -82.5 -22.5t-61.5 -65t-23 -103.5v0q0 -61 23 -104t61.5 -65.5t82.5 -22.5q56 0 91 26.5t50 63.5v0h83v0
q-21 -76 -80 -120.5t-144 -44.5zM244 588l-97 147h59l73 -88h5l73 88h59l-97 -147h-75z" />
    <glyph glyph-name="Dcaron" unicode="&#x10e;" horiz-adv-x="632" 
d="M52 0v700h210q96 0 171.5 -41.5t119 -120t43.5 -188.5v0q0 -109 -43.5 -187.5t-118.5 -120.5t-171 -42h-211zM139 80h121q71 0 127.5 31t89 91t32.5 148v0q0 88 -33 148t-89.5 91t-127.5 31h-120v-540zM223 776l-97 147h59l73 -88h5l73 88h59l-97 -147h-75z" />
    <glyph glyph-name="dcaron" unicode="&#x10f;" horiz-adv-x="572" 
d="M263 -10q-66 0 -119 33t-83.5 93t-30.5 140v0q0 80 30.5 140t83 93t118.5 33q61 0 107.5 -26t71.5 -73h8l-8 79v208h83v-710h-75v94h-8q-28 -48 -72 -76t-106 -28zM279 65q45 0 82.5 22.5t60.5 65t23 103.5v0q0 61 -23 103.5t-60.5 65t-82.5 22.5q-44 0 -81.5 -22.5
t-60.5 -65t-23 -103.5v0q0 -61 23 -103.5t60.5 -65t81.5 -22.5zM578 517l43 214h94l-77 -214h-60z" />
    <glyph glyph-name="Dcroat" unicode="&#x110;" horiz-adv-x="671" 
d="M10 313v75h316v-75h-316zM91 0v700h210q96 0 171.5 -41.5t119 -120t43.5 -188.5v0q0 -109 -43.5 -187.5t-118.5 -120.5t-171 -42h-211zM178 80h121q71 0 127.5 31t89 91t32.5 148v0q0 88 -33 148t-89.5 91t-127.5 31h-120v-540z" />
    <glyph glyph-name="dcroat" unicode="&#x111;" horiz-adv-x="601" 
d="M244 580v66h346v-66h-346zM263 -10q-66 0 -119 33t-83.5 93t-30.5 140v0q0 80 30.5 140t83 93t118.5 33q61 0 107.5 -26t71.5 -73h8l-8 79v208h83v-710h-75v94h-8q-28 -48 -72 -76t-106 -28zM279 65q45 0 82.5 22.5t60.5 65t23 103.5v0q0 61 -23 103.5t-60.5 65
t-82.5 22.5q-44 0 -81.5 -22.5t-60.5 -65t-23 -103.5v0q0 -61 23 -103.5t60.5 -65t81.5 -22.5z" />
    <glyph glyph-name="Emacron" unicode="&#x112;" horiz-adv-x="535" 
d="M52 0v700h438v-80h-351v-220h294v-79h-294v-241h357v-80h-444zM155 817v65h231v-65h-231z" />
    <glyph glyph-name="emacron" unicode="&#x113;" horiz-adv-x="551" 
d="M281 -10q-74 0 -130.5 34.5t-88.5 95t-32 136.5v0q0 77 32.5 137t89.5 94.5t130 34.5q72 0 126 -30.5t84 -82t30 -115.5q0 -16 -1.5 -29t-3.5 -26h-446v65h369v0q-1 46 -22.5 79.5t-57 51.5t-78.5 18q-45 0 -83.5 -22t-62 -64.5t-23.5 -102.5l-1 -10q0 -61 23.5 -103.5
t62.5 -65t83 -22.5q52 0 88 21.5t55 57.5v0h84v0q-17 -48 -49.5 -82t-77.5 -52t-100 -18zM164 629v65h231v-65h-231z" />
    <glyph glyph-name="Ebreve" unicode="&#x114;" horiz-adv-x="535" 
d="M52 0v700h438v-80h-351v-220h294v-79h-294v-241h357v-80h-444zM271 778q-58 0 -90 36t-32 94h65q0 -30 14 -49.5t43 -19.5t43 19.5t14 49.5h64q0 -58 -32 -94t-89 -36z" />
    <glyph glyph-name="ebreve" unicode="&#x115;" horiz-adv-x="551" 
d="M281 -10q-74 0 -130.5 34.5t-88.5 95t-32 136.5v0q0 77 32.5 137t89.5 94.5t130 34.5q72 0 126 -30.5t84 -82t30 -115.5q0 -16 -1.5 -29t-3.5 -26h-446v65h369v0q-1 46 -22.5 79.5t-57 51.5t-78.5 18q-45 0 -83.5 -22t-62 -64.5t-23.5 -102.5l-1 -10q0 -61 23.5 -103.5
t62.5 -65t83 -22.5q52 0 88 21.5t55 57.5v0h84v0q-17 -48 -49.5 -82t-77.5 -52t-100 -18zM280 590q-58 0 -90 36t-32 94h65q0 -30 14 -49.5t43 -19.5t43 19.5t14 49.5h64q0 -58 -32 -94t-89 -36z" />
    <glyph glyph-name="Edotaccent" unicode="&#x116;" horiz-adv-x="535" 
d="M52 0v700h438v-80h-351v-220h294v-79h-294v-241h357v-80h-444zM271 789q-22 0 -38.5 16.5t-16.5 38.5q0 23 16.5 39t38.5 16q23 0 39 -16t16 -39q0 -22 -16 -38.5t-39 -16.5z" />
    <glyph glyph-name="edotaccent" unicode="&#x117;" horiz-adv-x="551" 
d="M281 -10q-74 0 -130.5 34.5t-88.5 95t-32 136.5v0q0 77 32.5 137t89.5 94.5t130 34.5q72 0 126 -30.5t84 -82t30 -115.5q0 -16 -1.5 -29t-3.5 -26h-446v65h369v0q-1 46 -22.5 79.5t-57 51.5t-78.5 18q-45 0 -83.5 -22t-62 -64.5t-23.5 -102.5l-1 -10q0 -61 23.5 -103.5
t62.5 -65t83 -22.5q52 0 88 21.5t55 57.5v0h84v0q-17 -48 -49.5 -82t-77.5 -52t-100 -18zM280 601q-22 0 -38.5 16.5t-16.5 38.5q0 23 16.5 39t38.5 16q23 0 39 -16t16 -39q0 -22 -16 -38.5t-39 -16.5z" />
    <glyph glyph-name="Eogonek" unicode="&#x118;" horiz-adv-x="535" 
d="M52 0v700h438v-80h-351v-220h294v-79h-294v-241h357v-80h-444zM461 -191q-42 0 -67.5 25t-25.5 65q0 37 20 64.5t44 42.5l64 -6q-26 -18 -45 -39.5t-19 -50.5q0 -17 10 -28t29 -11q10 0 17.5 2.5t13.5 6.5v-62q-15 -9 -41 -9z" />
    <glyph glyph-name="eogonek" unicode="&#x119;" horiz-adv-x="551" 
d="M281 -10q-74 0 -130.5 34.5t-88.5 95t-32 136.5v0q0 77 32.5 137t89.5 94.5t130 34.5q72 0 126 -30.5t84 -82t30 -115.5q0 -16 -1.5 -29t-3.5 -26h-446v65h369v0q-1 46 -22.5 79.5t-57 51.5t-78.5 18q-45 0 -83.5 -22t-62 -64.5t-23.5 -102.5l-1 -10q0 -61 23.5 -103.5
t62.5 -65t83 -22.5q52 0 88 21.5t55 57.5v0h84v0q-17 -48 -49.5 -82t-77.5 -52t-100 -18zM322 -191q-42 0 -67.5 25t-25.5 65q0 37 20 64.5t44 42.5l64 -6q-26 -18 -45 -39.5t-19 -50.5q0 -17 10 -28t29 -11q10 0 17.5 2.5t13.5 6.5v-62q-15 -9 -41 -9z" />
    <glyph glyph-name="Ecaron" unicode="&#x11a;" horiz-adv-x="535" 
d="M52 0v700h438v-80h-351v-220h294v-79h-294v-241h357v-80h-444zM234 776l-97 147h59l73 -88h5l73 88h59l-97 -147h-75z" />
    <glyph glyph-name="ecaron" unicode="&#x11b;" horiz-adv-x="551" 
d="M281 -10q-74 0 -130.5 34.5t-88.5 95t-32 136.5v0q0 77 32.5 137t89.5 94.5t130 34.5q72 0 126 -30.5t84 -82t30 -115.5q0 -16 -1.5 -29t-3.5 -26h-446v65h369v0q-1 46 -22.5 79.5t-57 51.5t-78.5 18q-45 0 -83.5 -22t-62 -64.5t-23.5 -102.5l-1 -10q0 -61 23.5 -103.5
t62.5 -65t83 -22.5q52 0 88 21.5t55 57.5v0h84v0q-17 -48 -49.5 -82t-77.5 -52t-100 -18zM243 588l-97 147h59l73 -88h5l73 88h59l-97 -147h-75z" />
    <glyph glyph-name="Gcircumflex" unicode="&#x11c;" horiz-adv-x="694" 
d="M350 -10q-87 0 -158.5 44t-113.5 124.5t-42 191.5v0q0 83 25 149.5t69.5 113.5t103 72t125.5 25q80 0 139.5 -25t97 -70.5t49.5 -105.5v0h-90v0q-16 52 -67 86.5t-129 34.5q-65 0 -118.5 -33.5t-85.5 -96t-32 -150.5v0q0 -87 31.5 -149.5t85 -96t118.5 -33.5
q64 0 108 29.5t68.5 76t26.5 98.5v0h-205v75h293v-350h-80v118h-8q-16 -32 -43.5 -61.5t-69 -48t-98.5 -18.5zM224 776l97 147h75l97 -147h-59l-73 87h-5l-73 -87h-59z" />
    <glyph glyph-name="gcircumflex" unicode="&#x11d;" horiz-adv-x="564" 
d="M280 -198q-102 0 -161.5 43.5t-76.5 111.5h91q11 -35 47.5 -59.5t99.5 -24.5q73 0 113 44.5t40 117.5v0l2 64h-8q-19 -41 -62.5 -68.5t-106.5 -27.5t-114.5 31.5t-82.5 89.5t-31 138v0q0 80 31 138.5t82.5 90t114.5 31.5q60 0 105 -25.5t70 -73.5h8v89h75v-471
q0 -75 -29 -128.5t-82 -82t-125 -28.5zM275 78q44 0 81 21t59 62t22 101v0q0 61 -22 102t-59 62t-81 21q-43 0 -80 -21t-59 -62t-22 -102v0q0 -60 22 -101t59 -62t80 -21zM153 588l97 147h75l97 -147h-59l-73 87h-5l-73 -87h-59z" />
    <glyph glyph-name="Gbreve" unicode="&#x11e;" horiz-adv-x="694" 
d="M350 -10q-87 0 -158.5 44t-113.5 124.5t-42 191.5v0q0 83 25 149.5t69.5 113.5t103 72t125.5 25q80 0 139.5 -25t97 -70.5t49.5 -105.5v0h-90v0q-16 52 -67 86.5t-129 34.5q-65 0 -118.5 -33.5t-85.5 -96t-32 -150.5v0q0 -87 31.5 -149.5t85 -96t118.5 -33.5
q64 0 108 29.5t68.5 76t26.5 98.5v0h-205v75h293v-350h-80v118h-8q-16 -32 -43.5 -61.5t-69 -48t-98.5 -18.5zM358 778q-58 0 -90 36t-32 94h65q0 -30 14 -49.5t43 -19.5t43 19.5t14 49.5h64q0 -58 -32 -94t-89 -36z" />
    <glyph glyph-name="gbreve" unicode="&#x11f;" horiz-adv-x="564" 
d="M280 -198q-102 0 -161.5 43.5t-76.5 111.5h91q11 -35 47.5 -59.5t99.5 -24.5q73 0 113 44.5t40 117.5v0l2 64h-8q-19 -41 -62.5 -68.5t-106.5 -27.5t-114.5 31.5t-82.5 89.5t-31 138v0q0 80 31 138.5t82.5 90t114.5 31.5q60 0 105 -25.5t70 -73.5h8v89h75v-471
q0 -75 -29 -128.5t-82 -82t-125 -28.5zM275 78q44 0 81 21t59 62t22 101v0q0 61 -22 102t-59 62t-81 21q-43 0 -80 -21t-59 -62t-22 -102v0q0 -60 22 -101t59 -62t80 -21zM287 590q-58 0 -90 36t-32 94h65q0 -30 14 -49.5t43 -19.5t43 19.5t14 49.5h64q0 -58 -32 -94
t-89 -36z" />
    <glyph glyph-name="Gdotaccent" unicode="&#x120;" horiz-adv-x="694" 
d="M350 -10q-87 0 -158.5 44t-113.5 124.5t-42 191.5v0q0 83 25 149.5t69.5 113.5t103 72t125.5 25q80 0 139.5 -25t97 -70.5t49.5 -105.5v0h-90v0q-16 52 -67 86.5t-129 34.5q-65 0 -118.5 -33.5t-85.5 -96t-32 -150.5v0q0 -87 31.5 -149.5t85 -96t118.5 -33.5
q64 0 108 29.5t68.5 76t26.5 98.5v0h-205v75h293v-350h-80v118h-8q-16 -32 -43.5 -61.5t-69 -48t-98.5 -18.5zM358 789q-22 0 -38.5 16.5t-16.5 38.5q0 23 16.5 39t38.5 16q23 0 39 -16t16 -39q0 -22 -16 -38.5t-39 -16.5z" />
    <glyph glyph-name="gdotaccent" unicode="&#x121;" horiz-adv-x="564" 
d="M280 -198q-102 0 -161.5 43.5t-76.5 111.5h91q11 -35 47.5 -59.5t99.5 -24.5q73 0 113 44.5t40 117.5v0l2 64h-8q-19 -41 -62.5 -68.5t-106.5 -27.5t-114.5 31.5t-82.5 89.5t-31 138v0q0 80 31 138.5t82.5 90t114.5 31.5q60 0 105 -25.5t70 -73.5h8v89h75v-471
q0 -75 -29 -128.5t-82 -82t-125 -28.5zM275 78q44 0 81 21t59 62t22 101v0q0 61 -22 102t-59 62t-81 21q-43 0 -80 -21t-59 -62t-22 -102v0q0 -60 22 -101t59 -62t80 -21zM287 601q-22 0 -38.5 16.5t-16.5 38.5q0 23 16.5 39t38.5 16q23 0 39 -16t16 -39q0 -22 -16 -38.5
t-39 -16.5z" />
    <glyph glyph-name="uni0122" unicode="&#x122;" horiz-adv-x="694" 
d="M350 -10q-87 0 -158.5 44t-113.5 124.5t-42 191.5v0q0 83 25 149.5t69.5 113.5t103 72t125.5 25q80 0 139.5 -25t97 -70.5t49.5 -105.5v0h-90v0q-16 52 -67 86.5t-129 34.5q-65 0 -118.5 -33.5t-85.5 -96t-32 -150.5v0q0 -87 31.5 -149.5t85 -96t118.5 -33.5
q64 0 108 29.5t68.5 76t26.5 98.5v0h-205v75h293v-350h-80v118h-8q-16 -32 -43.5 -61.5t-69 -48t-98.5 -18.5zM285 -212l36 145h84l-70 -145h-50z" />
    <glyph glyph-name="uni0123" unicode="&#x123;" horiz-adv-x="564" 
d="M280 -198q-102 0 -161.5 43.5t-76.5 111.5h91q11 -35 47.5 -59.5t99.5 -24.5q73 0 113 44.5t40 117.5v0l2 64h-8q-19 -41 -62.5 -68.5t-106.5 -27.5t-114.5 31.5t-82.5 89.5t-31 138v0q0 80 31 138.5t82.5 90t114.5 31.5q60 0 105 -25.5t70 -73.5h8v89h75v-471
q0 -75 -29 -128.5t-82 -82t-125 -28.5zM275 78q44 0 81 21t59 62t22 101v0q0 61 -22 102t-59 62t-81 21q-43 0 -80 -21t-59 -62t-22 -102v0q0 -60 22 -101t59 -62t80 -21zM346 733l-36 -145h-84l70 145h50z" />
    <glyph glyph-name="Hcircumflex" unicode="&#x124;" horiz-adv-x="628" 
d="M488 0v700h88v-700h-88zM52 0v700h87v-700h-87zM94 332v80h439v-80h-439zM180 776l97 147h75l97 -147h-59l-73 87h-5l-73 -87h-59z" />
    <glyph glyph-name="hcircumflex" unicode="&#x125;" horiz-adv-x="537" 
d="M48 0v710h83v-198l-8 -102h8q19 52 66.5 82t113.5 30q86 0 132 -53.5t46 -151.5v-317h-83v309q0 74 -33 106t-87 32q-46 0 -81 -22t-54.5 -60t-19.5 -85v-280h-83zM-45 786l97 147h75l97 -147h-59l-73 87h-5l-73 -87h-59z" />
    <glyph glyph-name="Hbar" unicode="&#x126;" horiz-adv-x="628" 
d="M-8 518v70h643v-70h-643zM488 0v700h88v-700h-88zM52 0v700h87v-700h-87zM94 332v80h439v-80h-439z" />
    <glyph glyph-name="hbar" unicode="&#x127;" horiz-adv-x="537" 
d="M-18 580v66h345v-66h-345zM48 0v710h83v-198l-8 -102h8q19 52 66.5 82t113.5 30q86 0 132 -53.5t46 -151.5v-317h-83v309q0 74 -33 106t-87 32q-46 0 -81 -22t-54.5 -60t-19.5 -85v-280h-83z" />
    <glyph glyph-name="Itilde" unicode="&#x128;" horiz-adv-x="191" 
d="M52 0v700h87v-700h-87zM154 793q-30 0 -49 11t-33 22t-31 11q-15 0 -24 -11t-9 -27h-61q0 39 23.5 67t66.5 28q31 0 50 -11.5t33 -22.5t30 -11q15 0 24 11t9 27h61q0 -38 -23.5 -66t-66.5 -28z" />
    <glyph glyph-name="itilde" unicode="&#x129;" horiz-adv-x="178" 
d="M48 0v512h83v-512h-83zM148 605q-30 0 -49 11t-33 22t-31 11q-15 0 -24 -11t-9 -27h-61q0 39 23.5 67t66.5 28q31 0 50 -11.5t33 -22.5t30 -11q15 0 24 11t9 27h61q0 -38 -23.5 -66t-66.5 -28z" />
    <glyph glyph-name="Imacron" unicode="&#x12a;" horiz-adv-x="191" 
d="M52 0v700h87v-700h-87zM-21 817v65h231v-65h-231z" />
    <glyph glyph-name="imacron" unicode="&#x12b;" horiz-adv-x="178" 
d="M48 0v512h83v-512h-83zM-27 629v65h231v-65h-231z" />
    <glyph glyph-name="Ibreve" unicode="&#x12c;" horiz-adv-x="191" 
d="M52 0v700h87v-700h-87zM95 778q-58 0 -90 36t-32 94h65q0 -30 14 -49.5t43 -19.5t43 19.5t14 49.5h64q0 -58 -32 -94t-89 -36z" />
    <glyph glyph-name="ibreve" unicode="&#x12d;" horiz-adv-x="178" 
d="M48 0v512h83v-512h-83zM89 590q-58 0 -90 36t-32 94h65q0 -30 14 -49.5t43 -19.5t43 19.5t14 49.5h64q0 -58 -32 -94t-89 -36z" />
    <glyph glyph-name="Iogonek" unicode="&#x12e;" horiz-adv-x="191" 
d="M52 0v700h87v-700h-87zM104 -191q-42 0 -67.5 25t-25.5 65q0 37 20 64.5t44 42.5l64 -6q-26 -18 -45 -39.5t-19 -50.5q0 -17 10 -28t29 -11q10 0 17.5 2.5t13.5 6.5v-62q-15 -9 -41 -9z" />
    <glyph glyph-name="iogonek" unicode="&#x12f;" horiz-adv-x="178" 
d="M48 0v512h83v-512h-83zM89 601q-22 0 -38.5 16.5t-16.5 38.5q0 23 16.5 39t38.5 16q23 0 39 -16t16 -39q0 -22 -16 -38.5t-39 -16.5zM96 -191q-42 0 -67.5 25t-25.5 65q0 37 20 64.5t44 42.5l64 -6q-26 -18 -45 -39.5t-19 -50.5q0 -17 10 -28t29 -11q10 0 17.5 2.5
t13.5 6.5v-62q-15 -9 -41 -9z" />
    <glyph glyph-name="Idotaccent" unicode="&#x130;" horiz-adv-x="191" 
d="M52 0v700h87v-700h-87zM95 789q-22 0 -38.5 16.5t-16.5 38.5q0 23 16.5 39t38.5 16q23 0 39 -16t16 -39q0 -22 -16 -38.5t-39 -16.5z" />
    <glyph glyph-name="dotlessi" unicode="&#x131;" horiz-adv-x="178" 
d="M48 0v512h83v-512h-83z" />
    <glyph glyph-name="IJ" unicode="&#x132;" horiz-adv-x="720" 
d="M52 0v700h87v-700h-87zM451 -10q-97 0 -155.5 59.5t-63.5 165.5h87q7 -69 41.5 -107t90.5 -38t92.5 38.5t36.5 117.5v474h88v-470q0 -118 -59.5 -179t-157.5 -61z" />
    <glyph glyph-name="ij" unicode="&#x133;" horiz-adv-x="356" 
d="M48 0v512h83v-512h-83zM89 601q-22 0 -38.5 16.5t-16.5 38.5q0 23 16.5 39t38.5 16q23 0 39 -16t16 -39q0 -22 -16 -38.5t-39 -16.5zM120 -188v75h64q21 0 31.5 14t10.5 39v572h83v-578q0 -59 -29 -90.5t-82 -31.5h-78zM267 601q-22 0 -38.5 16.5t-16.5 38.5
q0 23 16.5 39t38.5 16q23 0 39 -16t16 -39q0 -22 -16 -38.5t-39 -16.5z" />
    <glyph glyph-name="Jcircumflex" unicode="&#x134;" 
d="M260 -10q-97 0 -155.5 59.5t-63.5 165.5h87q7 -69 41.5 -107t90.5 -38t92.5 38.5t36.5 117.5v474h88v-470q0 -118 -59.5 -179t-157.5 -61zM299 776l97 147h75l97 -147h-59l-73 87h-5l-73 -87h-59z" />
    <glyph glyph-name="jcircumflex" unicode="&#x135;" horiz-adv-x="178" 
d="M-58 -188v75h64q21 0 31.5 14t10.5 39v572h83v-578q0 -59 -29 -90.5t-82 -31.5h-78zM-45 588l97 147h75l97 -147h-59l-73 87h-5l-73 -87h-59z" />
    <glyph glyph-name="uni0136" unicode="&#x136;" horiz-adv-x="541" 
d="M425 0l-295 350l295 350h105l-296 -349l296 -351h-105zM52 0v700h87v-700h-87zM124 332v36h28v-36h-28zM200 -212l36 145h84l-70 -145h-50z" />
    <glyph glyph-name="uni0137" unicode="&#x137;" horiz-adv-x="453" 
d="M339 0l-217 265l210 247h98l-210 -246l218 -266h-99zM122 247v36h28v-36h-28zM48 0v710h83v-710h-83zM154 -212l36 145h84l-70 -145h-50z" />
    <glyph glyph-name="kgreenlandic" unicode="&#x138;" horiz-adv-x="453" 
d="M339 0l-217 265l210 247h98l-210 -246l218 -266h-99zM122 247v36h28v-36h-28zM48 0v512h83v-512h-83z" />
    <glyph glyph-name="Lacute" unicode="&#x139;" horiz-adv-x="523" 
d="M52 0v700h87v-620h356v-80h-443zM69 776l70 147h100l-106 -147h-64z" />
    <glyph glyph-name="lacute" unicode="&#x13a;" horiz-adv-x="179" 
d="M48 0v710h83v-710h-83zM57 786l70 147h100l-106 -147h-64z" />
    <glyph glyph-name="uni013B" unicode="&#x13b;" horiz-adv-x="523" 
d="M52 0v700h87v-620h356v-80h-443zM200 -212l36 145h84l-70 -145h-50z" />
    <glyph glyph-name="uni013C" unicode="&#x13c;" horiz-adv-x="179" 
d="M48 0v710h83v-710h-83zM16 -212l36 145h84l-70 -145h-50z" />
    <glyph glyph-name="Lcaron" unicode="&#x13d;" horiz-adv-x="523" 
d="M52 0v700h87v-620h356v-80h-443zM387 517l43 214h94l-77 -214h-60z" />
    <glyph glyph-name="lcaron" unicode="&#x13e;" horiz-adv-x="179" 
d="M48 0v710h83v-710h-83zM185 517l43 214h94l-77 -214h-60z" />
    <glyph glyph-name="Ldot" unicode="&#x13f;" horiz-adv-x="523" 
d="M52 0v700h87v-620h356v-80h-443zM428 291q-24 0 -41.5 17.5t-17.5 42.5q0 24 17.5 41.5t41.5 17.5t41.5 -17.5t17.5 -41.5q0 -25 -17.5 -42.5t-41.5 -17.5z" />
    <glyph glyph-name="ldot" unicode="&#x140;" horiz-adv-x="275" 
d="M48 0v710h83v-710h-83zM227 291q-24 0 -41.5 17.5t-17.5 42.5q0 24 17.5 41.5t41.5 17.5t41.5 -17.5t17.5 -41.5q0 -25 -17.5 -42.5t-41.5 -17.5z" />
    <glyph glyph-name="Lslash" unicode="&#x141;" horiz-adv-x="561" 
d="M10 129v89l352 268v-89zM90 0v700h87v-620h356v-80h-443z" />
    <glyph glyph-name="lslash" unicode="&#x142;" horiz-adv-x="258" 
d="M13 186v84l232 183v-84zM88 0v710h83v-710h-83z" />
    <glyph glyph-name="Nacute" unicode="&#x143;" horiz-adv-x="657" 
d="M52 0v700h100l365 -553h8l-8 125v428h88v-700h-88l-378 573h-8l8 -125v-448h-87zM296 776l70 147h100l-106 -147h-64z" />
    <glyph glyph-name="nacute" unicode="&#x144;" 
d="M48 0v512h75v-103h8q21 50 64 81.5t107 31.5q88 0 133.5 -54.5t45.5 -149.5v-318h-83v310q0 75 -32.5 106t-83.5 31q-45 0 -79 -20.5t-53 -56.5t-19 -83v-287h-83zM232 588l70 147h100l-106 -147h-64z" />
    <glyph glyph-name="uni0145" unicode="&#x145;" horiz-adv-x="657" 
d="M52 0v700h100l365 -553h8l-8 125v428h88v-700h-88l-378 573h-8l8 -125v-448h-87zM255 -212l36 145h84l-70 -145h-50z" />
    <glyph glyph-name="uni0146" unicode="&#x146;" 
d="M48 0v512h75v-103h8q21 50 64 81.5t107 31.5q88 0 133.5 -54.5t45.5 -149.5v-318h-83v310q0 75 -32.5 106t-83.5 31q-45 0 -79 -20.5t-53 -56.5t-19 -83v-287h-83zM191 -212l36 145h84l-70 -145h-50z" />
    <glyph glyph-name="Ncaron" unicode="&#x147;" horiz-adv-x="657" 
d="M52 0v700h100l365 -553h8l-8 125v428h88v-700h-88l-378 573h-8l8 -125v-448h-87zM291 776l-97 147h59l73 -88h5l73 88h59l-97 -147h-75z" />
    <glyph glyph-name="ncaron" unicode="&#x148;" 
d="M48 0v512h75v-103h8q21 50 64 81.5t107 31.5q88 0 133.5 -54.5t45.5 -149.5v-318h-83v310q0 75 -32.5 106t-83.5 31q-45 0 -79 -20.5t-53 -56.5t-19 -83v-287h-83zM227 588l-97 147h59l73 -88h5l73 88h59l-97 -147h-75z" />
    <glyph glyph-name="Eng" unicode="&#x14a;" horiz-adv-x="657" 
d="M302 -188v80h126q38 0 63.5 25.5t25.5 77.5v5l-378 573h-8l8 -125v-448h-87v700h100l365 -553h8l-8 125v428h88v-700q0 -94 -48 -141t-125 -47h-130z" />
    <glyph glyph-name="eng" unicode="&#x14b;" 
d="M292 -188v75h64q21 0 31.5 14t10.5 39v370q0 75 -32.5 106t-83.5 31q-45 0 -79 -20.5t-53 -56.5t-19 -83v-287h-83v512h75v-103h8q21 50 64 81.5t107 31.5q88 0 133.5 -54.5t45.5 -149.5v-384q0 -59 -28.5 -90.5t-82.5 -31.5h-78z" />
    <glyph glyph-name="Omacron" unicode="&#x14c;" horiz-adv-x="746" 
d="M373 -10q-94 0 -170.5 44.5t-121.5 125.5t-45 190v0q0 110 45 191t121.5 125t170.5 44t170 -44t121.5 -125t45.5 -191v0q0 -82 -26 -148.5t-72.5 -113.5t-107.5 -72.5t-131 -25.5zM373 71q70 0 126.5 33.5t89.5 96t33 149.5v0q0 88 -33 150.5t-89.5 96t-126.5 33.5
t-127 -33.5t-90 -96t-33 -150.5v0q0 -87 33 -149.5t90 -96t127 -33.5zM257 817v65h231v-65h-231z" />
    <glyph glyph-name="omacron" unicode="&#x14d;" horiz-adv-x="562" 
d="M281 -10q-75 0 -131.5 34.5t-88 94.5t-31.5 137v0q0 77 31.5 137t88 94.5t131.5 34.5t131.5 -34.5t88 -94.5t31.5 -137v0q0 -77 -31.5 -137t-88 -94.5t-131.5 -34.5zM281 65q45 0 83 22t61 65t23 104v0q0 62 -23 104.5t-61 64.5t-83 22t-83 -22t-61 -64.5t-23 -104.5v0
q0 -61 23 -104t61 -65t83 -22zM165 629v65h231v-65h-231z" />
    <glyph glyph-name="Obreve" unicode="&#x14e;" horiz-adv-x="746" 
d="M373 -10q-94 0 -170.5 44.5t-121.5 125.5t-45 190v0q0 110 45 191t121.5 125t170.5 44t170 -44t121.5 -125t45.5 -191v0q0 -82 -26 -148.5t-72.5 -113.5t-107.5 -72.5t-131 -25.5zM373 71q70 0 126.5 33.5t89.5 96t33 149.5v0q0 88 -33 150.5t-89.5 96t-126.5 33.5
t-127 -33.5t-90 -96t-33 -150.5v0q0 -87 33 -149.5t90 -96t127 -33.5zM373 778q-58 0 -90 36t-32 94h65q0 -30 14 -49.5t43 -19.5t43 19.5t14 49.5h64q0 -58 -32 -94t-89 -36z" />
    <glyph glyph-name="obreve" unicode="&#x14f;" horiz-adv-x="562" 
d="M281 -10q-75 0 -131.5 34.5t-88 94.5t-31.5 137v0q0 77 31.5 137t88 94.5t131.5 34.5t131.5 -34.5t88 -94.5t31.5 -137v0q0 -77 -31.5 -137t-88 -94.5t-131.5 -34.5zM281 65q45 0 83 22t61 65t23 104v0q0 62 -23 104.5t-61 64.5t-83 22t-83 -22t-61 -64.5t-23 -104.5v0
q0 -61 23 -104t61 -65t83 -22zM281 590q-58 0 -90 36t-32 94h65q0 -30 14 -49.5t43 -19.5t43 19.5t14 49.5h64q0 -58 -32 -94t-89 -36z" />
    <glyph glyph-name="Ohungarumlaut" unicode="&#x150;" horiz-adv-x="746" 
d="M373 -10q-94 0 -170.5 44.5t-121.5 125.5t-45 190v0q0 110 45 191t121.5 125t170.5 44t170 -44t121.5 -125t45.5 -191v0q0 -82 -26 -148.5t-72.5 -113.5t-107.5 -72.5t-131 -25.5zM373 71q70 0 126.5 33.5t89.5 96t33 149.5v0q0 88 -33 150.5t-89.5 96t-126.5 33.5
t-127 -33.5t-90 -96t-33 -150.5v0q0 -87 33 -149.5t90 -96t127 -33.5zM419 776l47 147h88l-78 -147h-57zM270 776l47 147h88l-78 -147h-57z" />
    <glyph glyph-name="ohungarumlaut" unicode="&#x151;" horiz-adv-x="562" 
d="M281 -10q-75 0 -131.5 34.5t-88 94.5t-31.5 137v0q0 77 31.5 137t88 94.5t131.5 34.5t131.5 -34.5t88 -94.5t31.5 -137v0q0 -77 -31.5 -137t-88 -94.5t-131.5 -34.5zM281 65q45 0 83 22t61 65t23 104v0q0 62 -23 104.5t-61 64.5t-83 22t-83 -22t-61 -64.5t-23 -104.5v0
q0 -61 23 -104t61 -65t83 -22zM327 588l47 147h88l-78 -147h-57zM178 588l47 147h88l-78 -147h-57z" />
    <glyph glyph-name="OE" unicode="&#x152;" horiz-adv-x="1101" 
d="M367 -10q-92 0 -167.5 44.5t-119.5 125.5t-44 190v0q0 110 44 191t119.5 125t167.5 44q89 0 151.5 -39t95.5 -109h8l-4 85v53h438v-80h-350v-220h294v-79h-294v-241h356v-80h-444v53l4 85h-8q-33 -69 -95.5 -108.5t-151.5 -39.5zM373 71q70 0 126.5 33.5t89.5 96
t33 149.5v0q0 88 -33 150.5t-89.5 96t-126.5 33.5t-127 -33.5t-90 -96t-33 -150.5v0q0 -87 33 -149.5t90 -96t127 -33.5z" />
    <glyph glyph-name="oe" unicode="&#x153;" horiz-adv-x="969" 
d="M281 -10q-75 0 -131.5 34.5t-88 94.5t-31.5 137v0q0 77 31.5 137t88 94.5t131.5 34.5q74 0 130 -34.5t87 -94.5t31 -137v0q0 -77 -31 -137t-87 -94.5t-130 -34.5zM281 65q45 0 83 22t61 65t23 104v0q0 62 -23 104.5t-61 64.5t-83 22t-83 -22t-61 -64.5t-23 -104.5v0
q0 -61 23 -104t61 -65t83 -22zM699 -10q-73 0 -130 34.5t-89 95t-32 136.5v0q0 77 32.5 137t89.5 94.5t130 34.5q72 0 126 -30.5t84 -82t30 -115.5q0 -16 -1.5 -29.5t-3.5 -26.5h-446v67h369v0q-1 46 -22.5 79t-57 51t-78.5 18q-45 0 -83.5 -22t-62 -64.5t-23.5 -102.5
l-1 -10q0 -61 23.5 -103.5t62.5 -64.5t83 -22q51 0 87.5 21.5t55.5 57.5h84q-17 -48 -49.5 -82t-77.5 -52.5t-100 -18.5z" />
    <glyph glyph-name="Racute" unicode="&#x154;" horiz-adv-x="567" 
d="M52 0v700h242q104 0 167 -52t63 -149v0q0 -97 -63 -149t-167 -52h-155v-298h-87zM441 0l-196 323h99l196 -323h-99zM139 378h161q65 0 101 32t36 89v0q0 57 -36 89t-101 32h-161v-242zM249 776l70 147h100l-106 -147h-64z" />
    <glyph glyph-name="racute" unicode="&#x155;" horiz-adv-x="348" 
d="M48 0v512h75v-96h8q12 48 50.5 72t94.5 24h50v-75h-61q-38 0 -68.5 -19t-48 -54t-17.5 -84v-280h-83zM157 588l70 147h100l-106 -147h-64z" />
    <glyph glyph-name="uni0156" unicode="&#x156;" horiz-adv-x="567" 
d="M52 0v700h242q104 0 167 -52t63 -149v0q0 -97 -63 -149t-167 -52h-155v-298h-87zM441 0l-196 323h99l196 -323h-99zM139 378h161q65 0 101 32t36 89v0q0 57 -36 89t-101 32h-161v-242zM208 -212l36 145h84l-70 -145h-50z" />
    <glyph glyph-name="uni0157" unicode="&#x157;" horiz-adv-x="348" 
d="M48 0v512h75v-96h8q12 48 50.5 72t94.5 24h50v-75h-61q-38 0 -68.5 -19t-48 -54t-17.5 -84v-280h-83zM16 -212l36 145h84l-70 -145h-50z" />
    <glyph glyph-name="Rcaron" unicode="&#x158;" horiz-adv-x="567" 
d="M52 0v700h242q104 0 167 -52t63 -149v0q0 -97 -63 -149t-167 -52h-155v-298h-87zM441 0l-196 323h99l196 -323h-99zM139 378h161q65 0 101 32t36 89v0q0 57 -36 89t-101 32h-161v-242zM244 776l-97 147h59l73 -88h5l73 88h59l-97 -147h-75z" />
    <glyph glyph-name="rcaron" unicode="&#x159;" horiz-adv-x="348" 
d="M48 0v512h75v-96h8q12 48 50.5 72t94.5 24h50v-75h-61q-38 0 -68.5 -19t-48 -54t-17.5 -84v-280h-83zM152 588l-97 147h59l73 -88h5l73 88h59l-97 -147h-75z" />
    <glyph glyph-name="Sacute" unicode="&#x15a;" horiz-adv-x="560" 
d="M286 -10q-77 0 -131.5 27t-85 76.5t-36.5 116.5v0h90v0q5 -61 45.5 -101t117.5 -40q71 0 110.5 34t39.5 90v0q0 49 -29 77t-85 41l-99 22q-50 11 -89 36t-61 63t-22 88v0q0 58 30.5 100.5t82.5 66t115 23.5q64 0 113.5 -22t79.5 -61.5t34 -93.5v0h-84v0q-10 46 -47 73.5
t-96 27.5q-64 0 -103.5 -32t-39.5 -80v0q0 -44 32.5 -72.5t92.5 -42.5l96 -22q51 -11 88 -35.5t57 -62t20 -89.5v0q0 -63 -30 -109.5t-83 -72.5t-123 -26zM248 776l70 147h100l-106 -147h-64z" />
    <glyph glyph-name="sacute" unicode="&#x15b;" horiz-adv-x="459" 
d="M234 -11q-88 0 -142.5 43t-64.5 119v0h81v0q8 -40 39.5 -65.5t86.5 -25.5q47 0 80.5 22t33.5 64v0q0 38 -26 54t-70 23l-68 12q-37 6 -70.5 23t-55 46t-21.5 71v0q0 44 25 77t67.5 51.5t95.5 18.5q77 0 128.5 -36.5t62.5 -107.5v0h-78v0q-8 35 -39 55t-75 20
q-47 0 -78 -20t-31 -56v0q0 -33 29.5 -51.5t78.5 -26.5l69 -12q40 -6 70.5 -21.5t48 -44t17.5 -72.5v0q0 -47 -25.5 -83.5t-69 -56.5t-99.5 -20zM195 588l70 147h100l-106 -147h-64z" />
    <glyph glyph-name="Scircumflex" unicode="&#x15c;" horiz-adv-x="560" 
d="M286 -10q-77 0 -131.5 27t-85 76.5t-36.5 116.5v0h90v0q5 -61 45.5 -101t117.5 -40q71 0 110.5 34t39.5 90v0q0 49 -29 77t-85 41l-99 22q-50 11 -89 36t-61 63t-22 88v0q0 58 30.5 100.5t82.5 66t115 23.5q64 0 113.5 -22t79.5 -61.5t34 -93.5v0h-84v0q-10 46 -47 73.5
t-96 27.5q-64 0 -103.5 -32t-39.5 -80v0q0 -44 32.5 -72.5t92.5 -42.5l96 -22q51 -11 88 -35.5t57 -62t20 -89.5v0q0 -63 -30 -109.5t-83 -72.5t-123 -26zM146 776l97 147h75l97 -147h-59l-73 87h-5l-73 -87h-59z" />
    <glyph glyph-name="scircumflex" unicode="&#x15d;" horiz-adv-x="459" 
d="M234 -11q-88 0 -142.5 43t-64.5 119v0h81v0q8 -40 39.5 -65.5t86.5 -25.5q47 0 80.5 22t33.5 64v0q0 38 -26 54t-70 23l-68 12q-37 6 -70.5 23t-55 46t-21.5 71v0q0 44 25 77t67.5 51.5t95.5 18.5q77 0 128.5 -36.5t62.5 -107.5v0h-78v0q-8 35 -39 55t-75 20
q-47 0 -78 -20t-31 -56v0q0 -33 29.5 -51.5t78.5 -26.5l69 -12q40 -6 70.5 -21.5t48 -44t17.5 -72.5v0q0 -47 -25.5 -83.5t-69 -56.5t-99.5 -20zM93 588l97 147h75l97 -147h-59l-73 87h-5l-73 -87h-59z" />
    <glyph glyph-name="Scedilla" unicode="&#x15e;" horiz-adv-x="560" 
d="M286 -10q-77 0 -131.5 27t-85 76.5t-36.5 116.5v0h90v0q5 -61 45.5 -101t117.5 -40q71 0 110.5 34t39.5 90v0q0 49 -29 77t-85 41l-99 22q-50 11 -89 36t-61 63t-22 88v0q0 58 30.5 100.5t82.5 66t115 23.5q64 0 113.5 -22t79.5 -61.5t34 -93.5v0h-84v0q-10 46 -47 73.5
t-96 27.5q-64 0 -103.5 -32t-39.5 -80v0q0 -44 32.5 -72.5t92.5 -42.5l96 -22q51 -11 88 -35.5t57 -62t20 -89.5v0q0 -63 -30 -109.5t-83 -72.5t-123 -26zM287 -209q-21 0 -40 3.5t-36 10.5v58q19 -8 38 -12.5t38 -4.5q22 0 34 10.5t12 24.5q0 15 -12 25t-37 10h-52l27 94
h50l-14 -48q49 0 74.5 -21.5t25.5 -59.5q0 -46 -29 -68t-79 -22z" />
    <glyph glyph-name="scedilla" unicode="&#x15f;" horiz-adv-x="459" 
d="M234 -11q-88 0 -142.5 43t-64.5 119v0h81v0q8 -40 39.5 -65.5t86.5 -25.5q47 0 80.5 22t33.5 64v0q0 38 -26 54t-70 23l-68 12q-37 6 -70.5 23t-55 46t-21.5 71v0q0 44 25 77t67.5 51.5t95.5 18.5q77 0 128.5 -36.5t62.5 -107.5v0h-78v0q-8 35 -39 55t-75 20
q-47 0 -78 -20t-31 -56v0q0 -33 29.5 -51.5t78.5 -26.5l69 -12q40 -6 70.5 -21.5t48 -44t17.5 -72.5v0q0 -47 -25.5 -83.5t-69 -56.5t-99.5 -20zM231 -209q-21 0 -40 3.5t-36 10.5v58q19 -8 38 -12.5t38 -4.5q22 0 34 10.5t12 24.5q0 15 -12 25t-37 10h-52l27 94h50l-14 -48
q49 0 74.5 -21.5t25.5 -59.5q0 -46 -29 -68t-79 -22z" />
    <glyph glyph-name="Scaron" unicode="&#x160;" horiz-adv-x="560" 
d="M286 -10q-77 0 -131.5 27t-85 76.5t-36.5 116.5v0h90v0q5 -61 45.5 -101t117.5 -40q71 0 110.5 34t39.5 90v0q0 49 -29 77t-85 41l-99 22q-50 11 -89 36t-61 63t-22 88v0q0 58 30.5 100.5t82.5 66t115 23.5q64 0 113.5 -22t79.5 -61.5t34 -93.5v0h-84v0q-10 46 -47 73.5
t-96 27.5q-64 0 -103.5 -32t-39.5 -80v0q0 -44 32.5 -72.5t92.5 -42.5l96 -22q51 -11 88 -35.5t57 -62t20 -89.5v0q0 -63 -30 -109.5t-83 -72.5t-123 -26zM243 776l-97 147h59l73 -88h5l73 88h59l-97 -147h-75z" />
    <glyph glyph-name="scaron" unicode="&#x161;" horiz-adv-x="459" 
d="M234 -11q-88 0 -142.5 43t-64.5 119v0h81v0q8 -40 39.5 -65.5t86.5 -25.5q47 0 80.5 22t33.5 64v0q0 38 -26 54t-70 23l-68 12q-37 6 -70.5 23t-55 46t-21.5 71v0q0 44 25 77t67.5 51.5t95.5 18.5q77 0 128.5 -36.5t62.5 -107.5v0h-78v0q-8 35 -39 55t-75 20
q-47 0 -78 -20t-31 -56v0q0 -33 29.5 -51.5t78.5 -26.5l69 -12q40 -6 70.5 -21.5t48 -44t17.5 -72.5v0q0 -47 -25.5 -83.5t-69 -56.5t-99.5 -20zM190 588l-97 147h59l73 -88h5l73 88h59l-97 -147h-75z" />
    <glyph glyph-name="uni0162" unicode="&#x162;" horiz-adv-x="562" 
d="M237 0v651h88v-651h-88zM22 620v80h518v-80h-518zM285 -209q-21 0 -40 3.5t-36 10.5v58q19 -8 38 -12.5t38 -4.5q22 0 34 10.5t12 24.5q0 15 -12 25t-37 10h-52l27 94h50l-14 -48q49 0 74.5 -21.5t25.5 -59.5q0 -46 -29 -68t-79 -22z" />
    <glyph glyph-name="uni0163" unicode="&#x163;" horiz-adv-x="352" 
d="M247 0q-72 0 -105 43.5t-33 122.5v482h83v-482q0 -46 19.5 -68.5t54.5 -22.5h72v-75h-91zM10 442v70h328v-70h-328zM243 -209q-21 0 -40 3.5t-36 10.5v58q19 -8 38 -12.5t38 -4.5q22 0 34 10.5t12 24.5q0 15 -12 25t-37 10h-52l27 94h50l-14 -48q49 0 74.5 -21.5
t25.5 -59.5q0 -46 -29 -68t-79 -22z" />
    <glyph glyph-name="Tcaron" unicode="&#x164;" horiz-adv-x="562" 
d="M237 0v651h88v-651h-88zM22 620v80h518v-80h-518zM244 776l-97 147h59l73 -88h5l73 88h59l-97 -147h-75z" />
    <glyph glyph-name="tcaron" unicode="&#x165;" horiz-adv-x="352" 
d="M247 0q-72 0 -105 43.5t-33 122.5v482h83v-482q0 -46 19.5 -68.5t54.5 -22.5h72v-75h-91zM10 442v70h328v-70h-328zM246 579l43 214h94l-77 -214h-60z" />
    <glyph glyph-name="Tbar" unicode="&#x166;" horiz-adv-x="562" 
d="M123 313v75h316v-75h-316zM237 0v651h88v-651h-88zM22 620v80h518v-80h-518z" />
    <glyph glyph-name="tbar" unicode="&#x167;" horiz-adv-x="352" 
d="M28 222v69h289v-69h-289zM247 0q-72 0 -105 43.5t-33 122.5v482h83v-482q0 -46 19.5 -68.5t54.5 -22.5h72v-75h-91zM10 442v70h328v-70h-328z" />
    <glyph glyph-name="Utilde" unicode="&#x168;" horiz-adv-x="616" 
d="M308 -10q-124 0 -190 76.5t-66 207.5v426h87v-425q0 -96 43.5 -150.5t125.5 -54.5q81 0 124.5 54.5t43.5 150.5v425h88v-426q0 -87 -29.5 -151t-86.5 -98.5t-140 -34.5zM367 793q-30 0 -49 11t-33 22t-31 11q-15 0 -24 -11t-9 -27h-61q0 39 23.5 67t66.5 28
q31 0 50 -11.5t33 -22.5t30 -11q15 0 24 11t9 27h61q0 -38 -23.5 -66t-66.5 -28z" />
    <glyph glyph-name="utilde" unicode="&#x169;" 
d="M227 -10q-88 0 -133.5 54.5t-45.5 149.5v318h83v-310q0 -74 32 -105.5t83 -31.5q46 0 80 20.5t53 56.5t19 83v287h83v-512h-75v103h-8q-21 -49 -64 -81t-107 -32zM323 605q-30 0 -49 11t-33 22t-31 11q-15 0 -24 -11t-9 -27h-61q0 39 23.5 67t66.5 28q31 0 50 -11.5
t33 -22.5t30 -11q15 0 24 11t9 27h61q0 -38 -23.5 -66t-66.5 -28z" />
    <glyph glyph-name="Umacron" unicode="&#x16a;" horiz-adv-x="616" 
d="M308 -10q-124 0 -190 76.5t-66 207.5v426h87v-425q0 -96 43.5 -150.5t125.5 -54.5q81 0 124.5 54.5t43.5 150.5v425h88v-426q0 -87 -29.5 -151t-86.5 -98.5t-140 -34.5zM192 817v65h231v-65h-231z" />
    <glyph glyph-name="umacron" unicode="&#x16b;" 
d="M227 -10q-88 0 -133.5 54.5t-45.5 149.5v318h83v-310q0 -74 32 -105.5t83 -31.5q46 0 80 20.5t53 56.5t19 83v287h83v-512h-75v103h-8q-21 -49 -64 -81t-107 -32zM148 629v65h231v-65h-231z" />
    <glyph glyph-name="Ubreve" unicode="&#x16c;" horiz-adv-x="616" 
d="M308 -10q-124 0 -190 76.5t-66 207.5v426h87v-425q0 -96 43.5 -150.5t125.5 -54.5q81 0 124.5 54.5t43.5 150.5v425h88v-426q0 -87 -29.5 -151t-86.5 -98.5t-140 -34.5zM308 778q-58 0 -90 36t-32 94h65q0 -30 14 -49.5t43 -19.5t43 19.5t14 49.5h64q0 -58 -32 -94
t-89 -36z" />
    <glyph glyph-name="ubreve" unicode="&#x16d;" 
d="M227 -10q-88 0 -133.5 54.5t-45.5 149.5v318h83v-310q0 -74 32 -105.5t83 -31.5q46 0 80 20.5t53 56.5t19 83v287h83v-512h-75v103h-8q-21 -49 -64 -81t-107 -32zM264 590q-58 0 -90 36t-32 94h65q0 -30 14 -49.5t43 -19.5t43 19.5t14 49.5h64q0 -58 -32 -94t-89 -36z
" />
    <glyph glyph-name="Uring" unicode="&#x16e;" horiz-adv-x="616" 
d="M308 -10q-124 0 -190 76.5t-66 207.5v426h87v-425q0 -96 43.5 -150.5t125.5 -54.5q81 0 124.5 54.5t43.5 150.5v425h88v-426q0 -87 -29.5 -151t-86.5 -98.5t-140 -34.5zM308 767q-40 0 -68 25.5t-28 67.5t28 68t68 26t68 -26t28 -68t-28 -67.5t-68 -25.5zM308 815
q20 0 32 13t12 32q0 20 -12 32.5t-32 12.5q-18 0 -31 -12.5t-13 -32.5q0 -19 13 -32t31 -13z" />
    <glyph glyph-name="uring" unicode="&#x16f;" 
d="M227 -10q-88 0 -133.5 54.5t-45.5 149.5v318h83v-310q0 -74 32 -105.5t83 -31.5q46 0 80 20.5t53 56.5t19 83v287h83v-512h-75v103h-8q-21 -49 -64 -81t-107 -32zM264 579q-40 0 -68 25.5t-28 67.5t28 68t68 26t68 -26t28 -68t-28 -67.5t-68 -25.5zM264 627q20 0 32 13
t12 32q0 20 -12 32.5t-32 12.5q-18 0 -31 -12.5t-13 -32.5q0 -19 13 -32t31 -13z" />
    <glyph glyph-name="Uhungarumlaut" unicode="&#x170;" horiz-adv-x="616" 
d="M308 -10q-124 0 -190 76.5t-66 207.5v426h87v-425q0 -96 43.5 -150.5t125.5 -54.5q81 0 124.5 54.5t43.5 150.5v425h88v-426q0 -87 -29.5 -151t-86.5 -98.5t-140 -34.5zM354 776l47 147h88l-78 -147h-57zM205 776l47 147h88l-78 -147h-57z" />
    <glyph glyph-name="uhungarumlaut" unicode="&#x171;" 
d="M227 -10q-88 0 -133.5 54.5t-45.5 149.5v318h83v-310q0 -74 32 -105.5t83 -31.5q46 0 80 20.5t53 56.5t19 83v287h83v-512h-75v103h-8q-21 -49 -64 -81t-107 -32zM310 588l47 147h88l-78 -147h-57zM161 588l47 147h88l-78 -147h-57z" />
    <glyph glyph-name="Uogonek" unicode="&#x172;" horiz-adv-x="616" 
d="M308 -10q-124 0 -190 76.5t-66 207.5v426h87v-425q0 -96 43.5 -150.5t125.5 -54.5q81 0 124.5 54.5t43.5 150.5v425h88v-426q0 -87 -29.5 -151t-86.5 -98.5t-140 -34.5zM352 -191q-42 0 -67.5 25t-25.5 65q0 37 20 64.5t44 42.5l64 -6q-26 -18 -45 -39.5t-19 -50.5
q0 -17 10 -28t29 -11q10 0 17.5 2.5t13.5 6.5v-62q-15 -9 -41 -9z" />
    <glyph glyph-name="uogonek" unicode="&#x173;" 
d="M227 -10q-88 0 -133.5 54.5t-45.5 149.5v318h83v-310q0 -74 32 -105.5t83 -31.5q46 0 80 20.5t53 56.5t19 83v287h83v-512h-75v103h-8q-21 -49 -64 -81t-107 -32zM446 -191q-42 0 -67.5 25t-25.5 65q0 37 20 64.5t44 42.5l64 -6q-26 -18 -45 -39.5t-19 -50.5
q0 -17 10 -28t29 -11q10 0 17.5 2.5t13.5 6.5v-62q-15 -9 -41 -9z" />
    <glyph glyph-name="Wcircumflex" unicode="&#x174;" horiz-adv-x="935" 
d="M195 0l-183 700h96l129 -520l14 -77h8l15 77l135 520h117l134 -520l15 -77h8l14 77l129 520h97l-183 -700h-118l-130 503l-21 96h-8l-21 -96l-129 -503h-118zM333 776l97 147h75l97 -147h-59l-73 87h-5l-73 -87h-59z" />
    <glyph glyph-name="wcircumflex" unicode="&#x175;" horiz-adv-x="735" 
d="M155 0l-143 512h87l90 -349l14 -70h8l15 70l90 349h103l90 -349l14 -70h8l14 70l90 349h88l-144 -512h-103l-93 365l-12 61h-8l-11 -61l-94 -365h-103zM233 588l97 147h75l97 -147h-59l-73 87h-5l-73 -87h-59z" />
    <glyph glyph-name="Ycircumflex" unicode="&#x176;" horiz-adv-x="594" 
d="M253 0v251l-238 449h100l153 -296l25 -59h8l25 59l152 296h101l-238 -449v-251h-88zM163 776l97 147h75l97 -147h-59l-73 87h-5l-73 -87h-59z" />
    <glyph glyph-name="ycircumflex" unicode="&#x177;" horiz-adv-x="523" 
d="M119 -188h-88v74h86q38 0 59 13.5t35 47.5l16 38l-216 527h93l126 -324l31 -92h8l31 92l120 324h91l-226 -583q-17 -44 -40 -69.5t-53.5 -36.5t-72.5 -11zM128 588l97 147h75l97 -147h-59l-73 87h-5l-73 -87h-59z" />
    <glyph glyph-name="Ydieresis" unicode="&#x178;" horiz-adv-x="594" 
d="M253 0v251l-238 449h100l153 -296l25 -59h8l25 59l152 296h101l-238 -449v-251h-88zM391 789q-22 0 -38 16t-16 38q0 23 16 38.5t38 15.5t38 -15.5t16 -38.5q0 -22 -16 -38t-38 -16zM204 789q-22 0 -38 16t-16 38q0 23 16 38.5t38 15.5t38 -15.5t16 -38.5q0 -22 -16 -38
t-38 -16z" />
    <glyph glyph-name="Zacute" unicode="&#x179;" horiz-adv-x="527" 
d="M25 0v80l357 536v4h-347v80h446v-80l-357 -536v-4h375v-80h-474zM229 776l70 147h100l-106 -147h-64z" />
    <glyph glyph-name="zacute" unicode="&#x17a;" horiz-adv-x="450" 
d="M25 0v70l295 368v4h-290v70h387v-70l-294 -368v-4h300v-70h-398zM192 588l70 147h100l-106 -147h-64z" />
    <glyph glyph-name="Zdotaccent" unicode="&#x17b;" horiz-adv-x="527" 
d="M25 0v80l357 536v4h-347v80h446v-80l-357 -536v-4h375v-80h-474zM261 789q-22 0 -38.5 16.5t-16.5 38.5q0 23 16.5 39t38.5 16q23 0 39 -16t16 -39q0 -22 -16 -38.5t-39 -16.5z" />
    <glyph glyph-name="zdotaccent" unicode="&#x17c;" horiz-adv-x="450" 
d="M25 0v70l295 368v4h-290v70h387v-70l-294 -368v-4h300v-70h-398zM224 601q-22 0 -38.5 16.5t-16.5 38.5q0 23 16.5 39t38.5 16q23 0 39 -16t16 -39q0 -22 -16 -38.5t-39 -16.5z" />
    <glyph glyph-name="Zcaron" unicode="&#x17d;" horiz-adv-x="527" 
d="M25 0v80l357 536v4h-347v80h446v-80l-357 -536v-4h375v-80h-474zM224 776l-97 147h59l73 -88h5l73 88h59l-97 -147h-75z" />
    <glyph glyph-name="zcaron" unicode="&#x17e;" horiz-adv-x="450" 
d="M25 0v70l295 368v4h-290v70h387v-70l-294 -368v-4h300v-70h-398zM187 588l-97 147h59l73 -88h5l73 88h59l-97 -147h-75z" />
    <glyph glyph-name="florin" unicode="&#x192;" horiz-adv-x="433" 
d="M-116 -198l13 72h57q37 0 60.5 22.5t31.5 68.5l103 581q15 85 59.5 124.5t117.5 39.5h100l-13 -72h-90q-37 0 -60 -21.5t-31 -69.5l-103 -579q-15 -84 -58.5 -125t-119.5 -41h-67zM32 442l13 70h328l-13 -70h-328z" />
    <glyph glyph-name="uni01B5" unicode="&#x1b5;" horiz-adv-x="527" 
d="M66 315v71h386v-71h-386zM25 0v80l357 536v4h-347v80h446v-80l-357 -536v-4h375v-80h-474z" />
    <glyph glyph-name="uni01B6" unicode="&#x1b6;" horiz-adv-x="450" 
d="M64 223v67h320v-67h-320zM25 0v70l295 368v4h-290v70h387v-70l-294 -368v-4h300v-70h-398z" />
    <glyph glyph-name="AEacute" unicode="&#x1fc;" horiz-adv-x="918" 
d="M8 0l371 700h83v-80h-40l-30 -74l-287 -546h-97zM435 0v700h438v-80h-351v-220h295v-79h-295v-241h357v-80h-444zM174 185v79h310v-79h-310zM580 776l70 147h100l-106 -147h-64z" />
    <glyph glyph-name="uni0218" unicode="&#x218;" horiz-adv-x="560" 
d="M286 -10q-77 0 -131.5 27t-85 76.5t-36.5 116.5v0h90v0q5 -61 45.5 -101t117.5 -40q71 0 110.5 34t39.5 90v0q0 49 -29 77t-85 41l-99 22q-50 11 -89 36t-61 63t-22 88v0q0 58 30.5 100.5t82.5 66t115 23.5q64 0 113.5 -22t79.5 -61.5t34 -93.5v0h-84v0q-10 46 -47 73.5
t-96 27.5q-64 0 -103.5 -32t-39.5 -80v0q0 -44 32.5 -72.5t92.5 -42.5l96 -22q51 -11 88 -35.5t57 -62t20 -89.5v0q0 -63 -30 -109.5t-83 -72.5t-123 -26zM210 -212l36 145h84l-70 -145h-50z" />
    <glyph glyph-name="uni0219" unicode="&#x219;" horiz-adv-x="459" 
d="M234 -11q-88 0 -142.5 43t-64.5 119v0h81v0q8 -40 39.5 -65.5t86.5 -25.5q47 0 80.5 22t33.5 64v0q0 38 -26 54t-70 23l-68 12q-37 6 -70.5 23t-55 46t-21.5 71v0q0 44 25 77t67.5 51.5t95.5 18.5q77 0 128.5 -36.5t62.5 -107.5v0h-78v0q-8 35 -39 55t-75 20
q-47 0 -78 -20t-31 -56v0q0 -33 29.5 -51.5t78.5 -26.5l69 -12q40 -6 70.5 -21.5t48 -44t17.5 -72.5v0q0 -47 -25.5 -83.5t-69 -56.5t-99.5 -20zM154 -212l36 145h84l-70 -145h-50z" />
    <glyph glyph-name="uni021A" unicode="&#x21a;" horiz-adv-x="562" 
d="M237 0v651h88v-651h-88zM22 620v80h518v-80h-518zM208 -212l36 145h84l-70 -145h-50z" />
    <glyph glyph-name="uni021B" unicode="&#x21b;" horiz-adv-x="352" 
d="M247 0q-72 0 -105 43.5t-33 122.5v482h83v-482q0 -46 19.5 -68.5t54.5 -22.5h72v-75h-91zM10 442v70h328v-70h-328zM166 -212l36 145h84l-70 -145h-50z" />
    <glyph glyph-name="uni0237" unicode="&#x237;" horiz-adv-x="178" 
d="M-58 -188v75h64q21 0 31.5 14t10.5 39v572h83v-578q0 -59 -29 -90.5t-82 -31.5h-78z" />
    <glyph glyph-name="circumflex" unicode="&#x2c6;" horiz-adv-x="289" 
d="M10 588l97 147h75l97 -147h-59l-73 87h-5l-73 -87h-59z" />
    <glyph glyph-name="caron" unicode="&#x2c7;" horiz-adv-x="289" 
d="M107 588l-97 147h59l73 -88h5l73 88h59l-97 -147h-75z" />
    <glyph glyph-name="uni02C9" unicode="&#x2c9;" horiz-adv-x="251" 
d="M10 629v65h231v-65h-231z" />
    <glyph glyph-name="breve" unicode="&#x2d8;" horiz-adv-x="263" 
d="M132 590q-58 0 -90 36t-32 94h65q0 -30 14 -49.5t43 -19.5t43 19.5t14 49.5h64q0 -58 -32 -94t-89 -36z" />
    <glyph glyph-name="dotaccent" unicode="&#x2d9;" horiz-adv-x="202" 
d="M101 601q-22 0 -38.5 16.5t-16.5 38.5q0 23 16.5 39t38.5 16q23 0 39 -16t16 -39q0 -22 -16 -38.5t-39 -16.5z" />
    <glyph glyph-name="ring" unicode="&#x2da;" horiz-adv-x="218" 
d="M109 579q-40 0 -68 25.5t-28 67.5t28 68t68 26t68 -26t28 -68t-28 -67.5t-68 -25.5zM109 627q20 0 32 13t12 32q0 20 -12 32.5t-32 12.5q-18 0 -31 -12.5t-13 -32.5q0 -19 13 -32t31 -13z" />
    <glyph glyph-name="ogonek" unicode="&#x2db;" horiz-adv-x="258" 
d="M103 -191q-42 0 -67.5 25t-25.5 65q0 37 20 64.5t44 42.5l64 -6q-26 -18 -45 -39.5t-19 -50.5q0 -17 10 -28t29 -11q10 0 17.5 2.5t13.5 6.5v-62q-15 -9 -41 -9z" />
    <glyph glyph-name="tilde" unicode="&#x2dc;" horiz-adv-x="377" 
d="M217 605q-30 0 -49 11t-33 22t-31 11q-15 0 -24 -11t-9 -27h-61q0 39 23.5 67t66.5 28q31 0 50 -11.5t33 -22.5t30 -11q15 0 24 11t9 27h61q0 -38 -23.5 -66t-66.5 -28z" />
    <glyph glyph-name="hungarumlaut" unicode="&#x2dd;" horiz-adv-x="304" 
d="M159 588l47 147h88l-78 -147h-57zM10 588l47 147h88l-78 -147h-57z" />
    <glyph glyph-name="gravecomb" unicode="&#x300;" horiz-adv-x="0" 
d="M116 588l-106 147h100l70 -147h-64z" />
    <glyph glyph-name="acutecomb" unicode="&#x301;" horiz-adv-x="0" 
d="M10 588l70 147h100l-106 -147h-64z" />
    <glyph glyph-name="uni0302" unicode="&#x302;" horiz-adv-x="0" 
d="M10 588l97 147h75l97 -147h-59l-73 87h-5l-73 -87h-59z" />
    <glyph glyph-name="tildecomb" unicode="&#x303;" horiz-adv-x="0" 
d="M217 605q-30 0 -49 11t-33 22t-31 11q-15 0 -24 -11t-9 -27h-61q0 39 23.5 67t66.5 28q31 0 50 -11.5t33 -22.5t30 -11q15 0 24 11t9 27h61q0 -38 -23.5 -66t-66.5 -28z" />
    <glyph glyph-name="uni0304" unicode="&#x304;" horiz-adv-x="0" 
d="M10 629v65h231v-65h-231z" />
    <glyph glyph-name="uni0306" unicode="&#x306;" horiz-adv-x="0" 
d="M132 590q-58 0 -90 36t-32 94h65q0 -30 14 -49.5t43 -19.5t43 19.5t14 49.5h64q0 -58 -32 -94t-89 -36z" />
    <glyph glyph-name="uni0307" unicode="&#x307;" horiz-adv-x="0" 
d="M101 601q-22 0 -38.5 16.5t-16.5 38.5q0 23 16.5 39t38.5 16q23 0 39 -16t16 -39q0 -22 -16 -38.5t-39 -16.5z" />
    <glyph glyph-name="uni0308" unicode="&#x308;" horiz-adv-x="0" 
d="M253 601q-22 0 -38 16t-16 38q0 23 16 38.5t38 15.5t38 -15.5t16 -38.5q0 -22 -16 -38t-38 -16zM66 601q-22 0 -38 16t-16 38q0 23 16 38.5t38 15.5t38 -15.5t16 -38.5q0 -22 -16 -38t-38 -16z" />
    <glyph glyph-name="uni030A" unicode="&#x30a;" horiz-adv-x="0" 
d="M109 579q-40 0 -68 25.5t-28 67.5t28 68t68 26t68 -26t28 -68t-28 -67.5t-68 -25.5zM109 627q20 0 32 13t12 32q0 20 -12 32.5t-32 12.5q-18 0 -31 -12.5t-13 -32.5q0 -19 13 -32t31 -13z" />
    <glyph glyph-name="uni030B" unicode="&#x30b;" horiz-adv-x="0" 
d="M159 588l47 147h88l-78 -147h-57zM10 588l47 147h88l-78 -147h-57z" />
    <glyph glyph-name="uni030C" unicode="&#x30c;" horiz-adv-x="0" 
d="M107 588l-97 147h59l73 -88h5l73 88h59l-97 -147h-75z" />
    <glyph glyph-name="uni0312" unicode="&#x312;" horiz-adv-x="0" 
d="M153 733l-36 -145h-84l70 145h50z" />
    <glyph glyph-name="uni0326" unicode="&#x326;" horiz-adv-x="0" 
d="M18 -212l36 145h84l-70 -145h-50z" />
    <glyph glyph-name="uni0327" unicode="&#x327;" horiz-adv-x="0" 
d="M86 -209q-21 0 -40 3.5t-36 10.5v58q19 -8 38 -12.5t38 -4.5q22 0 34 10.5t12 24.5q0 15 -12 25t-37 10h-52l27 94h50l-14 -48q49 0 74.5 -21.5t25.5 -59.5q0 -46 -29 -68t-79 -22z" />
    <glyph glyph-name="uni0328" unicode="&#x328;" horiz-adv-x="0" 
d="M103 -191q-42 0 -67.5 25t-25.5 65q0 37 20 64.5t44 42.5l64 -6q-26 -18 -45 -39.5t-19 -50.5q0 -17 10 -28t29 -11q10 0 17.5 2.5t13.5 6.5v-62q-15 -9 -41 -9z" />
    <glyph glyph-name="pi" unicode="&#x3c0;" horiz-adv-x="626" 
d="M548 0q-72 0 -105 43.5t-33 122.5v312h83v-312q0 -46 19.5 -68.5t54.5 -22.5h45v-75h-64zM127 0v512h83v-512h-83zM10 442v70h602v-70h-602z" />
    <glyph glyph-name="uni0E3F" unicode="&#xe3f;" horiz-adv-x="575" 
d="M52 0v700h262q95 0 146 -47.5t51 -127.5v0q0 -39 -14.5 -68.5t-36.5 -48.5t-45 -29v-4q34 -12 61.5 -34t44.5 -57t17 -86v0q0 -57 -29.5 -102t-79.5 -70.5t-114 -25.5h-263zM139 78h171q63 0 103.5 32t40.5 96v0q0 64 -40.5 96t-103.5 32h-171v-256zM226 -80v118v0v619v0
v123h79v-123v0v-619v0v-118h-79zM139 410h172q53 0 85 27t32 79v0q0 51 -32 78.5t-85 27.5h-172v-212z" />
    <glyph glyph-name="Wgrave" unicode="&#x1e80;" horiz-adv-x="935" 
d="M195 0l-183 700h96l129 -520l14 -77h8l15 77l135 520h117l134 -520l15 -77h8l14 77l129 520h97l-183 -700h-118l-130 503l-21 96h-8l-21 -96l-129 -503h-118zM436 776l-106 147h100l70 -147h-64z" />
    <glyph glyph-name="wgrave" unicode="&#x1e81;" horiz-adv-x="735" 
d="M155 0l-143 512h87l90 -349l14 -70h8l15 70l90 349h103l90 -349l14 -70h8l14 70l90 349h88l-144 -512h-103l-93 365l-12 61h-8l-11 -61l-94 -365h-103zM336 588l-106 147h100l70 -147h-64z" />
    <glyph glyph-name="Wacute" unicode="&#x1e82;" horiz-adv-x="935" 
d="M195 0l-183 700h96l129 -520l14 -77h8l15 77l135 520h117l134 -520l15 -77h8l14 77l129 520h97l-183 -700h-118l-130 503l-21 96h-8l-21 -96l-129 -503h-118zM435 776l70 147h100l-106 -147h-64z" />
    <glyph glyph-name="wacute" unicode="&#x1e83;" horiz-adv-x="735" 
d="M155 0l-143 512h87l90 -349l14 -70h8l15 70l90 349h103l90 -349l14 -70h8l14 70l90 349h88l-144 -512h-103l-93 365l-12 61h-8l-11 -61l-94 -365h-103zM335 588l70 147h100l-106 -147h-64z" />
    <glyph glyph-name="Wdieresis" unicode="&#x1e84;" horiz-adv-x="935" 
d="M195 0l-183 700h96l129 -520l14 -77h8l15 77l135 520h117l134 -520l15 -77h8l14 77l129 520h97l-183 -700h-118l-130 503l-21 96h-8l-21 -96l-129 -503h-118zM561 789q-22 0 -38 16t-16 38q0 23 16 38.5t38 15.5t38 -15.5t16 -38.5q0 -22 -16 -38t-38 -16zM374 789
q-22 0 -38 16t-16 38q0 23 16 38.5t38 15.5t38 -15.5t16 -38.5q0 -22 -16 -38t-38 -16z" />
    <glyph glyph-name="wdieresis" unicode="&#x1e85;" horiz-adv-x="735" 
d="M155 0l-143 512h87l90 -349l14 -70h8l15 70l90 349h103l90 -349l14 -70h8l14 70l90 349h88l-144 -512h-103l-93 365l-12 61h-8l-11 -61l-94 -365h-103zM461 601q-22 0 -38 16t-16 38q0 23 16 38.5t38 15.5t38 -15.5t16 -38.5q0 -22 -16 -38t-38 -16zM274 601
q-22 0 -38 16t-16 38q0 23 16 38.5t38 15.5t38 -15.5t16 -38.5q0 -22 -16 -38t-38 -16z" />
    <glyph glyph-name="Ygrave" unicode="&#x1ef2;" horiz-adv-x="594" 
d="M253 0v251l-238 449h100l153 -296l25 -59h8l25 59l152 296h101l-238 -449v-251h-88zM266 776l-106 147h100l70 -147h-64z" />
    <glyph glyph-name="ygrave" unicode="&#x1ef3;" horiz-adv-x="523" 
d="M119 -188h-88v74h86q38 0 59 13.5t35 47.5l16 38l-216 527h93l126 -324l31 -92h8l31 92l120 324h91l-226 -583q-17 -44 -40 -69.5t-53.5 -36.5t-72.5 -11zM231 588l-106 147h100l70 -147h-64z" />
    <glyph glyph-name="endash" unicode="&#x2013;" horiz-adv-x="467" 
d="M26 284v68h415v-68h-415z" />
    <glyph glyph-name="emdash" unicode="&#x2014;" horiz-adv-x="755" 
d="M26 284v68h703v-68h-703z" />
    <glyph glyph-name="quoteleft" unicode="&#x2018;" horiz-adv-x="259" 
d="M52 507l99 224h60l-65 -224h-94z" />
    <glyph glyph-name="quoteright" unicode="&#x2019;" horiz-adv-x="259" 
d="M48 507l66 224h93l-99 -224h-60z" />
    <glyph glyph-name="quotesinglbase" unicode="&#x201a;" horiz-adv-x="190" 
d="M29 -107l35 217h93l-69 -217h-59z" />
    <glyph glyph-name="quotedblleft" unicode="&#x201c;" horiz-adv-x="434" 
d="M227 507l99 224h60l-65 -224h-94zM52 507l99 224h60l-65 -224h-94z" />
    <glyph glyph-name="quotedblright" unicode="&#x201d;" horiz-adv-x="437" 
d="M226 507l66 224h93l-99 -224h-60zM48 507l66 224h93l-99 -224h-60z" />
    <glyph glyph-name="quotedblbase" unicode="&#x201e;" horiz-adv-x="365" 
d="M204 -107l35 217h93l-69 -217h-59zM29 -107l35 217h93l-69 -217h-59z" />
    <glyph glyph-name="dagger" unicode="&#x2020;" horiz-adv-x="286" 
d="M106 269v431h74v-431h-74zM19 537v65h248v-65h-248z" />
    <glyph glyph-name="daggerdbl" unicode="&#x2021;" horiz-adv-x="286" 
d="M106 269v99h-87v64h87v105h-87v65h87v98h74v-98h87v-65h-87v-105h87v-64h-87v-99h-74z" />
    <glyph glyph-name="bullet" unicode="&#x2022;" horiz-adv-x="267" 
d="M133 246q-28 0 -51.5 14.5t-38 38t-14.5 51.5q0 29 14.5 52.5t38 37.5t51.5 14q29 0 52.5 -14t38 -37.5t14.5 -52.5q0 -28 -14.5 -51.5t-38 -38t-52.5 -14.5z" />
    <glyph glyph-name="ellipsis" unicode="&#x2026;" horiz-adv-x="620" 
d="M310 -6q-24 0 -41.5 17.5t-17.5 42.5q0 24 17.5 41.5t41.5 17.5t41.5 -17.5t17.5 -41.5q0 -25 -17.5 -42.5t-41.5 -17.5zM525 -6q-24 0 -41.5 17.5t-17.5 42.5q0 24 17.5 41.5t41.5 17.5t41.5 -17.5t17.5 -41.5q0 -25 -17.5 -42.5t-41.5 -17.5zM95 -6q-24 0 -41.5 17.5
t-17.5 42.5q0 24 17.5 41.5t41.5 17.5t41.5 -17.5t17.5 -41.5q0 -25 -17.5 -42.5t-41.5 -17.5z" />
    <glyph glyph-name="perthousand" unicode="&#x2030;" horiz-adv-x="1197" 
d="M174 0l403 700h81l-402 -700h-82zM204 338q-50 0 -87.5 24t-57.5 66.5t-20 95.5v0q0 54 20 96t57.5 66t87.5 24q51 0 88 -24t57 -66t20 -96v0q0 -53 -20 -95.5t-57 -66.5t-88 -24zM204 405q42 0 67.5 32t25.5 87v0q0 56 -25.5 88t-67.5 32t-67.5 -32t-25.5 -88v0
q0 -55 25.5 -87t67.5 -32zM628 -10q-50 0 -87.5 24t-57.5 66.5t-20 95.5v0q0 54 20 96t57.5 66t87.5 24q51 0 88 -24t57 -66t20 -96v0q0 -53 -20 -95.5t-57 -66.5t-88 -24zM628 57q42 0 67.5 32t25.5 87v0q0 56 -25.5 88t-67.5 32t-67.5 -32t-25.5 -88v0q0 -55 25.5 -87
t67.5 -32zM993 -10q-50 0 -87.5 24t-57.5 66.5t-20 95.5v0q0 54 20 96t57.5 66t87.5 24q51 0 88 -24t57 -66t20 -96v0q0 -53 -20 -95.5t-57 -66.5t-88 -24zM993 57q42 0 67.5 32t25.5 87v0q0 56 -25.5 88t-67.5 32t-67.5 -32t-25.5 -88v0q0 -55 25.5 -87t67.5 -32z" />
    <glyph glyph-name="guilsinglleft" unicode="&#x2039;" horiz-adv-x="280" 
d="M161 143l-136 173v8l136 174h90l-137 -174v-8l137 -173h-90z" />
    <glyph glyph-name="guilsinglright" unicode="&#x203a;" horiz-adv-x="280" 
d="M29 143l137 173v8l-137 174h90l136 -174v-8l-136 -173h-90z" />
    <glyph glyph-name="fraction" unicode="&#x2044;" horiz-adv-x="279" 
d="M-110 0l418 700h81l-418 -700h-81z" />
    <glyph glyph-name="uni2070" unicode="&#x2070;" horiz-adv-x="360" 
d="M180 410q-46 0 -82 24.5t-56 69t-20 104.5v0q0 60 20 104.5t56 69t82 24.5q47 0 82.5 -24.5t55.5 -69t20 -104.5v0q0 -60 -20 -104.5t-55.5 -69t-82.5 -24.5zM180 472q39 0 63.5 36.5t24.5 99.5v0q0 62 -24.5 98.5t-63.5 36.5q-40 0 -64.5 -36.5t-24.5 -98.5v0
q0 -63 24.5 -99.5t64.5 -36.5z" />
    <glyph glyph-name="uni2074" unicode="&#x2074;" horiz-adv-x="322" 
d="M193 415v86h-174v58l169 241h69v-241h52v-58h-52v-86h-64zM88 559h105v151h-4l-101 -147v-4z" />
    <glyph glyph-name="uni2075" unicode="&#x2075;" horiz-adv-x="320" 
d="M158 410q-60 0 -95.5 33t-37.5 90h67q2 -27 18.5 -45t47.5 -18q29 0 48.5 20t19.5 53v0q0 33 -19 53t-50 20q-19 0 -35 -9.5t-24 -23.5h-66l19 217h225v-62h-169l-16 -111h4q10 20 31.5 32.5t49.5 12.5q49 0 83.5 -34t34.5 -95v0q0 -58 -37.5 -95.5t-98.5 -37.5z" />
    <glyph glyph-name="uni2076" unicode="&#x2076;" horiz-adv-x="326" 
d="M170 410q-67 0 -107.5 47t-40.5 138v0q0 70 18.5 117t52.5 70.5t82 23.5q56 0 88 -30.5t37 -74.5h-67q-4 20 -19.5 33.5t-41.5 13.5q-46 0 -66 -40t-21 -108v0v0h5q10 29 33.5 47t61.5 18q49 0 84.5 -32.5t35.5 -94.5v0q0 -38 -18.5 -67t-49 -45t-67.5 -16zM169 467
q31 0 50 20.5t19 50.5v0q0 30 -19 50t-50 20t-50 -20t-19 -50v0q0 -30 19 -50.5t50 -20.5z" />
    <glyph glyph-name="uni2077" unicode="&#x2077;" horiz-adv-x="296" 
d="M69 415l141 320v3h-195v62h264v-62l-138 -323h-72z" />
    <glyph glyph-name="uni2078" unicode="&#x2078;" horiz-adv-x="309" 
d="M154 410q-59 0 -94.5 31t-35.5 83v0q0 36 20 59.5t44 32.5v4q-23 13 -38 33.5t-15 49.5v0q0 46 33.5 74.5t85.5 28.5q53 0 86.5 -28.5t33.5 -74.5v0q0 -29 -15 -49.5t-38 -33.5v-4q25 -9 44.5 -32.5t19.5 -59.5v0q0 -52 -36 -83t-95 -31zM154 468q30 0 48.5 16.5
t18.5 44.5v0q0 27 -18.5 43.5t-48.5 16.5q-29 0 -47.5 -16.5t-18.5 -43.5v0q0 -28 18.5 -44.5t47.5 -16.5zM154 644q26 0 42.5 15t16.5 38v0q0 24 -16.5 39t-42.5 15q-25 0 -41.5 -15t-16.5 -39v0q0 -23 16 -38t42 -15z" />
    <glyph glyph-name="uni2079" unicode="&#x2079;" horiz-adv-x="326" 
d="M151 410q-56 0 -88.5 30.5t-37.5 74.5h67q5 -20 20 -33.5t41 -13.5q47 0 66 39.5t19 104.5v0v0h-3q-9 -25 -32.5 -42.5t-60.5 -17.5q-49 0 -85 33t-36 94v0q0 38 18.5 66.5t49 44.5t67.5 16q67 0 107.5 -46.5t40.5 -138.5v0q0 -70 -18.5 -117t-52.5 -70.5t-82 -23.5z
M156 609q30 0 49.5 20t19.5 50v0q0 30 -19.5 49.5t-49.5 19.5t-49.5 -19.5t-19.5 -49.5v0q0 -30 19.5 -50t49.5 -20z" />
    <glyph glyph-name="uni2080" unicode="&#x2080;" horiz-adv-x="360" 
d="M180 -105q-46 0 -82 24.5t-56 69t-20 104.5v0q0 60 20 104.5t56 69t82 24.5q47 0 82.5 -24.5t55.5 -69t20 -104.5v0q0 -60 -20 -104.5t-55.5 -69t-82.5 -24.5zM180 -43q39 0 63.5 36.5t24.5 99.5v0q0 62 -24.5 98.5t-63.5 36.5q-40 0 -64.5 -36.5t-24.5 -98.5v0
q0 -63 24.5 -99.5t64.5 -36.5z" />
    <glyph glyph-name="uni2081" unicode="&#x2081;" horiz-adv-x="276" 
d="M103 -100v296h-5q-7 -16 -22.5 -26.5t-40.5 -10.5h-17v69h21q29 0 46 17t18 40h69v-385h-69zM18 -100v63h238v-63h-238z" />
    <glyph glyph-name="uni2082" unicode="&#x2082;" horiz-adv-x="310" 
d="M32 -100v63l135 125q21 20 33.5 38.5t12.5 46.5q0 27 -17.5 41.5t-43.5 14.5q-25 0 -42.5 -15.5t-19.5 -43.5h-65q1 33 16 60.5t43 44t68 16.5q57 0 93 -29.5t36 -82.5q0 -40 -17 -69t-52 -61l-89 -82v-4h163v-63h-254z" />
    <glyph glyph-name="uni2083" unicode="&#x2083;" horiz-adv-x="314" 
d="M159 -105q-43 0 -74 16t-47 44.5t-17 63.5h67q2 -28 19.5 -45.5t52.5 -17.5q34 0 51.5 16.5t17.5 43.5v0q0 26 -19 41t-49 15h-34v57h34q29 0 44 14t15 38v0q0 24 -17.5 37t-43.5 13t-43.5 -13.5t-21.5 -36.5h-66q3 29 17.5 54t42 40.5t70.5 15.5q59 0 93 -28.5t34 -75.5
v0q0 -34 -17 -54t-42 -28v-4q27 -7 48.5 -28t21.5 -61v0q0 -51 -37.5 -84t-99.5 -33z" />
    <glyph glyph-name="uni2084" unicode="&#x2084;" horiz-adv-x="322" 
d="M193 -100v86h-174v58l169 241h69v-241h52v-58h-52v-86h-64zM88 44h105v151h-4l-101 -147v-4z" />
    <glyph glyph-name="uni2085" unicode="&#x2085;" horiz-adv-x="320" 
d="M158 -105q-60 0 -95.5 33t-37.5 90h67q2 -27 18.5 -45t47.5 -18q29 0 48.5 20t19.5 53v0q0 33 -19 53t-50 20q-19 0 -35 -9.5t-24 -23.5h-66l19 217h225v-62h-169l-16 -111h4q10 20 31.5 32.5t49.5 12.5q49 0 83.5 -34t34.5 -95v0q0 -58 -37.5 -95.5t-98.5 -37.5z" />
    <glyph glyph-name="uni2086" unicode="&#x2086;" horiz-adv-x="326" 
d="M170 -105q-67 0 -107.5 47t-40.5 138v0q0 70 18.5 117t52.5 70.5t82 23.5q56 0 88 -30.5t37 -74.5h-67q-4 20 -19.5 33.5t-41.5 13.5q-46 0 -66 -40t-21 -108v0v0h5q10 29 33.5 47t61.5 18q49 0 84.5 -32.5t35.5 -94.5v0q0 -38 -18.5 -67t-49 -45t-67.5 -16zM169 -48
q31 0 50 20.5t19 50.5v0q0 30 -19 50t-50 20t-50 -20t-19 -50v0q0 -30 19 -50.5t50 -20.5z" />
    <glyph glyph-name="uni2087" unicode="&#x2087;" horiz-adv-x="296" 
d="M69 -100l141 320v3h-195v62h264v-62l-138 -323h-72z" />
    <glyph glyph-name="uni2088" unicode="&#x2088;" horiz-adv-x="309" 
d="M154 -105q-59 0 -94.5 31t-35.5 83v0q0 36 20 59.5t44 32.5v4q-23 13 -38 33.5t-15 49.5v0q0 46 33.5 74.5t85.5 28.5q53 0 86.5 -28.5t33.5 -74.5v0q0 -29 -15 -49.5t-38 -33.5v-4q25 -9 44.5 -32.5t19.5 -59.5v0q0 -52 -36 -83t-95 -31zM154 -47q30 0 48.5 16.5
t18.5 44.5v0q0 27 -18.5 43.5t-48.5 16.5q-29 0 -47.5 -16.5t-18.5 -43.5v0q0 -28 18.5 -44.5t47.5 -16.5zM154 129q26 0 42.5 15t16.5 38v0q0 24 -16.5 39t-42.5 15q-25 0 -41.5 -15t-16.5 -39v0q0 -23 16 -38t42 -15z" />
    <glyph glyph-name="uni2089" unicode="&#x2089;" horiz-adv-x="326" 
d="M151 -105q-56 0 -88.5 30.5t-37.5 74.5h67q5 -20 20 -33.5t41 -13.5q47 0 66 39.5t19 104.5v0v0h-3q-9 -25 -32.5 -42.5t-60.5 -17.5q-49 0 -85 33t-36 94v0q0 38 18.5 66.5t49 44.5t67.5 16q67 0 107.5 -46.5t40.5 -138.5v0q0 -70 -18.5 -117t-52.5 -70.5t-82 -23.5z
M156 94q30 0 49.5 20t19.5 50v0q0 30 -19.5 49.5t-49.5 19.5t-49.5 -19.5t-19.5 -49.5v0q0 -30 19.5 -50t49.5 -20z" />
    <glyph glyph-name="colonmonetary" unicode="&#x20a1;" horiz-adv-x="676" 
d="M106 -70l240 840h70l-240 -840h-70zM265 -70l240 840h70l-240 -840h-70zM356 -10q-67 0 -125 25t-102 72t-68.5 113.5t-24.5 149.5v0q0 83 24.5 149.5t68.5 113.5t102 72t125 25q81 0 142 -28t98.5 -77t47.5 -112h-85q-19 62 -70 99.5t-133 37.5q-65 0 -118 -33.5
t-84 -96t-31 -150.5v0q0 -87 31 -149.5t84 -96t118 -33.5q55 0 94.5 17t66.5 48t43 73h87q-16 -64 -54.5 -113.5t-98 -77.5t-138.5 -28z" />
    <glyph glyph-name="uni20A6" unicode="&#x20a6;" horiz-adv-x="721" 
d="M84 0v700h100l238 -360l127 -201h8l-8 133v428h88v-700h-88l-378 573h-8l8 -125v-448h-87zM15 307v70h691v-70h-691z" />
    <glyph glyph-name="uni20A9" unicode="&#x20a9;" horiz-adv-x="968" 
d="M15 307v70h938v-70h-938zM211 0l-183 700h97l128 -520l15 -77h8l15 77l134 520h117l135 -520l15 -77h8l14 77l129 520h96l-183 -700h-118l-129 503l-21 96h-8l-22 -96l-129 -503h-118z" />
    <glyph glyph-name="uni20AA" unicode="&#x20aa;" horiz-adv-x="686" 
d="M218 0v488h82v-411h110q69 0 105.5 36.5t36.5 105.5v481h82v-480q0 -109 -56.5 -164.5t-166.5 -55.5h-193zM52 0v700h193q109 0 165.5 -55t56.5 -164v-273h-82v274q0 68 -36.5 105t-105.5 37h-109v-624h-82z" />
    <glyph glyph-name="Euro" unicode="&#x20ac;" horiz-adv-x="717" 
d="M410 -10q-66 0 -122.5 25t-98 72t-64.5 113.5t-23 149.5v0q0 83 23 149.5t64.5 113.5t98 72t122.5 25q81 0 139 -28t92.5 -75.5t44.5 -104.5h-85q-16 51 -62 89.5t-129 38.5q-66 0 -115.5 -33.5t-77 -96t-27.5 -150.5v0q0 -87 27.5 -149.5t77 -96t115.5 -33.5q55 0 93 18
t62.5 47.5t36.5 63.5h86q-16 -58 -51 -105.5t-91 -76t-136 -28.5zM21 233v68h430v-68h-430zM21 400v68h430v-68h-430z" />
    <glyph glyph-name="uni20AD" unicode="&#x20ad;" horiz-adv-x="585" 
d="M15 315v70h546v-70h-546zM469 0l-295 350l295 350h105l-296 -349l296 -351h-105zM96 0v700h87v-700h-87zM168 332v36h28v-36h-28z" />
    <glyph glyph-name="uni20AE" unicode="&#x20ae;" horiz-adv-x="562" 
d="M92 250v73l377 197v-73zM92 97v73l377 198v-73zM237 0v651h88v-651h-88zM22 620v80h518v-80h-518z" />
    <glyph glyph-name="uni20B1" unicode="&#x20b1;" horiz-adv-x="639" 
d="M91 0v700h242q106 0 168.5 -54t62.5 -158v0q0 -103 -62.5 -157.5t-168.5 -54.5h-155v-276h-87zM15 399v63h96l32 -2h365l21 2h96v-63h-96l-21 7h-365l-32 -7h-96zM178 356h158q68 0 104 35t36 97v0q0 62 -36 97t-104 35h-158v-264zM15 514v63h96l32 -7h365l21 7h96v-63
h-96l-21 2h-365l-32 -2h-96z" />
    <glyph glyph-name="uni20B4" unicode="&#x20b4;" horiz-adv-x="614" 
d="M310 -10q-70 0 -123 25.5t-83 71t-30 106.5v0q0 28 8.5 51t24.5 42h100q-24 -15 -36 -38t-12 -55v0q0 -56 40 -90t111 -34q76 0 116 36t44 90h90q-6 -63 -36.5 -109t-84 -71t-129.5 -25zM38 255v69h543v-69h-543zM38 380v69h543v-69h-543zM391 427q34 15 51 39.5t17 57.5
v0q0 48 -39.5 79t-103.5 31q-58 0 -96 -27.5t-47 -73.5h-84q4 54 34 93.5t80 61.5t113 22q64 0 116 -23t82.5 -65t30.5 -99v0q0 -28 -9.5 -52t-31.5 -44h-113z" />
    <glyph glyph-name="uni20B8" unicode="&#x20b8;" horiz-adv-x="562" 
d="M237 0v469h88v-469h-88zM22 433v80h518v-80h-518zM22 620v80h518v-80h-518z" />
    <glyph glyph-name="uni20B9" unicode="&#x20b9;" horiz-adv-x="530" 
d="M24 293v80h158q66 0 102.5 32.5t36.5 90.5v0q0 59 -36.5 91.5t-102.5 32.5h-158v80h482v-77h-82l-89 5v-8q37 -21 54.5 -54.5t17.5 -74.5v0q0 -60 -29 -104.5t-80.5 -69t-121.5 -24.5h-152zM298 0l-274 293l104 8l282 -301h-112zM24 462v69h482v-69h-482z" />
    <glyph glyph-name="uni20BA" unicode="&#x20ba;" horiz-adv-x="624" 
d="M117 0v700h88v-620h99q96 0 145.5 55.5t49.5 158.5v29h86v-33q0 -140 -69.5 -215t-200.5 -75h-198zM20 73v87l341 258v-86zM20 259v85l341 258v-84z" />
    <glyph glyph-name="uni20BC" unicode="&#x20bc;" horiz-adv-x="569" 
d="M33 0v314q0 77 30.5 137t87 94.5t134.5 34.5t134 -34.5t86.5 -94.5t30.5 -137v-314h-87v314q0 62 -22 103.5t-59.5 63t-82.5 21.5t-82.5 -21.5t-59.5 -63t-22 -103.5v-314h-88zM245 0v700h79v-700h-79z" />
    <glyph glyph-name="uni20BD" unicode="&#x20bd;" horiz-adv-x="602" 
d="M15 126v70h381v-70h-381zM93 0v700h242q106 0 168.5 -52.5t62.5 -154.5v0q0 -101 -62.5 -153.5t-168.5 -52.5h-154v-287h-88zM181 367h159q66 0 102 32.5t36 93.5v0q0 62 -36 94.5t-102 32.5h-159v-253z" />
    <glyph glyph-name="uni20BF" unicode="&#x20bf;" horiz-adv-x="575" 
d="M290 667v113h78v-113h-78zM135 -80v106h79v-106h-79zM290 -80v106h78v-106h-78zM135 667v113h79v-113h-79zM52 0v700h262q95 0 146 -47.5t51 -127.5v0q0 -39 -14.5 -68.5t-36.5 -48.5t-45 -29v-4q34 -12 61.5 -34t44.5 -57t17 -86v0q0 -57 -29.5 -102t-79.5 -70.5
t-114 -25.5h-263zM139 78h171q63 0 103.5 32t40.5 96v0q0 64 -40.5 96t-103.5 32h-171v-256zM139 410h172q53 0 85 27t32 79v0q0 51 -32 78.5t-85 27.5h-172v-212z" />
    <glyph glyph-name="uni2113" unicode="&#x2113;" horiz-adv-x="492" 
d="M275 0q-59 0 -101 23.5t-64 69.5t-22 113q0 103 20.5 194t57 161t85 109.5t104.5 39.5q52 0 80 -30.5t28 -81.5q0 -79 -28 -150t-84.5 -132t-141.5 -108.5t-199 -79.5v73q93 24 163.5 63.5t118 90t71.5 109t24 119.5q0 26 -9.5 41.5t-30.5 15.5q-29 0 -61 -32.5t-60 -91
t-45.5 -136.5t-17.5 -170q0 -70 31 -104t86 -34h60v-72h-65z" />
    <glyph glyph-name="trademark" unicode="&#x2122;" horiz-adv-x="589" 
d="M265 420v280h72l76 -214h4l76 214h72v-280h-56v134l3 46h-4l-67 -180h-53l-67 180h-4l3 -46v-134h-55zM93 420v247h56v-247h-56zM11 651v49h219v-49h-219z" />
    <glyph glyph-name="uni2126" unicode="&#x2126;" horiz-adv-x="744" 
d="M60 0v80h175v10q-64 37 -108 82t-66.5 100.5t-22.5 122.5v0q0 99 44 169.5t119.5 108t170.5 37.5t171 -37.5t120 -108t44 -169.5v0q0 -67 -22.5 -122.5t-66.5 -100.5t-109 -82v-10h176v-80h-257v113q61 31 103.5 72.5t65 93.5t22.5 114v0q0 77 -32.5 129.5t-88.5 80
t-126 27.5t-126 -27.5t-88.5 -80t-32.5 -129.5v0q0 -62 23 -114t65.5 -93.5t102.5 -72.5v-113h-256z" />
    <glyph glyph-name="estimated" unicode="&#x212e;" horiz-adv-x="745" 
d="M380 -10q-64 0 -125 25t-109.5 72t-77 113.5t-28.5 149.5t28.5 149.5t77 113.5t109.5 72t125 25q67 0 126 -23.5t104.5 -66t71 -101.5t25.5 -131v-53h-632v56h572q-7 84 -44.5 141.5t-95.5 87.5t-127 30q-51 0 -100.5 -20.5t-89 -59t-63 -94t-23.5 -126.5
q0 -70 23.5 -126t63 -94.5t89 -59t100.5 -20.5q89 0 153.5 41t91.5 109h62q-16 -58 -58.5 -106t-106 -76t-142.5 -28zM87 487l103 130v-543l-103 100v313zM663 367h-103v250l103 -130v-120z" />
    <glyph glyph-name="arrowleft" unicode="&#x2190;" horiz-adv-x="583" 
d="M244 119l-218 220v22l218 220l49 -50l-110 -109l-36 -28v-8h410v-72h-410v-8l36 -27l110 -109z" />
    <glyph glyph-name="arrowup" unicode="&#x2191;" horiz-adv-x="514" 
d="M221 84v411h-8l-28 -36l-109 -110l-50 49l220 218h22l220 -218l-51 -49l-109 110l-27 36h-8v-411h-72z" />
    <glyph glyph-name="arrowright" unicode="&#x2192;" horiz-adv-x="583" 
d="M339 119l-49 51l110 109l36 27v8h-410v72h410v8l-36 28l-110 109l49 50l218 -220v-22z" />
    <glyph glyph-name="arrowdown" unicode="&#x2193;" horiz-adv-x="514" 
d="M246 84l-220 219l50 49l109 -111l28 -35h8v410h72v-410h8l27 35l109 111l51 -49l-220 -219h-22z" />
    <glyph glyph-name="uni2196" unicode="&#x2196;" horiz-adv-x="462" 
d="M385 145l-289 291l-6 -6l6 -45v-157h-70v312l15 16h312v-71h-157l-44 6l-6 -6l290 -290z" />
    <glyph glyph-name="uni2197" unicode="&#x2197;" horiz-adv-x="462" 
d="M76 145l-50 50l290 290l-6 6l-45 -6h-156v71h311l16 -16v-312h-70v157l5 45l-6 6z" />
    <glyph glyph-name="uni2198" unicode="&#x2198;" horiz-adv-x="462" 
d="M109 145v70h156l45 -6l6 6l-290 290l50 51l289 -291l6 6l-5 44v157h70v-312l-16 -15h-311z" />
    <glyph glyph-name="uni2199" unicode="&#x2199;" horiz-adv-x="462" 
d="M41 145l-15 15v312h70v-157l-6 -44l6 -6l289 291l51 -51l-290 -290l6 -6l44 6h157v-70h-312z" />
    <glyph glyph-name="uni21B3" unicode="&#x21b3;" horiz-adv-x="583" 
d="M339 119l-49 51l110 109l36 27v8h-410v250h74v-178h336v8l-36 28l-110 109l49 50l218 -220v-22z" />
    <glyph glyph-name="carriagereturn" unicode="&#x21b5;" horiz-adv-x="583" 
d="M244 119l-218 220v22l218 220l49 -50l-110 -109l-36 -28v-8h336v178h74v-250h-410v-8l36 -27l110 -109z" />
    <glyph glyph-name="partialdiff" unicode="&#x2202;" horiz-adv-x="536" 
d="M264 -10q-64 0 -117.5 32t-85 88.5t-31.5 131.5v0q0 80 30.5 136.5t81 86.5t110.5 30q62 0 103 -28.5t65 -71.5h8v0v0q-8 43 -29 84.5t-54 78t-76 66.5t-96 50l58 50q66 -28 117 -66t86 -88.5t53.5 -117t18.5 -151.5v0q0 -100 -31.5 -169.5t-86.5 -105.5t-124 -36z
M264 66q55 0 90 27.5t52.5 81.5t17.5 133v0q-15 32 -40 57.5t-56 40t-64 14.5q-43 0 -77.5 -22t-54 -62t-19.5 -94v0q0 -53 19.5 -92.5t54 -61.5t77.5 -22z" />
    <glyph glyph-name="uni2206" unicode="&#x2206;" horiz-adv-x="647" 
d="M32 0v79l238 621h108l237 -621v-79h-583zM125 79h397l-171 453l-23 78h-8l-24 -78z" />
    <glyph glyph-name="product" unicode="&#x220f;" horiz-adv-x="628" 
d="M489 -188v888h87v-888h-87zM52 -188v888h88v-888h-88zM95 620v80h439v-80h-439z" />
    <glyph glyph-name="summation" unicode="&#x2211;" horiz-adv-x="524" 
d="M28 -188v80l256 368v8l-249 352v80h451v-80h-347v-4l240 -348v-8l-247 -364v-4h367v-80h-471z" />
    <glyph glyph-name="minus" unicode="&#x2212;" horiz-adv-x="450" 
d="M26 283v71h398v-71h-398z" />
    <glyph glyph-name="uni2215" unicode="&#x2215;" horiz-adv-x="450" 
d="M39 -60l289 820h83l-289 -820h-83z" />
    <glyph glyph-name="uni2219" unicode="&#x2219;" horiz-adv-x="450" 
d="M225 214q-28 0 -51.5 14.5t-38 38t-14.5 51.5q0 29 14.5 52.5t38 37.5t51.5 14q29 0 52.5 -14t38 -37.5t14.5 -52.5q0 -28 -14.5 -51.5t-38 -38t-52.5 -14.5z" />
    <glyph glyph-name="radical" unicode="&#x221a;" horiz-adv-x="552" 
d="M134 0l-124 359h91l60 -199l19 -69h8l19 69l169 540h162v-70h-102l-201 -630h-101z" />
    <glyph glyph-name="infinity" unicode="&#x221e;" horiz-adv-x="735" 
d="M192 152q-44 0 -81 18.5t-59 55.5t-22 92t22 92t59 55.5t81 18.5q62 0 104 -28.5t71 -81.5q29 53 71 81.5t104 28.5q44 0 81 -18.5t59.5 -55.5t22.5 -92t-22.5 -92t-59.5 -55.5t-81 -18.5q-62 0 -104 29t-71 82q-29 -53 -71 -82t-104 -29zM196 221q42 0 75 24.5t59 72.5
q-26 48 -59 72.5t-75 24.5q-38 0 -64 -25t-26 -72q0 -46 26 -71.5t64 -25.5zM539 221q38 0 64 25.5t26 71.5q0 47 -26 72t-64 25q-43 0 -75.5 -24.5t-58.5 -72.5q26 -48 58.5 -72.5t75.5 -24.5z" />
    <glyph glyph-name="integral" unicode="&#x222b;" horiz-adv-x="433" 
d="M-116 -198l13 72h57q37 0 60.5 22.5t31.5 68.5l103 581q15 85 59.5 124.5t117.5 39.5h100l-13 -72h-90q-37 0 -60 -21.5t-31 -69.5l-103 -579q-15 -84 -58.5 -125t-119.5 -41h-67z" />
    <glyph glyph-name="approxequal" unicode="&#x2248;" horiz-adv-x="450" 
d="M310 353q-28 0 -50.5 10t-42 23t-37 23t-34.5 10q-25 0 -38 -15.5t-13 -38.5h-69q0 52 29.5 86t84.5 34q28 0 51 -10t42.5 -23t37 -23t33.5 -10q26 0 39 15.5t13 38.5h68q0 -51 -29 -85.5t-85 -34.5zM310 151q-28 0 -50.5 10t-42 23t-37 23t-34.5 10q-25 0 -38 -15.5
t-13 -38.5h-69q0 52 29.5 86t84.5 34q28 0 51 -10t42.5 -23t37 -23t33.5 -10q26 0 39 15.5t13 38.5h68q0 -51 -29 -85.5t-85 -34.5z" />
    <glyph glyph-name="notequal" unicode="&#x2260;" horiz-adv-x="450" 
d="M43 30l67 133h-84v71h120l85 169h-205v71h241l65 128h75l-64 -128h81v-71h-117l-85 -169h202v-71h-238l-67 -133h-76z" />
    <glyph glyph-name="lessequal" unicode="&#x2264;" horiz-adv-x="450" 
d="M424 114l-398 179v71l398 178v-81l-296 -129v-8l296 -129v-81zM26 0v71h398v-71h-398z" />
    <glyph glyph-name="greaterequal" unicode="&#x2265;" horiz-adv-x="450" 
d="M26 114v81l296 129v8l-296 129v81l398 -178v-71zM26 0v71h398v-71h-398z" />
    <glyph glyph-name="lozenge" unicode="&#x25ca;" horiz-adv-x="511" 
d="M203 0l-195 350l195 350h105l195 -350l-195 -350h-105zM252 63h8l24 58l128 229l-128 229l-24 58h-8l-25 -58l-128 -229l128 -229z" />
    <glyph glyph-name="uni2713" unicode="&#x2713;" horiz-adv-x="640" 
d="M203 0l-159 364h86l95 -215l19 -68h8l18 68l245 581h86l-307 -730h-91z" />
    <glyph glyph-name="uni2780" unicode="&#x2780;" horiz-adv-x="796" 
d="M398 -10q-73 0 -138.5 25.5t-116 72.5t-79 113.5t-28.5 148.5v0q0 82 28.5 148.5t79 113.5t116 72.5t138.5 25.5q74 0 139 -25.5t115.5 -72.5t79 -113.5t28.5 -148.5v0q0 -82 -28.5 -148.5t-79 -113.5t-115.5 -72.5t-139 -25.5zM398 44q62 0 117.5 21.5t98.5 61.5
t67.5 96.5t24.5 126.5v0q0 70 -24.5 126.5t-67.5 97t-98.5 62t-117.5 21.5q-63 0 -118.5 -21.5t-98.5 -62t-67.5 -97t-24.5 -126.5v0q0 -70 24.5 -126.5t67.5 -96.5t98.5 -61.5t118.5 -21.5zM287 158v63h238v-63h-238zM372 158v296h-5q-7 -16 -22.5 -26.5t-40.5 -10.5h-17
v69h21q29 0 46 17t18 40h69v-385h-69z" />
    <glyph glyph-name="uni2781" unicode="&#x2781;" horiz-adv-x="796" 
d="M398 -10q-73 0 -138.5 25.5t-116 72.5t-79 113.5t-28.5 148.5t28.5 148.5t79 113.5t116 72.5t138.5 25.5q74 0 139 -25.5t115.5 -72.5t79 -113.5t28.5 -148.5t-28.5 -148.5t-79 -113.5t-115.5 -72.5t-139 -25.5zM398 44q62 0 117.5 21.5t98.5 61.5t67.5 96.5t24.5 126.5
t-24.5 126.5t-67.5 97t-98.5 62t-117.5 21.5q-63 0 -118.5 -21.5t-98.5 -62t-67.5 -97t-24.5 -126.5t24.5 -126.5t67.5 -96.5t98.5 -61.5t118.5 -21.5zM275 158v63l135 125q21 20 33.5 38.5t12.5 46.5q0 27 -17.5 41.5t-43.5 14.5q-25 0 -42.5 -15.5t-19.5 -43.5h-65
q1 33 16 60.5t43 44t68 16.5q57 0 93 -29.5t36 -82.5q0 -40 -17 -69t-52 -61l-89 -82v-4h163v-63h-254z" />
    <glyph glyph-name="uni2782" unicode="&#x2782;" horiz-adv-x="796" 
d="M398 -10q-73 0 -138.5 25.5t-116 72.5t-79 113.5t-28.5 148.5v0q0 82 28.5 148.5t79 113.5t116 72.5t138.5 25.5q74 0 139 -25.5t115.5 -72.5t79 -113.5t28.5 -148.5v0q0 -82 -28.5 -148.5t-79 -113.5t-115.5 -72.5t-139 -25.5zM398 44q62 0 117.5 21.5t98.5 61.5
t67.5 96.5t24.5 126.5v0q0 70 -24.5 126.5t-67.5 97t-98.5 62t-117.5 21.5q-63 0 -118.5 -21.5t-98.5 -62t-67.5 -97t-24.5 -126.5v0q0 -70 24.5 -126.5t67.5 -96.5t98.5 -61.5t118.5 -21.5zM399 152q-44 0 -74.5 16t-47 44.5t-17.5 63.5h68q2 -28 19.5 -45.5t51.5 -17.5
q35 0 52.5 16.5t17.5 43.5v0q0 26 -19 41t-50 15h-33v57h33q29 0 44 14t15 38v0q0 24 -17.5 37t-43.5 13t-43.5 -13.5t-20.5 -36.5h-66q2 29 16.5 54t43 40.5t70.5 15.5q59 0 93 -28.5t34 -75.5v0q0 -34 -17 -54t-42 -28v-4q27 -7 48 -28t21 -61v0q0 -51 -37 -84t-99 -33z
" />
    <glyph glyph-name="uni2783" unicode="&#x2783;" horiz-adv-x="796" 
d="M398 -10q-73 0 -138.5 25.5t-116 72.5t-79 113.5t-28.5 148.5v0q0 82 28.5 148.5t79 113.5t116 72.5t138.5 25.5q74 0 139 -25.5t115.5 -72.5t79 -113.5t28.5 -148.5v0q0 -82 -28.5 -148.5t-79 -113.5t-115.5 -72.5t-139 -25.5zM399 157v86h-175v58l169 241h70v-241h52
v-58h-52v-86h-64zM294 301h105v151h-4l-101 -147v-4zM398 44q62 0 117.5 21.5t98.5 61.5t67.5 96.5t24.5 126.5v0q0 70 -24.5 126.5t-67.5 97t-98.5 62t-117.5 21.5q-63 0 -118.5 -21.5t-98.5 -62t-67.5 -97t-24.5 -126.5v0q0 -70 24.5 -126.5t67.5 -96.5t98.5 -61.5
t118.5 -21.5z" />
    <glyph glyph-name="uni2784" unicode="&#x2784;" horiz-adv-x="796" 
d="M398 -10q-73 0 -138.5 25.5t-116 72.5t-79 113.5t-28.5 148.5v0q0 82 28.5 148.5t79 113.5t116 72.5t138.5 25.5q74 0 139 -25.5t115.5 -72.5t79 -113.5t28.5 -148.5v0q0 -82 -28.5 -148.5t-79 -113.5t-115.5 -72.5t-139 -25.5zM398 44q62 0 117.5 21.5t98.5 61.5
t67.5 96.5t24.5 126.5v0q0 70 -24.5 126.5t-67.5 97t-98.5 62t-117.5 21.5q-63 0 -118.5 -21.5t-98.5 -62t-67.5 -97t-24.5 -126.5v0q0 -70 24.5 -126.5t67.5 -96.5t98.5 -61.5t118.5 -21.5zM396 152q-60 0 -95.5 33t-37.5 90h67q2 -27 18.5 -45t47.5 -18q29 0 48.5 20
t19.5 53v0q0 33 -19 53t-51 20q-19 0 -34.5 -9.5t-23.5 -23.5h-66l19 217h225v-62h-169l-16 -111h3q10 20 32 32.5t49 12.5q50 0 84.5 -34t34.5 -95v0q0 -58 -38 -95.5t-98 -37.5z" />
    <glyph glyph-name="uni2785" unicode="&#x2785;" horiz-adv-x="796" 
d="M398 -10q-73 0 -138.5 25.5t-116 72.5t-79 113.5t-28.5 148.5v0q0 82 28.5 148.5t79 113.5t116 72.5t138.5 25.5q74 0 139 -25.5t115.5 -72.5t79 -113.5t28.5 -148.5v0q0 -82 -28.5 -148.5t-79 -113.5t-115.5 -72.5t-139 -25.5zM398 44q62 0 117.5 21.5t98.5 61.5
t67.5 96.5t24.5 126.5v0q0 70 -24.5 126.5t-67.5 97t-98.5 62t-117.5 21.5q-63 0 -118.5 -21.5t-98.5 -62t-67.5 -97t-24.5 -126.5v0q0 -70 24.5 -126.5t67.5 -96.5t98.5 -61.5t118.5 -21.5zM400 152q-67 0 -107.5 47t-40.5 138v0q0 70 18.5 117t53 70.5t81.5 23.5
q56 0 88.5 -30.5t36.5 -74.5h-67q-4 20 -19.5 33.5t-41.5 13.5q-46 0 -66 -40t-20 -108v0v0h4q10 29 33.5 47t62.5 18q48 0 83.5 -32.5t35.5 -94.5v0q0 -38 -18.5 -67t-49 -45t-67.5 -16zM399 209q31 0 50 20.5t19 50.5v0q0 30 -19 50t-50 20t-50 -20t-19 -50v0
q0 -30 19 -50.5t50 -20.5z" />
    <glyph glyph-name="uni2786" unicode="&#x2786;" horiz-adv-x="796" 
d="M398 -10q-73 0 -138.5 25.5t-116 72.5t-79 113.5t-28.5 148.5v0q0 82 28.5 148.5t79 113.5t116 72.5t138.5 25.5q74 0 139 -25.5t115.5 -72.5t79 -113.5t28.5 -148.5v0q0 -82 -28.5 -148.5t-79 -113.5t-115.5 -72.5t-139 -25.5zM398 44q62 0 117.5 21.5t98.5 61.5
t67.5 96.5t24.5 126.5v0q0 70 -24.5 126.5t-67.5 97t-98.5 62t-117.5 21.5q-63 0 -118.5 -21.5t-98.5 -62t-67.5 -97t-24.5 -126.5v0q0 -70 24.5 -126.5t67.5 -96.5t98.5 -61.5t118.5 -21.5zM322 157l141 320v3h-195v62h264v-62l-138 -323h-72z" />
    <glyph glyph-name="uni2787" unicode="&#x2787;" horiz-adv-x="796" 
d="M398 -10q-73 0 -138.5 25.5t-116 72.5t-79 113.5t-28.5 148.5v0q0 82 28.5 148.5t79 113.5t116 72.5t138.5 25.5q74 0 139 -25.5t115.5 -72.5t79 -113.5t28.5 -148.5v0q0 -82 -28.5 -148.5t-79 -113.5t-115.5 -72.5t-139 -25.5zM398 44q62 0 117.5 21.5t98.5 61.5
t67.5 96.5t24.5 126.5v0q0 70 -24.5 126.5t-67.5 97t-98.5 62t-117.5 21.5q-63 0 -118.5 -21.5t-98.5 -62t-67.5 -97t-24.5 -126.5v0q0 -70 24.5 -126.5t67.5 -96.5t98.5 -61.5t118.5 -21.5zM398 386q26 0 42.5 15t16.5 38v0q0 24 -16.5 39t-42.5 15q-25 0 -41.5 -15
t-16.5 -39v0q0 -23 16 -38t42 -15zM398 210q30 0 48.5 16.5t18.5 44.5v0q0 27 -18.5 43.5t-48.5 16.5q-29 0 -47.5 -16.5t-18.5 -43.5v0q0 -28 18.5 -44.5t47.5 -16.5zM398 152q-59 0 -94.5 31t-35.5 83v0q0 36 20 59.5t44 32.5v4q-23 13 -38 33.5t-15 49.5v0
q0 46 33.5 74.5t85.5 28.5q53 0 86.5 -28.5t33.5 -74.5v0q0 -29 -15 -49.5t-38 -33.5v-4q25 -9 44.5 -32.5t19.5 -59.5v0q0 -52 -36 -83t-95 -31z" />
    <glyph glyph-name="uni2788" unicode="&#x2788;" horiz-adv-x="796" 
d="M398 -10q-73 0 -138.5 25.5t-116 72.5t-79 113.5t-28.5 148.5v0q0 82 28.5 148.5t79 113.5t116 72.5t138.5 25.5q74 0 139 -25.5t115.5 -72.5t79 -113.5t28.5 -148.5v0q0 -82 -28.5 -148.5t-79 -113.5t-115.5 -72.5t-139 -25.5zM398 44q62 0 117.5 21.5t98.5 61.5
t67.5 96.5t24.5 126.5v0q0 70 -24.5 126.5t-67.5 97t-98.5 62t-117.5 21.5q-63 0 -118.5 -21.5t-98.5 -62t-67.5 -97t-24.5 -126.5v0q0 -70 24.5 -126.5t67.5 -96.5t98.5 -61.5t118.5 -21.5zM394 152q-55 0 -87.5 30.5t-37.5 74.5h67q4 -20 19.5 -33.5t40.5 -13.5
q48 0 67 39.5t19 104.5v0v0h-3q-9 -25 -32.5 -42.5t-60.5 -17.5q-49 0 -85.5 33t-36.5 94v0q0 38 18.5 66.5t49 44.5t67.5 16q67 0 107.5 -46.5t40.5 -138.5v0q0 -70 -18.5 -117t-52.5 -70.5t-82 -23.5zM400 351q30 0 49.5 20t19.5 50v0q0 30 -19.5 49.5t-49.5 19.5
q-31 0 -50 -19.5t-19 -49.5v0q0 -30 19 -50t50 -20z" />
    <glyph glyph-name="uni278A" unicode="&#x278a;" horiz-adv-x="796" 
d="M398 -10q-73 0 -138.5 25.5t-116 72.5t-79 113.5t-28.5 148.5v0q0 82 28.5 148.5t79 113.5t116 72.5t138.5 25.5q74 0 139 -25.5t115.5 -72.5t79 -113.5t28.5 -148.5v0q0 -82 -28.5 -148.5t-79 -113.5t-115.5 -72.5t-139 -25.5zM287 158h238v63h-84v322h-69
q-1 -23 -18 -40t-46 -17h-21v-69h17q25 0 40.5 10.5t22.5 26.5h5v-233h-85v-63z" />
    <glyph glyph-name="uni278B" unicode="&#x278b;" horiz-adv-x="796" 
d="M398 -10q-73 0 -138.5 25.5t-116 72.5t-79 113.5t-28.5 148.5t28.5 148.5t79 113.5t116 72.5t138.5 25.5q74 0 139 -25.5t115.5 -72.5t79 -113.5t28.5 -148.5t-28.5 -148.5t-79 -113.5t-115.5 -72.5t-139 -25.5zM275 158h254v63h-163v4l89 82q35 32 52 61t17 69
q0 53 -36 82.5t-93 29.5q-40 0 -68 -16.5t-43 -44t-16 -60.5h65q2 28 19.5 43.5t42.5 15.5q26 0 43.5 -14.5t17.5 -41.5q0 -28 -12.5 -46.5t-33.5 -38.5l-135 -125v-63z" />
    <glyph glyph-name="uni278C" unicode="&#x278c;" horiz-adv-x="796" 
d="M398 -10q-73 0 -138.5 25.5t-116 72.5t-79 113.5t-28.5 148.5v0q0 82 28.5 148.5t79 113.5t116 72.5t138.5 25.5q74 0 139 -25.5t115.5 -72.5t79 -113.5t28.5 -148.5v0q0 -82 -28.5 -148.5t-79 -113.5t-115.5 -72.5t-139 -25.5zM399 152q62 0 99 33t37 84v0q0 40 -21 61
t-48 28v4q25 8 42 28t17 54v0q0 47 -34 75.5t-93 28.5q-42 0 -70.5 -15.5t-43 -40.5t-16.5 -54h66q3 23 20.5 36.5t43.5 13.5t43.5 -13t17.5 -37v0q0 -24 -15 -38t-44 -14h-33v-57h33q31 0 50 -15t19 -41v0q0 -27 -17.5 -43.5t-52.5 -16.5q-34 0 -51.5 17.5t-19.5 45.5h-68
q1 -35 17.5 -63.5t47 -44.5t74.5 -16z" />
    <glyph glyph-name="uni278D" unicode="&#x278d;" horiz-adv-x="796" 
d="M398 -10q-73 0 -138.5 25.5t-116 72.5t-79 113.5t-28.5 148.5v0q0 82 28.5 148.5t79 113.5t116 72.5t138.5 25.5q74 0 139 -25.5t115.5 -72.5t79 -113.5t28.5 -148.5v0q0 -82 -28.5 -148.5t-79 -113.5t-115.5 -72.5t-139 -25.5zM399 157h64v86h52v58h-52v241h-70
l-169 -241v-58h175v-86zM294 301v4l101 147h4v-151h-105z" />
    <glyph glyph-name="uni278E" unicode="&#x278e;" horiz-adv-x="796" 
d="M398 -10q-73 0 -138.5 25.5t-116 72.5t-79 113.5t-28.5 148.5v0q0 82 28.5 148.5t79 113.5t116 72.5t138.5 25.5q74 0 139 -25.5t115.5 -72.5t79 -113.5t28.5 -148.5v0q0 -82 -28.5 -148.5t-79 -113.5t-115.5 -72.5t-139 -25.5zM396 152q60 0 98 37.5t38 95.5v0
q0 61 -34.5 95t-84.5 34q-27 0 -49 -12.5t-32 -32.5h-3l16 111h169v62h-225l-19 -217h66q8 14 23.5 23.5t34.5 9.5q32 0 51 -20t19 -53v0q0 -33 -19.5 -53t-48.5 -20q-31 0 -47.5 18t-18.5 45h-67q2 -57 37.5 -90t95.5 -33z" />
    <glyph glyph-name="uni278F" unicode="&#x278f;" horiz-adv-x="796" 
d="M398 -10q-73 0 -138.5 25.5t-116 72.5t-79 113.5t-28.5 148.5v0q0 82 28.5 148.5t79 113.5t116 72.5t138.5 25.5q74 0 139 -25.5t115.5 -72.5t79 -113.5t28.5 -148.5v0q0 -82 -28.5 -148.5t-79 -113.5t-115.5 -72.5t-139 -25.5zM399 209q-31 0 -50 20.5t-19 50.5v0
q0 30 19 50t50 20t50 -20t19 -50v0q0 -30 -19 -50.5t-50 -20.5zM400 152q37 0 67.5 16t49 45t18.5 67v0q0 62 -35.5 94.5t-83.5 32.5q-39 0 -62.5 -18t-33.5 -47h-4v0v0q0 68 20 108t66 40q26 0 41.5 -13.5t19.5 -33.5h67q-4 44 -36.5 74.5t-88.5 30.5q-47 0 -81.5 -23.5
t-53 -70.5t-18.5 -117v0q0 -91 40.5 -138t107.5 -47z" />
    <glyph glyph-name="uni2790" unicode="&#x2790;" horiz-adv-x="796" 
d="M398 -10q-73 0 -138.5 25.5t-116 72.5t-79 113.5t-28.5 148.5v0q0 82 28.5 148.5t79 113.5t116 72.5t138.5 25.5q74 0 139 -25.5t115.5 -72.5t79 -113.5t28.5 -148.5v0q0 -82 -28.5 -148.5t-79 -113.5t-115.5 -72.5t-139 -25.5zM322 157h72l138 323v62h-264v-62h195v-3z
" />
    <glyph glyph-name="uni2791" unicode="&#x2791;" horiz-adv-x="796" 
d="M398 -10q-73 0 -138.5 25.5t-116 72.5t-79 113.5t-28.5 148.5v0q0 82 28.5 148.5t79 113.5t116 72.5t138.5 25.5q74 0 139 -25.5t115.5 -72.5t79 -113.5t28.5 -148.5v0q0 -82 -28.5 -148.5t-79 -113.5t-115.5 -72.5t-139 -25.5zM398 210q-29 0 -47.5 16.5t-18.5 44.5v0
q0 27 18.5 43.5t47.5 16.5q30 0 48.5 -16.5t18.5 -43.5v0q0 -28 -18.5 -44.5t-48.5 -16.5zM398 152q59 0 95 31t36 83v0q0 36 -19.5 59.5t-44.5 32.5v4q23 13 38 33.5t15 49.5v0q0 46 -33.5 74.5t-86.5 28.5q-52 0 -85.5 -28.5t-33.5 -74.5v0q0 -29 15 -49.5t38 -33.5v-4
q-24 -9 -44 -32.5t-20 -59.5v0q0 -52 35.5 -83t94.5 -31zM398 386q-26 0 -42 15t-16 38v0q0 24 16.5 39t41.5 15q26 0 42.5 -15t16.5 -39v0q0 -23 -16.5 -38t-42.5 -15z" />
    <glyph glyph-name="uni2792" unicode="&#x2792;" horiz-adv-x="796" 
d="M398 -10q-73 0 -138.5 25.5t-116 72.5t-79 113.5t-28.5 148.5v0q0 82 28.5 148.5t79 113.5t116 72.5t138.5 25.5q74 0 139 -25.5t115.5 -72.5t79 -113.5t28.5 -148.5v0q0 -82 -28.5 -148.5t-79 -113.5t-115.5 -72.5t-139 -25.5zM394 152q48 0 82 23.5t52.5 70.5t18.5 117
v0q0 92 -40.5 138.5t-107.5 46.5q-37 0 -67.5 -16t-49 -44.5t-18.5 -66.5v0q0 -61 36.5 -94t85.5 -33q37 0 60.5 17.5t32.5 42.5h3v0v0q0 -65 -19 -104.5t-67 -39.5q-25 0 -40.5 13.5t-19.5 33.5h-67q5 -44 37.5 -74.5t87.5 -30.5zM400 351q-31 0 -50 20t-19 50v0
q0 30 19 49.5t50 19.5q30 0 49.5 -19.5t19.5 -49.5v0q0 -30 -19.5 -50t-49.5 -20z" />
    <glyph glyph-name="uniF000" unicode="&#xf000;" horiz-adv-x="1192" 
d="M233 -199q-50 0 -92 24.5t-66.5 66t-24.5 91.5v727q0 51 24.5 92.5t66.5 66t92 24.5h727q50 0 91.5 -24.5t66 -66t24.5 -92.5v-727q0 -50 -24.5 -91.5t-66 -66t-91.5 -24.5h-727zM306 -1h580q24 0 41 17t17 41v580q0 23 -17 40t-41 17h-580q-23 0 -40 -17t-17 -40v-580
q0 -24 17 -41t40 -17zM481 199q-14 0 -24 10t-10 23v231q0 14 10 24t24 10h232q13 0 22.5 -10t9.5 -24v-231q0 -13 -9.5 -23t-22.5 -10h-232z" />
    <glyph glyph-name="fi" unicode="&#xfb01;" horiz-adv-x="545" 
d="M112 0v544q0 82 42.5 124t109.5 42h96v-72h-90q-35 0 -55 -21.5t-20 -69.5v-547h-83zM13 442v70h328v-70h-328zM415 0v512h83v-512h-83zM456 601q-22 0 -38.5 16.5t-16.5 38.5q0 23 16.5 39t38.5 16q23 0 39 -16t16 -39q0 -22 -16 -38.5t-39 -16.5z" />
    <glyph glyph-name="fl" unicode="&#xfb02;" horiz-adv-x="546" 
d="M112 0v544q0 82 42.5 124t109.5 42h96v-72h-90q-35 0 -55 -21.5t-20 -69.5v-547h-83zM13 442v70h328v-70h-328zM415 0v710h83v-710h-83z" />
    <glyph glyph-name="u1F10B" unicode="&#x1f10b;" horiz-adv-x="796" 
d="M398 -10q-73 0 -138.5 25.5t-116 72.5t-79 113.5t-28.5 148.5v0q0 82 28.5 148.5t79 113.5t116 72.5t138.5 25.5q74 0 139 -25.5t115.5 -72.5t79 -113.5t28.5 -148.5v0q0 -82 -28.5 -148.5t-79 -113.5t-115.5 -72.5t-139 -25.5zM398 44q62 0 117.5 21.5t98.5 61.5
t67.5 96.5t24.5 126.5v0q0 70 -24.5 126.5t-67.5 97t-98.5 62t-117.5 21.5q-63 0 -118.5 -21.5t-98.5 -62t-67.5 -97t-24.5 -126.5v0q0 -70 24.5 -126.5t67.5 -96.5t98.5 -61.5t118.5 -21.5zM398 152q-47 0 -83 24.5t-56 69t-20 104.5v0q0 60 20 104.5t56 69t83 24.5
t82.5 -24.5t55.5 -69t20 -104.5v0q0 -60 -20 -104.5t-55.5 -69t-82.5 -24.5zM398 214q39 0 63.5 36.5t24.5 99.5v0q0 62 -24.5 98.5t-63.5 36.5q-40 0 -64.5 -36.5t-24.5 -98.5v0q0 -63 24.5 -99.5t64.5 -36.5z" />
    <glyph glyph-name="u1F10C" unicode="&#x1f10c;" horiz-adv-x="796" 
d="M398 -10q-73 0 -138.5 25.5t-116 72.5t-79 113.5t-28.5 148.5v0q0 82 28.5 148.5t79 113.5t116 72.5t138.5 25.5q74 0 139 -25.5t115.5 -72.5t79 -113.5t28.5 -148.5v0q0 -82 -28.5 -148.5t-79 -113.5t-115.5 -72.5t-139 -25.5zM398 152q47 0 82.5 24.5t55.5 69t20 104.5
v0q0 60 -20 104.5t-55.5 69t-82.5 24.5t-83 -24.5t-56 -69t-20 -104.5v0q0 -60 20 -104.5t56 -69t83 -24.5zM398 214q-40 0 -64.5 36.5t-24.5 99.5v0q0 62 24.5 98.5t64.5 36.5q39 0 63.5 -36.5t24.5 -98.5v0q0 -63 -24.5 -99.5t-63.5 -36.5z" />
    <glyph glyph-name="J.ss01" horiz-adv-x="442" 
d="M28 0v80h144q56 0 93 36.5t37 115.5v468h88v-464q0 -118 -60 -177t-158 -59h-144z" />
    <glyph glyph-name="Jcircumflex.ss01" horiz-adv-x="442" 
d="M28 0v80h144q56 0 93 36.5t37 115.5v468h88v-464q0 -118 -60 -177t-158 -59h-144zM212 776l97 147h75l97 -147h-59l-73 87h-5l-73 -87h-59z" />
    <glyph glyph-name="Q.ss01" horiz-adv-x="746" 
d="M373 0q-94 0 -170.5 43t-121.5 122t-45 185v0q0 110 45 191t121.5 125t170.5 44q70 0 131 -25t107.5 -72t72.5 -113t26 -147v0q0 -65 -20.5 -117t-59 -91t-92.5 -65v-8l87 8h94v-80h-346zM373 80q70 0 126.5 32.5t89.5 93t33 144.5v0q0 88 -33 150.5t-89.5 96
t-126.5 33.5t-127 -33.5t-90 -96t-33 -150.5v0q0 -84 33 -144.5t90 -93t127 -32.5z" />
    <glyph glyph-name="i.loclTRK" horiz-adv-x="178" 
d="M48 0v512h83v-512h-83zM89 601q-22 0 -38.5 16.5t-16.5 38.5q0 23 16.5 39t38.5 16q23 0 39 -16t16 -39q0 -22 -16 -38.5t-39 -16.5z" />
    <glyph glyph-name="a.ss02" horiz-adv-x="572" 
d="M263 -10q-66 0 -119 33t-83.5 93t-30.5 140v0q0 80 30.5 140t83.5 93t119 33q62 0 106 -28t72 -76h8v94h75v-512h-75v94h-8q-28 -48 -72 -76t-106 -28zM279 65q45 0 82.5 22.5t60.5 65t23 103.5v0q0 61 -23 103.5t-60.5 65t-82.5 22.5q-44 0 -81.5 -22.5t-60.5 -65
t-23 -103.5v0q0 -61 23 -103.5t60.5 -65t81.5 -22.5z" />
    <glyph glyph-name="aacute.ss02" horiz-adv-x="572" 
d="M263 -10q-66 0 -119 33t-83.5 93t-30.5 140v0q0 80 30.5 140t83.5 93t119 33q62 0 106 -28t72 -76h8v94h75v-512h-75v94h-8q-28 -48 -72 -76t-106 -28zM279 65q45 0 82.5 22.5t60.5 65t23 103.5v0q0 61 -23 103.5t-60.5 65t-82.5 22.5q-44 0 -81.5 -22.5t-60.5 -65
t-23 -103.5v0q0 -61 23 -103.5t60.5 -65t81.5 -22.5zM259 588l70 147h100l-106 -147h-64z" />
    <glyph glyph-name="abreve.ss02" horiz-adv-x="572" 
d="M263 -10q-66 0 -119 33t-83.5 93t-30.5 140v0q0 80 30.5 140t83.5 93t119 33q62 0 106 -28t72 -76h8v94h75v-512h-75v94h-8q-28 -48 -72 -76t-106 -28zM279 65q45 0 82.5 22.5t60.5 65t23 103.5v0q0 61 -23 103.5t-60.5 65t-82.5 22.5q-44 0 -81.5 -22.5t-60.5 -65
t-23 -103.5v0q0 -61 23 -103.5t60.5 -65t81.5 -22.5zM291 590q-58 0 -90 36t-32 94h65q0 -30 14 -49.5t43 -19.5t43 19.5t14 49.5h64q0 -58 -32 -94t-89 -36z" />
    <glyph glyph-name="acircumflex.ss02" horiz-adv-x="572" 
d="M263 -10q-66 0 -119 33t-83.5 93t-30.5 140v0q0 80 30.5 140t83.5 93t119 33q62 0 106 -28t72 -76h8v94h75v-512h-75v94h-8q-28 -48 -72 -76t-106 -28zM279 65q45 0 82.5 22.5t60.5 65t23 103.5v0q0 61 -23 103.5t-60.5 65t-82.5 22.5q-44 0 -81.5 -22.5t-60.5 -65
t-23 -103.5v0q0 -61 23 -103.5t60.5 -65t81.5 -22.5zM157 588l97 147h75l97 -147h-59l-73 87h-5l-73 -87h-59z" />
    <glyph glyph-name="adieresis.ss02" horiz-adv-x="572" 
d="M263 -10q-66 0 -119 33t-83.5 93t-30.5 140v0q0 80 30.5 140t83.5 93t119 33q62 0 106 -28t72 -76h8v94h75v-512h-75v94h-8q-28 -48 -72 -76t-106 -28zM279 65q45 0 82.5 22.5t60.5 65t23 103.5v0q0 61 -23 103.5t-60.5 65t-82.5 22.5q-44 0 -81.5 -22.5t-60.5 -65
t-23 -103.5v0q0 -61 23 -103.5t60.5 -65t81.5 -22.5zM385 601q-22 0 -38 16t-16 38q0 23 16 38.5t38 15.5t38 -15.5t16 -38.5q0 -22 -16 -38t-38 -16zM198 601q-22 0 -38 16t-16 38q0 23 16 38.5t38 15.5t38 -15.5t16 -38.5q0 -22 -16 -38t-38 -16z" />
    <glyph glyph-name="agrave.ss02" horiz-adv-x="572" 
d="M263 -10q-66 0 -119 33t-83.5 93t-30.5 140v0q0 80 30.5 140t83.5 93t119 33q62 0 106 -28t72 -76h8v94h75v-512h-75v94h-8q-28 -48 -72 -76t-106 -28zM279 65q45 0 82.5 22.5t60.5 65t23 103.5v0q0 61 -23 103.5t-60.5 65t-82.5 22.5q-44 0 -81.5 -22.5t-60.5 -65
t-23 -103.5v0q0 -61 23 -103.5t60.5 -65t81.5 -22.5zM260 588l-106 147h100l70 -147h-64z" />
    <glyph glyph-name="amacron.ss02" horiz-adv-x="572" 
d="M263 -10q-66 0 -119 33t-83.5 93t-30.5 140v0q0 80 30.5 140t83.5 93t119 33q62 0 106 -28t72 -76h8v94h75v-512h-75v94h-8q-28 -48 -72 -76t-106 -28zM279 65q45 0 82.5 22.5t60.5 65t23 103.5v0q0 61 -23 103.5t-60.5 65t-82.5 22.5q-44 0 -81.5 -22.5t-60.5 -65
t-23 -103.5v0q0 -61 23 -103.5t60.5 -65t81.5 -22.5zM175 629v65h231v-65h-231z" />
    <glyph glyph-name="aogonek.ss02" horiz-adv-x="572" 
d="M263 -10q-66 0 -119 33t-83.5 93t-30.5 140v0q0 80 30.5 140t83.5 93t119 33q62 0 106 -28t72 -76h8v94h75v-512h-75v94h-8q-28 -48 -72 -76t-106 -28zM279 65q45 0 82.5 22.5t60.5 65t23 103.5v0q0 61 -23 103.5t-60.5 65t-82.5 22.5q-44 0 -81.5 -22.5t-60.5 -65
t-23 -103.5v0q0 -61 23 -103.5t60.5 -65t81.5 -22.5zM489 -191q-42 0 -67.5 25t-25.5 65q0 37 20 64.5t44 42.5l64 -6q-26 -18 -45 -39.5t-19 -50.5q0 -17 10 -28t29 -11q10 0 17.5 2.5t13.5 6.5v-62q-15 -9 -41 -9z" />
    <glyph glyph-name="aring.ss02" horiz-adv-x="572" 
d="M263 -10q-66 0 -119 33t-83.5 93t-30.5 140v0q0 80 30.5 140t83.5 93t119 33q62 0 106 -28t72 -76h8v94h75v-512h-75v94h-8q-28 -48 -72 -76t-106 -28zM279 65q45 0 82.5 22.5t60.5 65t23 103.5v0q0 61 -23 103.5t-60.5 65t-82.5 22.5q-44 0 -81.5 -22.5t-60.5 -65
t-23 -103.5v0q0 -61 23 -103.5t60.5 -65t81.5 -22.5zM291 579q-40 0 -68 25.5t-28 67.5t28 68t68 26t68 -26t28 -68t-28 -67.5t-68 -25.5zM291 627q20 0 32 13t12 32q0 20 -12 32.5t-32 12.5q-18 0 -31 -12.5t-13 -32.5q0 -19 13 -32t31 -13z" />
    <glyph glyph-name="atilde.ss02" horiz-adv-x="572" 
d="M263 -10q-66 0 -119 33t-83.5 93t-30.5 140v0q0 80 30.5 140t83.5 93t119 33q62 0 106 -28t72 -76h8v94h75v-512h-75v94h-8q-28 -48 -72 -76t-106 -28zM279 65q45 0 82.5 22.5t60.5 65t23 103.5v0q0 61 -23 103.5t-60.5 65t-82.5 22.5q-44 0 -81.5 -22.5t-60.5 -65
t-23 -103.5v0q0 -61 23 -103.5t60.5 -65t81.5 -22.5zM350 605q-30 0 -49 11t-33 22t-31 11q-15 0 -24 -11t-9 -27h-61q0 39 23.5 67t66.5 28q31 0 50 -11.5t33 -22.5t30 -11q15 0 24 11t9 27h61q0 -38 -23.5 -66t-66.5 -28z" />
    <glyph glyph-name="ae.ss02" horiz-adv-x="965" 
d="M263 -10q-66 0 -119 33t-83.5 93t-30.5 140v0q0 80 30.5 140t83.5 93t119 33q62 0 105.5 -28t71.5 -76h8v94h75v-94h8q23 47 70.5 75.5t109.5 28.5q66 0 116.5 -30.5t79.5 -82t29 -115.5q0 -16 -1.5 -29.5t-3.5 -26.5h-405v0q4 -56 28 -95t61 -59t80 -20q51 0 87.5 21.5
t55.5 57.5h84q-26 -72 -81.5 -112.5t-138.5 -40.5q-61 0 -104.5 28t-66.5 76h-8v-94h-75v94h-8q-28 -48 -71.5 -76t-105.5 -28zM279 65q45 0 82.5 22.5t60.5 65t23 103.5v0q0 61 -23 103.5t-60.5 65t-82.5 22.5q-44 0 -81.5 -22.5t-60.5 -65t-23 -103.5v0q0 -61 23 -103.5
t60.5 -65t81.5 -22.5zM531 305h323v0q-1 46 -22.5 79t-57 51t-78.5 18q-60 0 -107 -38.5t-58 -109.5v0z" />
    <glyph glyph-name="aeacute.ss02" horiz-adv-x="965" 
d="M263 -10q-66 0 -119 33t-83.5 93t-30.5 140v0q0 80 30.5 140t83.5 93t119 33q62 0 105.5 -28t71.5 -76h8v94h75v-94h8q23 47 70.5 75.5t109.5 28.5q66 0 116.5 -30.5t79.5 -82t29 -115.5q0 -16 -1.5 -29.5t-3.5 -26.5h-405v0q4 -56 28 -95t61 -59t80 -20q51 0 87.5 21.5
t55.5 57.5h84q-26 -72 -81.5 -112.5t-138.5 -40.5q-61 0 -104.5 28t-66.5 76h-8v-94h-75v94h-8q-28 -48 -71.5 -76t-105.5 -28zM279 65q45 0 82.5 22.5t60.5 65t23 103.5v0q0 61 -23 103.5t-60.5 65t-82.5 22.5q-44 0 -81.5 -22.5t-60.5 -65t-23 -103.5v0q0 -61 23 -103.5
t60.5 -65t81.5 -22.5zM531 305h323v0q-1 46 -22.5 79t-57 51t-78.5 18q-60 0 -107 -38.5t-58 -109.5v0zM452 588l70 147h100l-106 -147h-64z" />
    <glyph glyph-name="l.ss03" horiz-adv-x="250" 
d="M158 0q-53 0 -81.5 31.5t-28.5 90.5v588h83v-582q0 -25 10 -39t31 -14h64v-75h-78z" />
    <glyph glyph-name="lacute.ss03" horiz-adv-x="250" 
d="M158 0q-53 0 -81.5 31.5t-28.5 90.5v588h83v-582q0 -25 10 -39t31 -14h64v-75h-78zM57 786l70 147h100l-106 -147h-64z" />
    <glyph glyph-name="lcaron.ss03" horiz-adv-x="250" 
d="M158 0q-53 0 -81.5 31.5t-28.5 90.5v588h83v-582q0 -25 10 -39t31 -14h64v-75h-78zM185 517l43 214h94l-77 -214h-60z" />
    <glyph glyph-name="uni013C.ss03" horiz-adv-x="250" 
d="M158 0q-53 0 -81.5 31.5t-28.5 90.5v588h83v-582q0 -25 10 -39t31 -14h64v-75h-78zM79 -212l36 145h84l-70 -145h-50z" />
    <glyph glyph-name="ldot.ss03" horiz-adv-x="275" 
d="M158 0q-53 0 -81.5 31.5t-28.5 90.5v588h83v-582q0 -25 10 -39t31 -14h64v-75h-78zM227 291q-24 0 -41.5 17.5t-17.5 42.5q0 24 17.5 41.5t41.5 17.5t41.5 -17.5t17.5 -41.5q0 -25 -17.5 -42.5t-41.5 -17.5z" />
    <glyph glyph-name="lslash.ss03" horiz-adv-x="284" 
d="M13 186v84l232 183v-84zM193 0q-53 0 -81.5 31.5t-28.5 90.5v588h83v-582q0 -25 10 -39t31 -14h64v-75h-78z" />
    <glyph glyph-name="t.ss04" horiz-adv-x="352" 
d="M133 0v648h83v-648h-83zM10 442v70h328v-70h-328z" />
    <glyph glyph-name="tbar.ss04" horiz-adv-x="352" 
d="M30 222v69h289v-69h-289zM133 0v648h83v-648h-83zM10 442v70h328v-70h-328z" />
    <glyph glyph-name="tcaron.ss04" horiz-adv-x="352" 
d="M133 0v648h83v-648h-83zM10 442v70h328v-70h-328zM270 579l43 214h94l-77 -214h-60z" />
    <glyph glyph-name="uni0163.ss04" horiz-adv-x="352" 
d="M133 0v648h83v-648h-83zM10 442v70h328v-70h-328zM179 -209q-21 0 -40 3.5t-36 10.5v58q19 -8 38 -12.5t38 -4.5q22 0 34 10.5t12 24.5q0 15 -12 25t-37 10h-52l27 94h50l-14 -48q49 0 74.5 -21.5t25.5 -59.5q0 -46 -29 -68t-79 -22z" />
    <glyph glyph-name="uni021B.ss04" horiz-adv-x="352" 
d="M133 0v648h83v-648h-83zM10 442v70h328v-70h-328zM102 -212l36 145h84l-70 -145h-50z" />
    <glyph glyph-name="f_l.ss03" horiz-adv-x="617" 
d="M112 0v544q0 82 42.5 124t109.5 42h96v-72h-90q-35 0 -55 -21.5t-20 -69.5v-547h-83zM13 442v70h328v-70h-328zM525 0q-53 0 -81.5 31.5t-28.5 90.5v588h83v-582q0 -25 10 -39t31 -14h64v-75h-78z" />
    <glyph glyph-name="zero.zero" horiz-adv-x="596" 
d="M221 46l-69 25l224 583l69 -25zM298 -10q-79 0 -139 44.5t-93.5 125.5t-33.5 190v0q0 110 33.5 191t93.5 125t139 44t139 -44t93.5 -125t33.5 -191v0q0 -109 -33.5 -190t-93.5 -125.5t-139 -44.5zM298 68q54 0 95 34t63.5 97.5t22.5 150.5v0q0 88 -22.5 151t-63.5 97
t-95 34t-94.5 -34t-63.5 -97t-23 -151v0q0 -87 23 -150.5t63.5 -97.5t94.5 -34z" />
    <glyph glyph-name="one.sansSerifCircled.ss05" horiz-adv-x="796" 
d="M398 -10q-73 0 -138.5 25.5t-116 72.5t-79 113.5t-28.5 148.5v0q0 82 28.5 148.5t79 113.5t116 72.5t138.5 25.5q74 0 139 -25.5t115.5 -72.5t79 -113.5t28.5 -148.5v0q0 -82 -28.5 -148.5t-79 -113.5t-115.5 -72.5t-139 -25.5zM398 44q62 0 117.5 21.5t98.5 61.5
t67.5 96.5t24.5 126.5v0q0 70 -24.5 126.5t-67.5 97t-98.5 62t-117.5 21.5q-63 0 -118.5 -21.5t-98.5 -62t-67.5 -97t-24.5 -126.5v0q0 -70 24.5 -126.5t67.5 -96.5t98.5 -61.5t118.5 -21.5zM379 158v296h-4q-7 -16 -23 -26.5t-41 -10.5h-17v69h22q29 0 45.5 17t17.5 40h69
v-385h-69z" />
    <glyph glyph-name="one.sansSerifBlackCircled.ss05" horiz-adv-x="796" 
d="M398 -10q-73 0 -138.5 25.5t-116 72.5t-79 113.5t-28.5 148.5v0q0 82 28.5 148.5t79 113.5t116 72.5t138.5 25.5q74 0 139 -25.5t115.5 -72.5t79 -113.5t28.5 -148.5v0q0 -82 -28.5 -148.5t-79 -113.5t-115.5 -72.5t-139 -25.5zM379 158h69v385h-69q-1 -23 -17.5 -40
t-45.5 -17h-22v-69h17q25 0 41 10.5t23 26.5h4v-296z" />
    <glyph glyph-name="one.ss05" horiz-adv-x="314" 
d="M178 0v581h-8q-9 -28 -37 -50.5t-77 -22.5h-30v82h34q50 0 80 30.5t38 79.5h84v-700h-84z" />
    <glyph glyph-name="zero.tf" horiz-adv-x="600" 
d="M300 -10q-77 0 -135 44.5t-90 125.5t-32 190v0q0 110 32 191t90 125t135 44q78 0 135.5 -44t89.5 -125t32 -191v0q0 -109 -32 -190t-89.5 -125.5t-135.5 -44.5zM300 68q78 0 125 74.5t47 207.5v0q0 89 -21.5 152t-60 96.5t-90.5 33.5t-90.5 -33.5t-60 -96.5t-21.5 -152v0
q0 -88 21.5 -151.5t60 -97t90.5 -33.5z" />
    <glyph glyph-name="zero.zero.tf" horiz-adv-x="600" 
d="M300 -10q-77 0 -135 44.5t-90 125.5t-32 190v0q0 110 32 191t90 125t135 44q78 0 135.5 -44t89.5 -125t32 -191v0q0 -109 -32 -190t-89.5 -125.5t-135.5 -44.5zM300 68q78 0 125 74.5t47 207.5v0q0 89 -21.5 152t-60 96.5t-90.5 33.5t-90.5 -33.5t-60 -96.5t-21.5 -152v0
q0 -88 21.5 -151.5t60 -97t90.5 -33.5zM222 46l-69 25l224 583l69 -25z" />
    <glyph glyph-name="one.tf" horiz-adv-x="600" 
d="M256 0v581h-8q-10 -28 -38 -50.5t-76 -22.5h-49v82h52q50 0 80 30.5t39 79.5h84v-700h-84zM79 0v78h440v-78h-440z" />
    <glyph glyph-name="two.tf" horiz-adv-x="600" 
d="M84 0v78l255 245q45 43 68.5 85t23.5 96v0q0 64 -39.5 96t-97.5 32q-55 0 -93 -34t-45 -95v0h-81v0q4 57 31.5 104t75 75t111.5 28t114 -24.5t79 -69.5t29 -109v0q0 -48 -13.5 -88t-40 -76t-65.5 -73l-198 -188v-4h327v-78h-441z" />
    <glyph glyph-name="three.tf" horiz-adv-x="600" 
d="M300 -10q-72 0 -124 28t-80.5 76t-30.5 108v0h85v0q6 -58 43.5 -96t106.5 -38q68 0 109.5 36t41.5 100v0q0 56 -41.5 90t-104.5 34h-48v76h48q59 0 90.5 31.5t31.5 85.5v0q0 55 -38 84t-92 29q-58 0 -94.5 -31t-44.5 -81v0h-80v0q5 50 31 93t73 69t115 26q65 0 112.5 -23
t74 -64.5t26.5 -97.5v0q0 -59 -32.5 -97.5t-81.5 -53.5v-4q37 -9 68 -30.5t50.5 -55.5t19.5 -83v0q0 -64 -30.5 -111.5t-83 -73.5t-120.5 -26z" />
    <glyph glyph-name="four.tf" horiz-adv-x="600" 
d="M368 0v172h-314v75l310 453h86v-453h96v-75h-96v-172h-82zM143 247h225v328h-4l-221 -324v-4z" />
    <glyph glyph-name="five.tf" horiz-adv-x="600" 
d="M299 -10q-72 0 -123 28.5t-79 78t-31 112.5h84q4 -61 41 -101.5t109 -40.5q44 0 78 21t53.5 58t19.5 85v0q0 74 -43 118t-112 44q-40 0 -74.5 -17.5t-54.5 -48.5h-83l32 373h392v-78h-318l-31 -234h7q17 32 58.5 55.5t89.5 23.5q61 0 111 -28.5t80 -81t30 -126.5v0
q0 -68 -30.5 -122.5t-83.5 -86.5t-122 -32z" />
    <glyph glyph-name="six.tf" horiz-adv-x="600" 
d="M312 -10q-75 0 -133 37t-91 111t-33 185v0q0 130 31.5 216t91 128.5t143.5 42.5q64 0 110.5 -24t74 -65t33.5 -92h-88q-7 45 -41.5 75.5t-91.5 30.5q-67 0 -107 -38.5t-57.5 -108.5t-18.5 -167v0v0h8q16 58 63 96t117 38q60 0 111 -27t81.5 -79t30.5 -127v0
q0 -70 -32 -122.5t-85 -81t-117 -28.5zM311 66q43 0 77.5 19.5t54.5 54.5t20 82v0q0 48 -20 83.5t-54.5 55t-77.5 19.5q-64 0 -107.5 -43.5t-43.5 -114.5v0q0 -47 20 -82t54 -54.5t77 -19.5z" />
    <glyph glyph-name="seven.tf" horiz-adv-x="600" 
d="M173 0l262 618v4h-357v78h443v-78l-258 -622h-90z" />
    <glyph glyph-name="eight.tf" horiz-adv-x="600" 
d="M300 -10q-66 0 -117.5 25t-81.5 71t-30 108v0q0 46 18 80t46.5 56.5t59.5 33.5v7q-46 23 -75.5 59.5t-29.5 91.5v0q0 58 27.5 100t75 65t107.5 23t107.5 -23t75.5 -65t28 -100v0q0 -55 -29.5 -91.5t-76.5 -59.5v-7q32 -11 60.5 -33.5t46.5 -56.5t18 -80v0q0 -62 -30 -108
t-82 -71t-118 -25zM300 66q64 0 105.5 35t41.5 96v0q0 62 -41.5 96.5t-105.5 34.5t-105.5 -34.5t-41.5 -96.5v0q0 -61 41.5 -96t105.5 -35zM300 402q59 0 95 32.5t36 84.5v0q0 52 -36 84.5t-95 32.5t-94.5 -32.5t-35.5 -84.5v0q0 -52 35.5 -84.5t94.5 -32.5z" />
    <glyph glyph-name="nine.tf" horiz-adv-x="600" 
d="M279 -10q-64 0 -110.5 24t-74 65.5t-34.5 91.5h88q8 -44 42 -74.5t91 -30.5q68 0 107.5 37.5t56.5 106.5t17 163v0v0h-7q-14 -52 -61.5 -89t-115.5 -37q-60 0 -111 27t-82 79t-31 126v0q0 71 31.5 123t85 80t117.5 28q75 0 133 -37t91 -111t33 -185v0q0 -130 -31.5 -216
t-91 -128.5t-143.5 -42.5zM288 323q42 0 76.5 19t55 54.5t20.5 82.5v0q0 48 -20.5 83t-55 54t-76.5 19t-76.5 -19t-54.5 -54t-20 -83v0q0 -47 20 -82.5t54.5 -54.5t76.5 -19z" />
    <glyph glyph-name="zero.dnom" horiz-adv-x="360" 
d="M180 -5q-46 0 -82 24.5t-56 69t-20 104.5v0q0 60 20 104.5t56 69t82 24.5q47 0 82.5 -24.5t55.5 -69t20 -104.5v0q0 -60 -20 -104.5t-55.5 -69t-82.5 -24.5zM180 57q39 0 63.5 36.5t24.5 99.5v0q0 62 -24.5 98.5t-63.5 36.5q-40 0 -64.5 -36.5t-24.5 -98.5v0
q0 -63 24.5 -99.5t64.5 -36.5z" />
    <glyph glyph-name="one.dnom" horiz-adv-x="276" 
d="M103 0v296h-5q-7 -16 -22.5 -26.5t-40.5 -10.5h-17v69h21q29 0 46 17t18 40h69v-385h-69zM18 0v63h238v-63h-238z" />
    <glyph glyph-name="two.dnom" horiz-adv-x="310" 
d="M32 0v63l135 125q21 20 33.5 38.5t12.5 46.5q0 27 -17.5 41.5t-43.5 14.5q-25 0 -42.5 -15.5t-19.5 -43.5h-65q1 33 16 60.5t43 44t68 16.5q57 0 93 -29.5t36 -82.5q0 -40 -17 -69t-52 -61l-89 -82v-4h163v-63h-254z" />
    <glyph glyph-name="three.dnom" horiz-adv-x="314" 
d="M159 -5q-43 0 -74 16t-47 44.5t-17 63.5h67q2 -28 19.5 -45.5t52.5 -17.5q34 0 51.5 16.5t17.5 43.5v0q0 26 -19 41t-49 15h-34v57h34q29 0 44 14t15 38v0q0 24 -17.5 37t-43.5 13t-43.5 -13.5t-21.5 -36.5h-66q3 29 17.5 54t42 40.5t70.5 15.5q59 0 93 -28.5t34 -75.5v0
q0 -34 -17 -54t-42 -28v-4q27 -7 48.5 -28t21.5 -61v0q0 -51 -37.5 -84t-99.5 -33z" />
    <glyph glyph-name="four.dnom" horiz-adv-x="322" 
d="M193 0v86h-174v58l169 241h69v-241h52v-58h-52v-86h-64zM88 144h105v151h-4l-101 -147v-4z" />
    <glyph glyph-name="five.dnom" horiz-adv-x="320" 
d="M158 -5q-60 0 -95.5 33t-37.5 90h67q2 -27 18.5 -45t47.5 -18q29 0 48.5 20t19.5 53v0q0 33 -19 53t-50 20q-19 0 -35 -9.5t-24 -23.5h-66l19 217h225v-62h-169l-16 -111h4q10 20 31.5 32.5t49.5 12.5q49 0 83.5 -34t34.5 -95v0q0 -58 -37.5 -95.5t-98.5 -37.5z" />
    <glyph glyph-name="six.dnom" horiz-adv-x="326" 
d="M170 -5q-67 0 -107.5 47t-40.5 138v0q0 70 18.5 117t52.5 70.5t82 23.5q56 0 88 -30.5t37 -74.5h-67q-4 20 -19.5 33.5t-41.5 13.5q-46 0 -66 -40t-21 -108v0v0h5q10 29 33.5 47t61.5 18q49 0 84.5 -32.5t35.5 -94.5v0q0 -38 -18.5 -67t-49 -45t-67.5 -16zM169 52
q31 0 50 20.5t19 50.5v0q0 30 -19 50t-50 20t-50 -20t-19 -50v0q0 -30 19 -50.5t50 -20.5z" />
    <glyph glyph-name="seven.dnom" horiz-adv-x="296" 
d="M69 0l141 320v3h-195v62h264v-62l-138 -323h-72z" />
    <glyph glyph-name="eight.dnom" horiz-adv-x="309" 
d="M154 -5q-59 0 -94.5 31t-35.5 83v0q0 36 20 59.5t44 32.5v4q-23 13 -38 33.5t-15 49.5v0q0 46 33.5 74.5t85.5 28.5q53 0 86.5 -28.5t33.5 -74.5v0q0 -29 -15 -49.5t-38 -33.5v-4q25 -9 44.5 -32.5t19.5 -59.5v0q0 -52 -36 -83t-95 -31zM154 53q30 0 48.5 16.5t18.5 44.5
v0q0 27 -18.5 43.5t-48.5 16.5q-29 0 -47.5 -16.5t-18.5 -43.5v0q0 -28 18.5 -44.5t47.5 -16.5zM154 229q26 0 42.5 15t16.5 38v0q0 24 -16.5 39t-42.5 15q-25 0 -41.5 -15t-16.5 -39v0q0 -23 16 -38t42 -15z" />
    <glyph glyph-name="nine.dnom" horiz-adv-x="326" 
d="M151 -5q-56 0 -88.5 30.5t-37.5 74.5h67q5 -20 20 -33.5t41 -13.5q47 0 66 39.5t19 104.5v0v0h-3q-9 -25 -32.5 -42.5t-60.5 -17.5q-49 0 -85 33t-36 94v0q0 38 18.5 66.5t49 44.5t67.5 16q67 0 107.5 -46.5t40.5 -138.5v0q0 -70 -18.5 -117t-52.5 -70.5t-82 -23.5z
M156 194q30 0 49.5 20t19.5 50v0q0 30 -19.5 49.5t-49.5 19.5t-49.5 -19.5t-19.5 -49.5v0q0 -30 19.5 -50t49.5 -20z" />
    <glyph glyph-name="zero.numr" horiz-adv-x="360" 
d="M180 310q-46 0 -82 24.5t-56 69t-20 104.5v0q0 60 20 104.5t56 69t82 24.5q47 0 82.5 -24.5t55.5 -69t20 -104.5v0q0 -60 -20 -104.5t-55.5 -69t-82.5 -24.5zM180 372q39 0 63.5 36.5t24.5 99.5v0q0 62 -24.5 98.5t-63.5 36.5q-40 0 -64.5 -36.5t-24.5 -98.5v0
q0 -63 24.5 -99.5t64.5 -36.5z" />
    <glyph glyph-name="one.numr" horiz-adv-x="276" 
d="M103 315v296h-5q-7 -16 -22.5 -26.5t-40.5 -10.5h-17v69h21q29 0 46 17t18 40h69v-385h-69zM18 315v63h238v-63h-238z" />
    <glyph glyph-name="two.numr" horiz-adv-x="310" 
d="M32 315v63l135 125q21 20 33.5 38.5t12.5 46.5q0 27 -17.5 41.5t-43.5 14.5q-25 0 -42.5 -15.5t-19.5 -43.5h-65q1 33 16 60.5t43 44t68 16.5q57 0 93 -29.5t36 -82.5q0 -40 -17 -69t-52 -61l-89 -82v-4h163v-63h-254z" />
    <glyph glyph-name="three.numr" horiz-adv-x="314" 
d="M159 310q-43 0 -74 16t-47 44.5t-17 63.5h67q2 -28 19.5 -45.5t52.5 -17.5q34 0 51.5 16.5t17.5 43.5v0q0 26 -19 41t-49 15h-34v57h34q29 0 44 14t15 38v0q0 24 -17.5 37t-43.5 13t-43.5 -13.5t-21.5 -36.5h-66q3 29 17.5 54t42 40.5t70.5 15.5q59 0 93 -28.5t34 -75.5
v0q0 -34 -17 -54t-42 -28v-4q27 -7 48.5 -28t21.5 -61v0q0 -51 -37.5 -84t-99.5 -33z" />
    <glyph glyph-name="four.numr" horiz-adv-x="322" 
d="M193 315v86h-174v58l169 241h69v-241h52v-58h-52v-86h-64zM88 459h105v151h-4l-101 -147v-4z" />
    <glyph glyph-name="five.numr" horiz-adv-x="320" 
d="M158 310q-60 0 -95.5 33t-37.5 90h67q2 -27 18.5 -45t47.5 -18q29 0 48.5 20t19.5 53v0q0 33 -19 53t-50 20q-19 0 -35 -9.5t-24 -23.5h-66l19 217h225v-62h-169l-16 -111h4q10 20 31.5 32.5t49.5 12.5q49 0 83.5 -34t34.5 -95v0q0 -58 -37.5 -95.5t-98.5 -37.5z" />
    <glyph glyph-name="six.numr" horiz-adv-x="326" 
d="M170 310q-67 0 -107.5 47t-40.5 138v0q0 70 18.5 117t52.5 70.5t82 23.5q56 0 88 -30.5t37 -74.5h-67q-4 20 -19.5 33.5t-41.5 13.5q-46 0 -66 -40t-21 -108v0v0h5q10 29 33.5 47t61.5 18q49 0 84.5 -32.5t35.5 -94.5v0q0 -38 -18.5 -67t-49 -45t-67.5 -16zM169 367
q31 0 50 20.5t19 50.5v0q0 30 -19 50t-50 20t-50 -20t-19 -50v0q0 -30 19 -50.5t50 -20.5z" />
    <glyph glyph-name="seven.numr" horiz-adv-x="296" 
d="M69 315l141 320v3h-195v62h264v-62l-138 -323h-72z" />
    <glyph glyph-name="eight.numr" horiz-adv-x="309" 
d="M154 310q-59 0 -94.5 31t-35.5 83v0q0 36 20 59.5t44 32.5v4q-23 13 -38 33.5t-15 49.5v0q0 46 33.5 74.5t85.5 28.5q53 0 86.5 -28.5t33.5 -74.5v0q0 -29 -15 -49.5t-38 -33.5v-4q25 -9 44.5 -32.5t19.5 -59.5v0q0 -52 -36 -83t-95 -31zM154 368q30 0 48.5 16.5
t18.5 44.5v0q0 27 -18.5 43.5t-48.5 16.5q-29 0 -47.5 -16.5t-18.5 -43.5v0q0 -28 18.5 -44.5t47.5 -16.5zM154 544q26 0 42.5 15t16.5 38v0q0 24 -16.5 39t-42.5 15q-25 0 -41.5 -15t-16.5 -39v0q0 -23 16 -38t42 -15z" />
    <glyph glyph-name="nine.numr" horiz-adv-x="326" 
d="M151 310q-56 0 -88.5 30.5t-37.5 74.5h67q5 -20 20 -33.5t41 -13.5q47 0 66 39.5t19 104.5v0v0h-3q-9 -25 -32.5 -42.5t-60.5 -17.5q-49 0 -85 33t-36 94v0q0 38 18.5 66.5t49 44.5t67.5 16q67 0 107.5 -46.5t40.5 -138.5v0q0 -70 -18.5 -117t-52.5 -70.5t-82 -23.5z
M156 509q30 0 49.5 20t19.5 50v0q0 30 -19.5 49.5t-49.5 19.5t-49.5 -19.5t-19.5 -49.5v0q0 -30 19.5 -50t49.5 -20z" />
    <glyph glyph-name="uni2081.ss05" horiz-adv-x="201" 
d="M103 -100v296h-5q-7 -16 -22.5 -26.5t-40.5 -10.5h-17v69h21q29 0 46 17t18 40h69v-385h-69z" />
    <glyph glyph-name="one.dnom.ss05" horiz-adv-x="201" 
d="M103 0v296h-5q-7 -16 -22.5 -26.5t-40.5 -10.5h-17v69h21q29 0 46 17t18 40h69v-385h-69z" />
    <glyph glyph-name="one.numr.ss05" horiz-adv-x="201" 
d="M103 315v296h-5q-7 -16 -22.5 -26.5t-40.5 -10.5h-17v69h21q29 0 46 17t18 40h69v-385h-69z" />
    <glyph glyph-name="uni00B9.ss05" horiz-adv-x="201" 
d="M103 415v296h-5q-7 -16 -22.5 -26.5t-40.5 -10.5h-17v69h21q29 0 46 17t18 40h69v-385h-69z" />
    <glyph glyph-name="onehalf.ss05" horiz-adv-x="758" 
d="M103 315v296h-5q-7 -16 -22.5 -26.5t-40.5 -10.5h-17v69h21q29 0 46 17t18 40h69v-385h-69zM91 0l418 700h81l-418 -700h-81zM480 0v63l135 125q21 20 33.5 38.5t12.5 46.5q0 27 -17.5 41.5t-43.5 14.5q-25 0 -42.5 -15.5t-19.5 -43.5h-65q1 33 16 60.5t43 44t68 16.5
q57 0 93 -29.5t36 -82.5q0 -40 -17 -69t-52 -61l-89 -82v-4h163v-63h-254z" />
    <glyph glyph-name="onequarter.ss05" horiz-adv-x="685" 
d="M103 315v296h-5q-7 -16 -22.5 -26.5t-40.5 -10.5h-17v69h21q29 0 46 17t18 40h69v-385h-69zM91 0l418 700h81l-418 -700h-81zM556 0v86h-174v58l169 241h69v-241h52v-58h-52v-86h-64zM451 144h105v151h-4l-101 -147v-4z" />
    <glyph glyph-name="uni2080.zero" horiz-adv-x="360" 
d="M136 -75l-48 20l135 314l48 -20zM180 -105q-46 0 -82 24.5t-56 69t-20 104.5v0q0 60 20 104.5t56 69t82 24.5q47 0 82.5 -24.5t55.5 -69t20 -104.5v0q0 -60 -20 -104.5t-55.5 -69t-82.5 -24.5zM180 -43q39 0 63.5 36.5t24.5 99.5v0q0 62 -24.5 98.5t-63.5 36.5
q-40 0 -64.5 -36.5t-24.5 -98.5v0q0 -63 24.5 -99.5t64.5 -36.5z" />
    <glyph glyph-name="zero.dnom.zero" horiz-adv-x="360" 
d="M136 25l-48 20l135 314l48 -20zM180 -5q-46 0 -82 24.5t-56 69t-20 104.5v0q0 60 20 104.5t56 69t82 24.5q47 0 82.5 -24.5t55.5 -69t20 -104.5v0q0 -60 -20 -104.5t-55.5 -69t-82.5 -24.5zM180 57q39 0 63.5 36.5t24.5 99.5v0q0 62 -24.5 98.5t-63.5 36.5
q-40 0 -64.5 -36.5t-24.5 -98.5v0q0 -63 24.5 -99.5t64.5 -36.5z" />
    <glyph glyph-name="zero.numr.zero" horiz-adv-x="360" 
d="M136 340l-48 20l135 314l48 -20zM180 310q-46 0 -82 24.5t-56 69t-20 104.5v0q0 60 20 104.5t56 69t82 24.5q47 0 82.5 -24.5t55.5 -69t20 -104.5v0q0 -60 -20 -104.5t-55.5 -69t-82.5 -24.5zM180 372q39 0 63.5 36.5t24.5 99.5v0q0 62 -24.5 98.5t-63.5 36.5
q-40 0 -64.5 -36.5t-24.5 -98.5v0q0 -63 24.5 -99.5t64.5 -36.5z" />
    <glyph glyph-name="uni2070.zero" horiz-adv-x="360" 
d="M136 440l-48 20l135 314l48 -20zM180 410q-46 0 -82 24.5t-56 69t-20 104.5v0q0 60 20 104.5t56 69t82 24.5q47 0 82.5 -24.5t55.5 -69t20 -104.5v0q0 -60 -20 -104.5t-55.5 -69t-82.5 -24.5zM180 472q39 0 63.5 36.5t24.5 99.5v0q0 62 -24.5 98.5t-63.5 36.5
q-40 0 -64.5 -36.5t-24.5 -98.5v0q0 -63 24.5 -99.5t64.5 -36.5z" />
    <glyph glyph-name="colon.time" horiz-adv-x="190" 
d="M95 88q-24 0 -41.5 17.5t-17.5 42.5q0 24 17.5 41.5t41.5 17.5t41.5 -17.5t17.5 -41.5q0 -25 -17.5 -42.5t-41.5 -17.5zM95 493q-24 0 -41.5 17.5t-17.5 42.5q0 24 17.5 41.5t41.5 17.5t41.5 -17.5t17.5 -41.5q0 -25 -17.5 -42.5t-41.5 -17.5z" />
    <glyph glyph-name="uni030C.alt" horiz-adv-x="0" 
d="M48 517l43 214h94l-77 -214h-60z" />
    </font>
</defs>
</svg>
